{"glyphs":{"0":{"ha":669,"x_min":60,"x_max":604,"o":"m 322 188 q 417 312 376 244 q 483 447 457 379 q 522 578 508 514 q 535 692 535 642 q 526 767 535 738 q 497 796 517 796 q 412 740 465 796 q 286 551 358 683 q 253 478 269 524 q 223 379 236 432 q 201 274 210 326 q 192 178 192 221 q 197 128 192 149 q 215 108 203 108 q 256 126 231 108 q 322 188 282 144 m 604 649 q 573 494 596 569 q 517 350 550 418 q 443 224 483 282 q 360 125 403 167 q 274 60 317 83 q 194 36 231 36 q 98 89 136 36 q 60 242 60 142 q 68 333 60 285 q 89 428 76 381 q 117 519 101 475 q 146 599 132 563 q 198 694 167 642 q 269 794 229 747 q 355 874 308 842 q 454 906 401 906 q 526 885 497 906 q 573 832 556 864 q 597 760 590 800 q 604 682 604 719 l 604 674 l 604 649 z "},"1":{"ha":632,"x_min":50,"x_max":576,"o":"m 529 899 l 529 896 l 529 899 m 263 738 q 191 751 228 738 q 115 796 154 764 q 108 809 111 801 q 104 822 104 817 q 115 849 104 838 q 142 860 125 860 q 168 849 160 860 q 215 823 193 832 q 261 814 238 814 q 327 828 294 814 q 386 861 360 843 q 421 885 404 876 q 457 894 438 894 l 531 900 l 529 899 q 542 900 533 906 l 571 868 q 575 858 574 865 q 574 843 576 850 l 575 844 l 435 536 q 337 322 386 429 q 239 107 288 214 l 281 107 q 306 94 297 107 q 315 69 315 82 q 281 35 315 35 l 89 33 q 61 43 72 33 q 50 68 50 53 q 61 96 50 85 q 89 107 72 107 l 138 107 l 264 451 q 322 611 293 536 q 381 771 350 686 q 324 747 354 757 q 263 738 294 738 z "},"2":{"ha":971,"x_min":49,"x_max":906,"o":"m 543 535 q 532 508 543 518 q 503 499 521 499 q 481 508 489 499 q 469 531 474 518 q 465 560 465 544 q 464 588 464 575 q 488 708 464 647 q 551 815 511 768 q 644 892 590 863 q 758 922 697 922 q 874 883 842 922 q 906 790 906 844 q 861 652 906 724 q 747 509 817 581 q 592 369 678 438 q 425 240 507 301 q 406 225 415 232 q 390 213 397 218 l 392 213 l 386 208 l 382 206 l 385 206 q 471 196 429 206 q 550 175 513 186 q 557 174 553 175 q 564 172 561 172 l 579 168 q 582 167 581 168 q 586 165 583 165 q 642 151 615 157 q 686 144 668 144 q 731 157 713 144 q 760 207 749 169 q 794 236 768 236 q 822 224 811 236 q 832 199 832 211 l 832 189 q 776 92 810 118 q 696 65 742 65 q 633 74 667 65 q 568 93 600 82 l 569 93 q 478 119 525 107 q 386 132 431 132 q 290 115 338 132 q 192 50 242 97 l 74 51 l 67 51 q 61 54 64 51 q 51 72 54 65 q 49 85 49 78 q 50 100 49 92 q 58 115 51 108 q 142 181 79 136 l 161 194 q 193 219 176 207 q 225 243 210 232 q 340 330 279 283 q 459 424 400 376 q 571 520 518 472 q 664 615 624 568 q 728 705 704 663 q 751 785 751 747 q 708 831 751 831 q 660 815 689 831 q 603 767 631 799 q 557 691 576 736 q 538 589 538 646 q 539 565 538 578 q 543 540 540 553 l 543 535 z "},"3":{"ha":756,"x_min":60,"x_max":683,"o":"m 389 700 q 351 675 378 675 q 326 686 336 675 q 317 715 317 697 l 317 718 q 318 724 317 721 l 318 722 q 354 806 331 771 q 406 863 378 840 q 467 897 435 886 q 531 907 499 907 q 640 870 596 907 q 683 776 683 833 q 671 720 683 747 q 639 668 658 693 q 594 622 619 643 q 543 585 568 601 q 608 498 589 546 q 626 399 626 450 q 593 262 626 328 q 507 145 560 196 q 390 64 454 94 q 264 33 326 33 q 177 53 215 33 q 113 103 139 72 q 74 172 88 133 q 60 249 60 210 q 73 326 60 289 q 112 390 86 363 q 176 435 138 418 q 265 451 215 451 q 293 442 282 451 q 304 418 304 433 q 290 389 304 399 q 261 379 276 379 q 204 368 228 379 q 165 339 181 357 q 143 298 150 321 q 136 251 136 275 q 143 203 136 226 q 163 160 150 179 q 194 131 175 142 q 238 119 213 119 q 303 140 264 119 q 378 198 342 161 q 440 285 414 235 q 467 396 467 336 q 457 456 467 431 q 433 501 447 482 q 403 531 419 519 q 376 551 388 543 q 367 558 371 554 q 358 564 363 561 q 350 571 353 568 l 350 588 q 367 617 350 604 q 415 646 385 631 q 457 678 421 649 q 506 733 493 708 q 519 779 519 758 q 510 809 519 799 q 486 819 501 819 q 457 808 471 819 q 430 779 443 797 q 406 740 417 761 q 389 700 396 719 z "},"4":{"ha":986,"x_min":65,"x_max":939,"o":"m 231 486 q 260 485 246 486 q 289 482 274 485 q 419 628 357 543 q 540 810 481 714 q 567 814 544 814 l 653 814 q 690 779 690 814 q 660 716 690 758 q 588 625 631 674 q 501 530 546 576 q 425 454 456 483 l 449 449 q 515 433 485 440 q 578 422 544 425 l 619 513 q 678 640 650 579 q 728 748 706 700 q 763 826 750 796 q 778 861 776 857 q 793 884 781 876 q 824 892 806 892 q 861 888 843 892 q 892 881 879 885 q 904 876 897 876 l 918 874 q 932 865 925 874 q 939 849 939 856 q 914 785 935 833 q 863 669 893 736 q 798 527 833 603 q 731 382 763 451 l 671 250 q 664 236 668 244 q 657 222 660 228 q 615 135 633 174 q 589 71 597 96 q 555 40 578 51 q 507 29 532 29 q 480 32 494 29 q 453 41 465 35 q 432 57 440 47 q 422 79 424 67 l 546 351 q 490 361 511 357 q 440 374 468 365 l 428 378 l 429 378 l 413 382 q 384 390 399 386 q 350 399 369 394 q 240 335 289 353 q 156 317 192 317 q 89 336 113 317 q 65 386 65 356 q 75 422 65 404 q 106 453 85 439 q 158 477 126 468 q 231 486 189 486 z "},"5":{"ha":788,"x_min":57,"x_max":731,"o":"m 667 899 q 672 900 669 901 q 690 904 681 904 q 717 894 703 904 q 731 867 731 883 q 719 840 731 849 q 671 807 700 821 q 608 783 642 793 q 540 769 575 774 q 474 764 506 764 q 430 765 449 764 q 393 769 411 765 q 374 734 382 751 q 354 699 365 717 q 337 665 346 682 q 319 632 328 649 l 332 632 q 432 628 379 632 q 528 606 485 625 q 601 545 572 588 q 631 426 631 503 q 601 290 631 360 q 523 163 572 221 q 410 69 474 106 q 275 33 346 33 q 176 49 217 33 q 108 92 135 65 q 69 153 82 118 q 57 225 57 188 q 72 302 57 263 q 112 374 86 342 q 173 428 138 407 q 251 450 208 450 q 276 441 264 450 q 289 417 289 432 q 279 390 289 400 q 254 378 269 379 q 209 355 231 371 q 171 318 188 339 q 144 274 154 297 q 133 226 133 250 q 163 146 133 171 q 224 121 192 121 q 272 131 246 121 q 324 156 299 140 q 371 190 349 171 q 408 229 393 210 q 435 271 421 247 q 462 319 450 294 q 481 370 474 344 q 489 419 489 396 q 469 490 489 463 q 421 531 450 517 q 357 551 392 546 q 292 556 322 556 q 256 555 272 556 q 224 553 239 554 l 225 553 q 203 551 215 551 q 183 550 190 550 q 143 563 151 550 l 139 596 l 285 879 q 307 888 294 888 q 322 883 317 888 q 333 876 328 879 l 331 876 q 334 876 333 876 q 336 875 335 875 q 377 850 347 864 q 468 836 407 836 q 506 838 479 836 q 562 845 532 839 q 621 864 592 851 q 667 899 650 876 z "},"6":{"ha":665,"x_min":49,"x_max":625,"o":"m 222 742 q 305 826 261 792 q 391 880 349 860 q 472 909 433 900 q 540 918 511 918 q 603 905 581 918 q 625 872 625 892 q 613 840 625 844 q 589 835 600 835 l 581 835 q 498 794 540 821 q 417 734 456 768 q 344 660 378 700 q 288 578 310 619 q 313 581 301 581 q 338 582 324 582 q 410 568 376 582 q 469 528 444 554 q 509 463 494 501 q 524 374 524 424 q 508 250 524 319 q 404 81 468 135 q 274 26 340 26 q 189 47 229 26 q 117 106 149 68 q 67 199 86 144 q 49 319 49 253 q 88 515 49 408 q 222 742 128 622 m 336 510 q 242 478 292 510 q 210 365 221 417 q 199 271 199 313 q 226 151 199 192 q 293 111 254 111 q 368 151 329 111 q 433 274 407 190 l 433 272 q 451 374 451 332 q 418 476 451 442 q 336 510 385 510 z "},"7":{"ha":717,"x_min":44,"x_max":688,"o":"m 82 443 q 54 454 64 443 q 44 481 44 465 q 54 508 44 497 q 82 519 64 519 l 263 519 q 358 678 311 608 q 449 804 406 749 l 415 810 q 409 810 413 810 q 403 811 406 810 q 399 812 400 811 q 396 813 399 813 q 350 817 372 815 q 308 818 328 818 q 221 800 258 818 q 169 724 183 782 q 156 709 164 717 q 136 701 147 701 q 109 713 119 701 q 99 743 99 724 q 129 818 110 789 q 174 864 149 847 q 231 887 200 881 q 296 893 261 893 q 351 890 321 893 q 408 885 381 888 q 411 884 410 885 q 415 883 413 883 l 425 883 q 474 878 449 881 q 518 875 499 875 q 576 881 549 875 q 624 903 604 888 l 622 903 q 650 911 631 911 q 675 900 663 911 q 688 872 688 889 q 686 856 688 863 q 678 843 685 850 q 544 701 615 781 q 408 519 474 621 l 506 519 q 531 508 521 519 q 540 481 540 497 q 531 454 540 465 q 506 443 521 443 l 360 443 q 321 363 340 408 q 283 269 301 318 q 251 168 265 219 q 229 69 236 117 q 214 49 225 54 q 190 43 203 43 q 165 53 174 43 q 151 80 156 64 q 145 113 146 96 q 144 144 144 131 q 169 293 144 215 q 225 443 193 371 l 82 443 z "},"8":{"ha":676,"x_min":72,"x_max":624,"o":"m 546 744 q 550 768 549 757 q 551 786 551 779 q 537 829 551 817 q 504 842 522 842 q 465 833 485 842 q 428 808 444 825 q 401 767 411 792 q 390 713 390 743 q 400 657 390 689 q 422 593 410 625 q 501 663 468 626 q 546 744 533 700 m 624 776 q 586 657 624 724 q 454 525 549 590 q 516 369 499 439 q 533 246 533 299 q 514 139 533 183 q 463 65 494 94 q 392 22 432 36 q 310 8 351 8 q 224 22 267 8 q 148 63 182 36 q 93 127 114 89 q 72 214 72 165 q 93 312 72 268 q 149 393 114 356 q 227 463 183 431 q 315 525 271 494 q 277 624 292 575 q 263 726 263 674 q 281 805 263 768 q 328 869 299 842 q 393 913 357 897 q 467 929 429 929 q 578 888 533 929 q 624 776 624 846 m 400 246 q 388 335 400 286 q 347 451 375 383 q 200 318 242 381 q 158 211 158 256 q 169 163 158 185 q 198 126 181 142 q 238 101 215 110 q 283 93 260 93 q 325 102 304 93 q 363 130 346 111 q 390 177 379 149 q 400 246 400 206 z "},"9":{"ha":681,"x_min":36,"x_max":610,"o":"m 81 108 l 86 108 q 174 142 132 118 q 253 201 217 167 q 322 278 290 235 q 376 367 353 321 q 350 363 363 364 q 324 363 338 363 q 251 376 285 363 q 192 416 217 390 q 153 480 167 442 q 139 568 139 518 q 165 715 139 650 q 233 824 192 779 q 322 892 274 868 q 413 915 369 915 q 488 899 451 915 q 551 852 524 883 q 594 774 578 821 q 610 665 610 728 q 594 535 610 606 q 550 395 579 465 q 479 260 521 325 q 384 144 438 194 q 267 64 331 94 q 131 33 203 33 q 103 34 119 33 q 72 38 88 35 q 47 50 57 42 q 36 74 36 58 q 45 99 36 89 q 78 110 54 110 l 81 108 m 325 439 q 373 444 353 439 q 413 463 393 449 q 443 563 429 510 q 457 661 457 615 q 430 779 457 739 q 376 819 403 819 q 320 794 349 819 q 269 730 292 769 q 232 643 246 690 q 218 553 218 596 q 242 473 218 507 q 325 439 267 439 z "},"\u0000":{"ha":0,"x_min":0,"x_max":0,"o":""},"\r":{"ha":435,"x_min":0,"x_max":0,"o":""}," ":{"ha":435,"x_min":0,"x_max":0,"o":""},"H":{"ha":1369,"x_min":-175,"x_max":1447,"o":"m 1383 603 q 1392 606 1386 606 q 1401 610 1396 608 q 1413 613 1406 613 q 1438 601 1428 613 q 1447 574 1447 590 q 1444 556 1447 564 q 1439 544 1440 547 q 1292 410 1376 481 q 1113 270 1207 340 q 920 136 1018 200 q 733 21 822 72 q 647 -26 697 0 q 543 -76 597 -53 q 435 -116 489 -100 q 336 -132 381 -132 q 247 -103 282 -132 q 211 -19 211 -75 q 224 51 211 10 q 256 137 236 92 q 302 230 276 182 q 353 322 328 278 l 363 339 q 426 462 399 406 q 453 550 453 518 q 433 568 453 568 q 385 558 413 568 q 328 535 357 549 q 274 506 300 521 q 233 481 249 490 q 119 402 163 438 q 49 340 75 367 l 33 331 l 36 331 q 8 303 24 318 q -24 276 -7 289 q -60 256 -42 264 q -99 247 -79 247 q -168 296 -137 247 l -168 294 q -174 310 -175 301 q -165 321 -172 318 q 183 856 18 642 q 490 1201 349 1071 q 744 1385 632 1331 q 935 1440 857 1440 q 1065 1393 1019 1440 q 1111 1271 1111 1346 q 1091 1169 1111 1224 q 1028 1060 1071 1115 q 918 954 985 1006 q 760 860 851 903 q 549 789 668 818 q 283 750 431 760 q 235 685 258 717 q 191 621 213 653 q 147 554 169 589 q 97 478 124 519 q 196 544 143 511 q 303 602 249 576 q 410 644 357 628 q 508 660 463 660 q 591 635 567 660 q 615 565 615 610 q 603 500 615 538 q 572 419 592 463 q 526 328 551 375 q 476 239 501 282 q 436 164 456 201 q 401 92 417 126 q 377 28 386 57 q 368 -22 368 -1 q 394 -46 368 -46 q 448 -35 414 -46 q 526 -7 482 -25 q 679 72 599 25 q 842 174 760 119 q 1003 287 924 228 q 1155 403 1083 346 q 1285 511 1226 460 q 1383 603 1343 563 m 954 1343 q 853 1317 913 1343 q 715 1230 793 1290 q 544 1072 638 1169 q 340 831 450 974 q 652 900 521 849 q 869 1015 783 951 q 994 1147 954 1079 q 1035 1267 1035 1214 q 1015 1322 1035 1301 q 954 1343 994 1343 z "},"I":{"ha":694,"x_min":-206,"x_max":774,"o":"m -28 110 q 74 138 13 110 q 207 209 136 165 q 353 308 278 253 q 496 417 428 363 q 619 519 564 471 q 704 597 674 567 q 706 603 704 601 q 735 611 714 611 q 763 601 751 611 q 774 574 774 590 q 730 530 774 571 q 616 428 686 489 q 457 298 546 368 q 277 169 368 228 q 101 70 186 110 q -46 31 17 31 q -121 42 -90 31 q -170 72 -151 53 q -197 116 -189 90 q -206 169 -206 142 q -178 290 -206 224 q -110 425 -150 357 q -22 558 -69 493 q 63 674 25 624 q 72 683 69 681 q 75 688 74 685 l 83 701 q 110 713 88 707 q 163 718 133 718 q 213 710 192 718 q 233 678 233 701 q 225 654 233 667 l 72 439 q 19 358 44 399 q -26 279 -7 317 q -56 208 -44 242 q -67 150 -67 175 q -28 110 -67 110 m 233 921 q 272 912 256 921 q 301 890 289 903 q 318 863 313 878 q 324 835 324 847 q 297 769 324 796 q 232 742 271 742 q 203 749 218 742 q 175 768 188 756 q 154 797 163 781 q 146 832 146 813 q 170 894 146 867 q 233 921 194 921 z "},"J":{"ha":692,"x_min":-1346,"x_max":769,"o":"m 210 674 q 102 442 157 553 q -11 226 47 332 q 187 290 89 254 q 376 369 285 325 q 549 470 467 414 q 700 597 631 526 q 701 603 700 601 q 731 611 710 611 q 758 601 747 611 q 769 574 769 590 q 765 557 769 565 q 760 547 761 549 l 760 549 q 585 403 681 467 q 383 290 489 340 q 163 203 276 240 q -68 135 49 165 q -345 -236 -204 -82 q -618 -488 -486 -390 q -867 -631 -750 -586 q -1074 -676 -985 -676 q -1187 -660 -1137 -676 q -1273 -615 -1237 -644 q -1327 -546 -1308 -586 q -1346 -458 -1346 -506 q -1322 -350 -1346 -407 q -1244 -235 -1297 -293 q -1107 -121 -1190 -176 q -906 -17 -1024 -65 q -666 63 -800 28 q -389 132 -532 97 l -285 156 q -250 161 -267 158 q -214 169 -233 164 q -83 412 -151 276 q 51 703 -15 547 q 76 722 58 715 q 114 728 94 728 q 147 724 131 728 q 178 713 164 719 q 201 696 192 706 q 210 674 210 686 m -1107 -587 q -942 -553 -1036 -587 q -740 -439 -849 -518 q -513 -233 -632 -360 q -272 81 -394 -106 l -368 58 q -495 28 -428 44 q -631 -8 -562 11 q -762 -46 -699 -26 q -876 -85 -825 -65 q -1050 -178 -975 -129 q -1175 -276 -1125 -228 q -1251 -372 -1225 -325 q -1276 -456 -1276 -418 q -1231 -551 -1276 -514 q -1107 -587 -1186 -587 m 183 944 q 221 935 204 944 q 249 914 238 926 q 267 887 261 901 q 272 860 272 872 q 246 793 272 821 q 183 765 219 765 q 151 772 167 765 q 124 792 136 779 q 103 821 111 804 q 96 857 96 838 q 119 917 96 890 q 183 944 143 944 z "},"K":{"ha":1169,"x_min":-162,"x_max":1244,"o":"m 421 115 q 569 152 485 115 q 753 253 654 189 q 960 407 851 318 q 1181 601 1068 496 q 1206 610 1188 610 q 1244 571 1244 610 q 1232 543 1244 556 q 1020 356 1131 449 q 799 191 910 264 q 579 72 688 118 q 374 26 471 26 q 170 100 263 26 q 21 343 78 174 q -9 297 7 319 q -39 272 -25 275 q -63 267 -51 269 q -90 264 -75 264 q -134 274 -114 264 q -162 313 -154 285 q -162 324 -162 315 q -161 335 -162 332 l -161 333 q 192 871 26 656 q 499 1215 358 1086 q 753 1399 639 1344 q 950 1453 867 1453 q 1086 1403 1039 1453 q 1133 1278 1133 1354 q 1086 1121 1133 1206 q 937 960 1039 1036 q 676 830 835 885 q 292 763 517 775 q 261 722 275 740 q 235 684 247 703 q 208 645 222 665 q 178 600 194 625 l 176 597 q 317 632 243 621 q 463 643 392 643 q 503 642 481 643 q 547 638 526 642 q 581 626 567 635 q 594 603 594 618 q 550 564 594 564 q 507 568 528 567 q 464 569 486 569 q 290 551 381 569 q 133 497 200 532 q 174 344 150 414 q 231 223 197 274 q 312 144 265 172 q 421 115 358 115 m 983 1365 q 876 1338 939 1365 q 733 1249 813 1311 q 556 1087 653 1188 q 347 839 458 986 q 670 908 535 856 q 894 1026 806 960 q 1024 1162 982 1092 q 1065 1286 1065 1232 q 1044 1343 1065 1321 q 983 1365 1024 1365 z "},"L":{"ha":990,"x_min":-186,"x_max":1140,"o":"m 411 157 q 578 258 494 203 q 738 370 661 313 q 882 486 815 428 q 997 596 949 544 q 999 601 997 600 q 1028 610 1007 610 q 1053 599 1040 610 q 1067 571 1067 588 q 1063 555 1067 563 q 1057 546 1058 547 l 1057 547 q 947 447 1018 507 q 783 318 875 386 q 588 181 692 250 q 379 58 483 113 q 178 -31 275 4 q 4 -65 81 -65 q -137 -19 -87 -65 q -186 113 -186 26 q -152 283 -186 186 q -60 488 -118 381 q 78 710 -1 596 q 247 931 157 824 q 432 1133 336 1038 q 621 1299 528 1228 q 799 1411 714 1369 q 954 1453 885 1453 q 1091 1403 1042 1453 q 1140 1276 1140 1354 q 1119 1174 1140 1228 q 1055 1065 1099 1119 q 943 960 1011 1011 q 781 868 875 910 q 567 799 688 826 q 297 763 447 771 q 179 591 239 683 q 71 408 119 499 q -8 235 22 317 q -39 97 -39 154 q -19 39 -39 61 q 42 17 0 17 q 186 50 96 17 q 411 157 276 83 m 771 1268 q 549 1076 653 1186 q 353 840 444 965 q 670 905 538 856 q 888 1017 803 954 q 1014 1146 974 1079 q 1054 1265 1054 1213 q 1033 1325 1054 1301 q 968 1349 1011 1349 q 771 1268 894 1349 z "},"M":{"ha":1806,"x_min":-276,"x_max":1883,"o":"m 1878 554 l 1879 560 q 1878 558 1879 558 q 1878 556 1878 557 l 1878 554 m 1817 603 q 1846 611 1825 611 q 1873 601 1863 611 q 1883 574 1883 590 q 1878 554 1883 560 l 1872 544 q 1738 420 1810 483 q 1590 296 1665 357 q 1436 181 1514 235 q 1284 88 1358 128 q 1142 24 1210 47 q 1018 0 1074 0 q 917 29 958 0 q 875 128 875 58 q 894 229 875 175 q 936 339 914 283 l 936 338 l 940 351 l 949 367 l 947 367 q 988 467 971 419 q 1006 543 1006 515 q 990 571 1006 571 q 922 547 963 571 q 835 484 881 522 q 743 401 789 446 q 663 314 697 356 l 649 297 l 629 269 l 613 249 q 567 196 589 221 q 525 151 544 171 q 490 119 506 131 q 465 107 475 107 q 443 135 443 107 q 466 206 443 149 q 542 357 489 263 q 578 436 560 394 q 610 519 596 478 q 632 600 624 561 q 640 671 640 639 q 630 722 640 707 q 600 738 619 738 q 544 722 576 738 q 479 686 513 707 q 415 642 446 665 q 364 603 385 619 l 353 594 l 354 594 l 340 583 q 199 452 271 524 q 65 310 128 381 q -48 178 1 240 q -124 74 -97 115 l -124 75 q -146 56 -129 63 q -185 50 -162 50 q -215 53 -200 50 q -244 63 -231 57 q -266 78 -257 69 q -276 100 -275 88 l 131 825 q 153 826 132 826 l 239 826 q 267 817 260 826 q 274 792 274 807 q 266 761 274 776 q 254 739 258 746 l 254 740 l 249 732 l 119 506 q 110 488 113 493 q 105 479 107 483 q 99 470 103 475 q 90 453 96 465 q 222 580 150 514 q 370 701 294 646 q 520 791 446 756 q 660 826 594 826 q 728 813 701 826 q 772 780 756 800 q 794 735 788 760 q 800 685 800 710 q 795 631 800 658 q 786 585 790 603 q 778 551 783 569 q 767 529 774 532 l 767 528 q 831 578 797 554 q 899 620 864 601 q 969 650 933 639 q 1039 661 1004 661 q 1134 628 1099 661 q 1169 535 1169 596 q 1146 413 1169 479 q 1094 288 1122 347 q 1063 217 1078 251 q 1042 161 1049 182 q 1037 139 1038 150 q 1036 121 1036 128 q 1071 82 1036 82 q 1113 88 1090 82 q 1157 103 1135 94 q 1199 124 1179 113 q 1233 143 1219 135 q 1498 314 1351 201 q 1817 603 1644 426 z "},"N":{"ha":1307,"x_min":-286,"x_max":1386,"o":"m 585 86 q 701 122 628 86 q 871 226 775 158 q 1082 388 967 293 q 1322 603 1197 483 l 1321 603 q 1332 609 1326 608 q 1347 610 1338 610 q 1386 574 1386 610 q 1383 556 1386 563 q 1376 546 1379 549 q 1278 460 1339 513 q 1144 347 1218 407 q 988 224 1069 286 q 825 113 906 163 q 670 33 744 64 q 538 1 596 1 q 443 37 483 1 q 403 143 403 72 q 431 265 403 199 q 492 399 458 332 l 511 438 q 515 447 513 439 q 521 461 517 454 l 519 461 q 571 622 571 574 q 532 661 571 661 q 464 645 503 661 q 383 604 425 629 q 300 550 340 579 q 229 494 260 521 q 124 395 175 447 q 28 292 72 343 q -51 192 -15 240 q -110 104 -86 144 q -199 46 -149 46 q -239 55 -218 46 q -278 85 -260 64 l -278 83 q -278 107 -286 92 l 115 804 q 144 822 124 818 q 188 826 165 826 q 234 826 218 826 q 257 822 250 825 q 265 810 264 818 q 265 790 265 803 q 257 761 265 778 q 242 731 249 744 l 240 729 l 213 678 l 213 679 l 165 594 q 151 567 157 578 q 140 546 146 557 q 125 520 133 535 q 103 479 117 506 q 368 682 243 614 q 582 750 493 750 q 684 715 647 750 q 721 613 721 681 q 706 519 721 572 q 656 404 690 467 q 622 340 640 376 q 588 264 604 303 q 560 189 571 225 q 549 126 549 153 q 557 97 549 108 q 585 86 565 86 z "},"O":{"ha":983,"x_min":-131,"x_max":1067,"o":"m 288 593 q 307 581 299 592 q 315 554 315 569 q 307 532 315 540 q 286 521 299 524 q 222 488 257 510 q 160 440 186 465 q 241 384 196 404 q 342 354 286 364 q 413 508 390 440 q 436 629 436 576 q 422 701 436 671 q 386 750 408 731 q 335 778 364 769 q 276 788 307 788 q 204 776 240 788 q 140 742 168 764 q 95 689 113 721 q 78 618 78 657 q 80 583 78 599 q 93 544 82 567 q 169 583 131 572 q 253 594 208 594 q 269 594 260 594 q 288 593 279 594 m 60 69 q 117 94 85 69 q 183 152 150 118 q 246 224 217 186 q 294 288 275 261 q 196 326 244 301 q 110 385 147 350 q 79 334 96 364 q 48 271 63 304 q 24 203 33 238 q 14 140 14 169 q 25 92 14 114 q 60 69 36 69 m 422 347 q 546 361 481 347 q 684 406 611 375 q 837 485 757 436 q 1003 603 917 533 l 1001 603 q 1013 609 1007 608 q 1029 610 1019 610 q 1054 599 1042 610 q 1067 572 1067 589 q 1053 543 1067 554 q 880 428 967 478 q 712 343 793 378 q 557 290 631 308 q 424 272 483 272 l 408 272 q 392 272 399 272 q 376 274 385 272 q 305 179 344 229 q 219 85 265 129 q 120 13 172 42 q 11 -15 68 -15 q -93 31 -56 -15 q -131 156 -131 78 q -119 240 -131 194 q -85 330 -107 285 q -34 418 -64 375 q 32 496 -4 461 q 7 563 14 529 q 0 624 0 597 q 25 724 0 679 q 90 800 50 769 q 181 847 131 831 q 282 864 232 864 q 368 850 326 864 q 442 808 410 836 q 493 738 474 781 q 513 635 513 694 q 492 507 513 579 q 419 347 471 435 l 422 347 z "},"P":{"ha":1189,"x_min":-785,"x_max":1265,"o":"m 579 481 q 563 385 579 436 q 504 275 546 333 q 669 294 585 279 q 840 344 753 308 q 1018 440 928 379 q 1201 600 1108 501 q 1229 613 1211 613 q 1255 601 1244 613 q 1265 572 1265 590 q 1257 547 1265 556 l 1257 549 q 1042 368 1149 436 q 833 264 935 300 q 633 215 731 228 q 446 201 536 203 q 213 30 324 83 q 24 -24 103 -24 q -92 8 -50 -24 q -133 83 -133 39 q -110 143 -133 113 q -36 201 -87 174 q 97 247 15 228 q 293 271 178 267 q 370 385 340 322 q 400 496 400 447 q 382 543 400 524 q 325 563 364 563 q 272 555 306 563 q 203 536 238 547 q 139 513 168 525 q 101 492 110 500 l 101 493 q 71 450 96 488 q 7 353 46 413 q -82 218 -32 294 q -187 58 -132 142 q -299 -114 -242 -26 q -408 -283 -356 -201 q -506 -434 -460 -364 q -583 -554 -551 -504 l -632 -631 q -661 -646 -639 -639 q -704 -653 -683 -653 q -760 -642 -736 -653 q -785 -599 -785 -631 q -717 -493 -764 -567 q -607 -322 -671 -419 q -468 -108 -543 -224 q -316 125 -393 8 q -165 351 -239 242 q -32 546 -92 460 q 69 688 28 632 q 122 750 110 743 q 146 754 135 753 q 165 756 157 756 q 244 719 213 756 q 239 688 249 708 l 229 674 q 219 661 225 667 q 210 649 214 656 q 197 633 203 640 q 182 613 190 625 q 292 642 247 636 q 382 649 338 649 q 530 603 481 649 q 579 481 579 557 m -12 81 q 79 105 24 81 q 210 192 135 129 q 94 173 142 185 q 17 147 47 161 q -26 117 -12 132 q -40 92 -40 103 q -12 81 -40 81 z "},"Q":{"ha":990,"x_min":-222,"x_max":1061,"o":"m 201 311 q 203 313 201 313 l 201 311 m 82 263 q 140 278 107 263 q 201 311 174 293 l 201 313 l 224 326 q 276 389 249 357 q 328 451 303 421 l 343 471 q 357 490 350 481 q 372 510 364 500 l 390 529 q 365 610 386 575 q 313 646 344 646 q 255 628 286 646 q 193 585 224 610 q 138 533 163 560 q 99 489 113 506 q 79 455 90 475 q 59 412 68 435 q 44 366 50 389 q 38 324 38 343 q 48 281 38 300 q 82 263 58 263 m 1003 603 q 1015 609 1010 608 q 1025 610 1019 610 q 1051 597 1042 610 q 1061 572 1061 585 q 1060 559 1061 565 q 1053 546 1058 553 l 1017 515 q 848 376 936 447 q 666 247 760 306 q 474 151 572 189 q 274 114 375 114 q 253 115 260 114 q 249 116 250 115 q 246 117 249 117 q 242 113 244 114 q 239 108 240 111 q 238 106 239 107 q 238 104 238 106 q 236 101 236 103 l 221 79 q 249 -59 240 7 q 257 -187 257 -125 q 224 -420 257 -318 q 139 -592 190 -522 q 28 -698 88 -661 q -83 -735 -32 -735 q -183 -691 -143 -735 q -222 -556 -222 -647 q -205 -428 -222 -501 q -147 -263 -187 -356 q -41 -58 -107 -171 q 124 190 25 56 q 82 181 100 183 q 44 178 64 178 q -71 225 -31 178 q -111 344 -111 272 q -81 469 -111 401 q 2 594 -50 536 q 125 690 54 651 q 275 729 196 729 q 383 701 338 729 q 453 603 429 672 q 483 638 465 619 q 517 673 500 657 q 547 700 533 689 q 565 711 560 711 l 653 711 q 680 698 669 711 q 690 672 690 685 q 682 647 690 656 l 682 649 q 473 408 574 526 q 297 189 372 290 q 470 231 382 193 q 644 324 558 268 q 813 445 731 379 q 967 572 894 511 q 985 588 975 579 q 1003 603 996 596 m 179 -187 q 175 -100 179 -147 q 164 -4 171 -53 q 73 -148 117 -72 q -4 -299 29 -224 q -58 -444 -37 -374 q -78 -575 -78 -515 q -69 -633 -78 -615 q -46 -651 -61 -651 q 22 -618 -17 -651 q 96 -524 61 -585 q 155 -378 131 -464 q 179 -187 179 -292 z "},"R":{"ha":964,"x_min":-1,"x_max":1042,"o":"m 60 546 l 61 546 q 33 538 53 538 q 9 549 19 538 q -1 575 -1 560 q 0 594 -1 593 l 168 738 q 167 758 167 749 q 167 779 167 768 q 181 869 167 831 q 219 932 196 907 q 267 969 242 957 q 317 981 293 981 q 370 963 349 981 q 392 913 392 944 q 372 849 392 888 q 307 767 351 811 q 333 701 317 731 q 365 649 349 671 q 397 606 385 626 q 408 561 408 586 q 383 499 408 533 q 319 397 351 451 q 260 292 286 343 q 217 195 233 240 q 201 122 201 150 q 210 92 201 101 q 233 82 219 82 q 346 113 279 82 q 486 194 413 144 q 636 303 560 243 q 779 420 713 363 q 897 526 846 478 q 974 600 949 575 q 981 603 976 603 q 990 609 985 606 q 1003 613 996 613 q 1031 599 1019 613 q 1042 574 1042 586 q 1038 558 1042 565 q 1032 549 1033 550 l 1032 550 q 974 494 1021 539 q 856 388 926 449 q 699 258 786 326 q 524 133 613 190 q 351 38 435 75 q 203 0 268 0 q 136 12 164 0 q 90 44 108 24 q 64 92 72 65 q 56 149 56 119 q 76 258 56 200 q 128 372 97 315 q 191 476 158 428 q 247 558 224 525 q 186 657 206 610 l 60 546 m 317 911 q 314 910 315 911 l 314 911 l 313 913 l 317 911 z "},"S":{"ha":763,"x_min":-244,"x_max":843,"o":"m 282 482 q 249 465 268 465 q 222 478 232 465 q 211 504 211 492 q 213 516 211 508 q 219 528 215 524 l 219 526 q 277 632 258 585 q 296 714 296 679 q 268 783 296 761 q 207 804 240 804 q 161 790 179 804 q 133 751 143 775 q 118 697 122 728 q 114 631 114 665 q 123 497 114 568 q 143 374 132 426 l 153 328 l 179 333 q 200 338 190 336 q 221 342 210 339 q 359 373 289 356 q 499 418 429 390 q 638 490 568 446 q 778 603 708 535 q 788 609 781 606 q 804 613 794 613 q 832 599 821 613 q 843 574 843 586 q 839 558 843 567 q 829 544 835 550 q 684 430 758 475 q 535 354 610 385 q 385 304 460 324 q 240 269 311 285 q 226 266 233 267 q 211 264 218 265 l 174 254 q 170 254 175 254 q 163 253 165 254 q 165 217 165 236 q 165 182 165 197 q 142 22 165 89 q 84 -87 119 -44 q 6 -149 49 -129 q -79 -169 -37 -169 q -145 -156 -115 -169 q -197 -120 -175 -143 q -232 -67 -219 -97 q -244 -3 -244 -37 q -219 90 -244 44 q -157 173 -194 135 q -74 242 -119 211 q 13 289 -29 272 l 8 328 q 8 341 8 335 q 6 356 7 347 q 0 442 3 396 q -3 535 -3 489 q 6 657 -3 596 q 40 767 15 718 q 107 845 64 815 q 219 875 150 875 q 325 833 283 875 q 367 714 367 792 q 347 607 367 665 q 282 482 328 549 m 15 208 q -72 157 -37 183 q -126 104 -106 131 q -154 53 -146 78 q -162 7 -162 29 q -142 -56 -162 -31 q -93 -82 -121 -82 q -54 -68 -74 -82 q -19 -22 -35 -54 q 6 61 -4 10 q 15 186 15 113 l 15 208 z "},"T":{"ha":704,"x_min":-193,"x_max":1414,"o":"m 960 1274 q 1096 1269 1031 1274 q 1218 1254 1161 1265 q 1322 1225 1275 1243 q 1401 1178 1368 1207 q 1414 1147 1414 1165 q 1401 1121 1414 1131 q 1374 1111 1388 1111 q 1350 1118 1363 1111 q 1286 1158 1325 1142 q 1197 1183 1247 1174 q 1088 1196 1147 1192 q 963 1200 1028 1200 q 793 1196 876 1200 q 618 1185 710 1192 q 568 1122 604 1168 q 481 1008 532 1075 q 370 860 431 942 q 249 690 310 778 q 131 515 188 603 q 29 350 74 428 q -42 209 -15 272 q -68 107 -68 146 q -35 74 -68 74 q 72 105 7 74 q 211 186 136 136 q 365 297 286 236 q 513 416 443 357 q 639 525 583 475 q 722 603 694 575 q 733 609 725 606 q 747 613 740 613 q 775 601 764 613 q 786 574 786 590 q 783 556 786 564 q 776 546 779 549 q 722 494 768 538 q 606 390 676 451 q 448 261 535 329 q 272 135 361 193 q 97 38 182 76 q -54 0 11 0 q -154 35 -115 0 q -193 140 -193 71 q -158 290 -193 203 q -69 476 -124 378 q 55 676 -14 574 q 192 873 124 779 q 322 1045 260 967 q 424 1174 383 1124 q 326 1169 372 1171 q 236 1168 279 1168 q 103 1174 164 1168 q -3 1196 42 1181 q -73 1238 -47 1211 q -100 1306 -99 1265 q -90 1331 -100 1321 q -65 1343 -81 1342 q -37 1333 -49 1343 q -25 1307 -25 1322 q -5 1274 -24 1288 q 47 1253 14 1261 q 124 1242 79 1246 q 224 1239 169 1239 q 349 1242 286 1239 q 488 1251 413 1246 q 543 1320 513 1283 q 602 1388 574 1357 q 654 1440 631 1419 q 689 1461 678 1461 l 776 1461 q 803 1449 793 1461 q 814 1424 814 1436 q 804 1402 814 1413 q 779 1374 794 1392 l 769 1363 l 769 1364 l 739 1325 l 683 1265 q 824 1272 754 1269 q 960 1274 894 1274 z "},"U":{"ha":1229,"x_min":-96,"x_max":1310,"o":"m 421 74 q 522 99 463 74 q 652 165 582 124 q 798 258 722 206 q 947 364 874 310 q 1085 470 1019 418 q 1201 563 1150 522 q 1224 583 1213 572 q 1246 603 1235 593 l 1244 603 q 1271 611 1253 611 q 1299 598 1288 611 q 1310 572 1310 585 q 1294 543 1310 556 l 1260 518 q 1139 420 1208 475 q 991 308 1069 365 q 830 194 913 250 q 669 95 747 139 q 520 25 590 51 q 397 -1 450 -1 q 286 42 319 -1 q 253 146 253 86 q 262 210 253 175 q 285 284 271 246 q 320 361 300 322 q 363 438 340 400 q 278 373 324 406 q 186 313 232 340 q 96 269 140 286 q 15 251 51 251 q -67 287 -39 251 q -96 365 -96 322 q -74 459 -96 407 q -19 565 -51 511 q 51 668 14 618 q 117 756 88 718 l 161 814 q 183 818 163 817 q 233 819 204 819 q 283 812 261 819 q 306 781 306 804 q 297 757 306 769 q 99 473 167 583 q 32 335 32 363 q 35 332 32 332 q 85 349 53 332 q 158 392 117 365 q 245 455 199 419 q 338 526 292 490 q 571 722 444 613 l 668 722 q 698 713 690 722 q 706 689 706 704 q 681 624 706 663 q 624 544 656 585 q 559 466 592 503 q 513 407 526 429 q 469 341 493 379 q 426 263 446 303 q 392 183 406 222 q 379 117 379 144 q 421 74 379 74 z "},"V":{"ha":1053,"x_min":-214,"x_max":1128,"o":"m 751 357 q 904 458 824 396 q 1060 597 985 519 q 1061 603 1060 601 q 1071 609 1063 606 q 1089 613 1079 613 q 1117 599 1106 613 q 1128 574 1128 586 q 1124 558 1128 565 q 1118 549 1119 550 l 1118 550 q 981 426 1058 488 q 819 316 904 365 q 647 237 733 267 q 482 207 560 207 q 416 215 451 207 q 357 242 381 222 q 275 176 328 217 q 160 98 222 136 q 33 32 99 60 q -86 4 -32 4 q -144 17 -119 4 q -183 50 -168 29 q -206 97 -199 71 q -214 147 -214 122 q -194 252 -214 194 q -142 370 -174 310 q -72 490 -110 431 q 1 599 -35 549 l 11 613 l 11 611 l 21 624 q 74 692 49 661 q 113 724 99 724 l 153 724 q 215 719 193 724 q 238 689 238 715 q 224 653 238 674 q 185 600 211 633 q 133 533 163 572 q 69 439 104 494 q -45 246 -10 321 q -81 133 -81 171 q -47 97 -81 97 q 103 151 7 97 q 313 304 200 206 q 306 331 308 317 q 303 358 303 346 q 326 447 303 404 q 383 524 350 490 q 454 577 417 557 q 521 597 492 597 q 582 531 582 597 q 566 469 582 501 q 525 407 550 438 q 469 347 500 376 q 410 293 439 318 q 441 281 424 283 q 478 279 458 279 q 551 288 513 279 q 627 308 590 296 q 697 335 664 321 q 751 358 729 349 l 751 357 z "},"W":{"ha":1585,"x_min":-172,"x_max":1658,"o":"m 1281 357 q 1434 459 1351 397 q 1590 597 1517 521 q 1592 603 1590 601 q 1601 609 1593 606 q 1619 613 1610 613 q 1647 599 1636 613 q 1658 572 1658 586 q 1655 557 1658 563 q 1647 547 1651 551 q 1507 427 1586 488 q 1342 317 1428 367 q 1172 238 1257 268 q 1014 207 1086 207 q 888 242 931 207 q 799 172 853 213 q 683 94 744 131 q 560 31 622 57 q 446 4 497 4 q 385 17 410 4 q 344 51 360 31 q 322 98 329 72 q 315 149 315 124 q 333 249 315 194 q 378 353 351 303 q 276 268 332 313 q 163 186 221 224 q 50 124 106 149 q -51 100 -6 100 q -106 111 -83 100 q -143 141 -128 122 q -165 183 -158 160 q -172 231 -172 207 q -152 326 -172 274 q -101 433 -132 379 q -35 539 -71 488 q 33 633 1 590 l 46 653 l 46 651 l 54 664 q 65 678 58 668 q 78 699 71 689 l 78 697 l 86 710 q 112 722 93 718 q 150 725 131 725 q 201 722 183 725 q 228 715 219 719 q 237 703 236 710 q 238 688 238 696 q 217 642 238 671 q 168 576 197 613 l 144 543 q 97 479 119 514 q 5 320 39 390 q -29 214 -29 250 q -10 189 -29 189 q 74 222 18 189 q 204 307 131 254 l 553 624 l 551 624 q 563 630 554 626 q 579 633 571 633 l 665 633 q 703 601 703 633 q 685 558 703 586 q 639 494 668 531 l 625 475 q 561 381 596 435 q 507 279 526 328 q 460 131 460 185 q 492 92 460 92 q 558 112 517 92 q 649 163 600 132 q 747 231 697 193 q 842 304 797 268 q 836 331 839 317 q 833 357 833 346 q 857 447 833 404 q 914 524 881 490 q 985 577 947 557 q 1051 597 1022 597 q 1097 581 1081 597 q 1114 532 1114 564 q 1097 471 1114 503 q 1055 408 1081 439 q 999 347 1029 376 q 939 292 968 317 q 972 283 951 285 q 1008 281 992 281 q 1074 288 1039 281 q 1144 306 1108 294 q 1215 331 1181 317 q 1281 358 1250 344 l 1281 357 z "},"X":{"ha":942,"x_min":-272,"x_max":839,"o":"m 775 738 l 774 738 q 801 746 782 746 q 826 737 813 746 q 839 713 839 728 q 838 706 839 710 q 838 700 838 703 l 838 693 l 339 293 q 385 158 357 207 q 443 85 413 110 q 503 52 474 60 q 556 43 532 44 q 596 33 579 40 q 613 1 613 25 q 597 -32 613 -26 q 571 -37 582 -37 q 444 -22 500 -37 q 347 24 389 -6 q 273 99 304 54 q 218 201 242 143 q 178 167 197 183 q 136 136 158 151 l 65 79 l -101 -53 q -160 -100 -131 -76 q -219 -144 -190 -124 l -222 -144 q -235 -147 -228 -147 q -261 -138 -250 -147 q -272 -112 -272 -129 q -272 -101 -272 -107 q -271 -93 -272 -94 l 192 278 q 156 465 165 369 q 140 638 146 561 l 140 649 q 177 669 157 660 q 221 679 197 679 q 276 658 253 679 q 303 586 300 636 q 308 487 306 536 q 321 376 311 438 l 775 738 z "},"Y":{"ha":1288,"x_min":-762,"x_max":1360,"o":"m 800 674 q 696 444 751 556 q 579 226 640 333 q 778 290 679 254 q 968 372 876 326 q 1142 474 1060 418 q 1292 597 1225 529 q 1293 603 1292 601 q 1304 609 1296 606 q 1324 613 1313 613 q 1350 601 1340 613 q 1360 574 1360 590 q 1349 547 1360 556 q 1172 405 1269 468 q 968 292 1075 342 q 747 203 861 242 q 521 136 633 165 l 514 121 l 506 107 q 427 -12 478 63 q 306 -174 376 -87 q 149 -350 236 -261 q -40 -511 61 -439 q -256 -628 -142 -583 q -490 -674 -369 -674 q -598 -658 -549 -674 q -684 -615 -647 -643 q -742 -544 -721 -586 q -762 -450 -762 -503 q -736 -348 -762 -403 q -655 -235 -710 -293 q -515 -122 -600 -178 q -314 -15 -431 -65 q -74 64 -210 28 q 203 133 63 100 q 290 152 246 143 q 379 172 335 161 q 463 322 417 238 q 550 493 508 407 q 433 381 499 440 q 295 273 367 322 q 151 191 224 224 q 17 158 79 158 q -81 194 -46 158 q -117 289 -117 229 q -101 378 -117 328 q -59 483 -85 429 q -1 591 -33 536 q 62 694 31 646 q 120 781 93 742 q 164 842 147 819 q 188 846 167 844 q 235 847 208 847 q 288 840 267 847 q 308 813 308 832 q 295 781 308 806 q 257 724 282 757 q 217 669 239 699 q 174 609 196 640 q 134 546 153 578 q 101 486 115 514 q 47 370 67 422 q 28 278 28 318 q 58 240 28 240 q 129 263 85 240 q 226 322 174 285 q 338 407 279 358 q 452 508 396 456 q 559 615 508 561 q 647 718 610 669 q 678 721 650 721 q 709 717 685 721 q 786 701 733 713 q 798 690 793 697 q 800 674 803 682 m 239 63 q 103 31 172 47 q -33 -3 35 15 q -164 -42 -100 -22 q -283 -85 -228 -62 q -463 -178 -387 -129 q -587 -276 -539 -226 q -660 -371 -636 -325 q -683 -456 -683 -417 q -639 -550 -683 -514 q -514 -586 -594 -586 q -349 -551 -443 -586 q -148 -438 -256 -517 q 78 -232 -40 -360 q 319 83 197 -104 l 239 63 z "},"Z":{"ha":1353,"x_min":-672,"x_max":1426,"o":"m 288 386 q 360 290 332 347 q 399 175 389 233 q 670 244 535 208 q 931 330 806 281 q 1167 444 1057 379 q 1363 600 1276 510 q 1389 613 1372 613 q 1415 599 1404 613 q 1426 574 1426 586 q 1422 558 1426 565 q 1417 549 1418 550 l 1417 550 q 1207 381 1325 451 q 956 260 1089 311 q 681 172 824 208 q 397 101 539 135 q 365 -33 390 36 q 300 -169 339 -101 q 213 -301 261 -237 q 112 -421 164 -365 q 6 -521 60 -476 q -96 -594 -47 -565 q -264 -667 -182 -642 q -408 -692 -346 -692 q -490 -681 -444 -692 q -576 -645 -536 -671 q -644 -575 -617 -619 q -672 -464 -672 -531 q -669 -416 -672 -440 q -656 -368 -665 -392 q -517 -182 -612 -262 q -299 -40 -422 -101 q -36 65 -176 21 q 238 142 104 108 l 238 147 q 226 223 238 190 q 197 280 214 256 q 162 320 181 304 q 129 346 143 336 q 122 350 126 349 q 115 354 118 351 q 97 370 104 363 q 90 392 90 378 q 115 421 90 407 q 197 478 161 446 q 259 544 233 510 q 299 613 285 579 q 313 671 313 646 q 305 701 313 690 q 279 713 297 713 q 242 701 265 713 q 189 669 218 690 q 125 619 160 649 q 54 554 90 590 q 24 542 42 542 q -5 551 7 542 q -17 576 -17 561 q -14 589 -17 581 q -8 601 -11 597 q 184 753 96 701 q 335 806 272 806 q 431 765 399 806 q 464 664 464 725 q 422 523 464 600 q 288 386 379 446 m 267 92 q 270 76 274 85 q 256 67 267 67 l 244 64 q 232 78 232 64 l 235 89 q 243 103 235 100 q 258 100 251 107 l 267 92 m -449 -586 q -328 -567 -394 -586 q -194 -510 -262 -547 q -58 -417 -125 -472 q 66 -290 8 -361 q 167 -131 124 -218 q 229 58 210 -43 q 43 12 139 38 q -144 -47 -53 -14 q -318 -122 -236 -81 q -462 -213 -400 -162 q -561 -326 -525 -264 q -597 -464 -597 -389 q -556 -556 -597 -526 q -449 -586 -515 -586 z "},"b":{"ha":749,"x_min":-146,"x_max":1063,"o":"m 379 468 q 378 452 379 460 q 376 438 378 444 q 469 451 422 443 q 563 476 515 460 q 656 519 610 492 q 749 590 703 546 q 774 599 757 599 q 803 590 792 599 q 814 564 814 581 q 810 549 814 557 q 800 535 806 540 q 693 460 751 490 q 573 409 635 429 q 452 377 511 389 q 343 358 393 365 q 268 253 307 296 q 191 183 229 210 q 117 144 153 156 q 53 132 82 132 q -33 158 0 132 q -67 225 -67 185 q -51 274 -67 249 q -4 325 -36 300 q 79 372 28 350 q 204 408 131 393 q 222 452 217 436 q 228 481 228 468 q 210 500 228 500 q 178 492 197 500 q 137 474 158 485 q 94 448 115 463 q 54 421 72 433 q 40 400 47 413 q 29 381 33 388 l 21 368 l 19 365 l 19 367 q -1 339 8 351 q -24 326 -10 326 l -110 326 q -137 335 -128 326 q -146 360 -146 344 q -140 382 -146 368 q -124 410 -133 396 q -105 439 -115 425 q -86 464 -94 453 q -45 525 -67 493 q 0 590 -24 557 q 117 747 49 658 q 267 928 186 836 q 435 1110 347 1021 q 609 1267 522 1199 q 776 1378 696 1336 q 925 1418 857 1419 q 1011 1400 981 1417 q 1052 1355 1042 1383 q 1053 1290 1063 1326 q 1021 1211 1044 1253 q 879 1042 967 1117 q 690 908 792 967 q 480 806 588 850 q 278 729 372 763 l 225 663 q 206 639 214 649 q 190 619 197 629 q 174 599 182 610 q 153 569 165 588 q 209 587 183 582 q 257 592 235 592 q 348 557 317 592 q 379 468 379 522 m 935 1338 q 822 1281 890 1326 q 672 1167 753 1236 q 506 1008 592 1097 q 343 822 419 919 q 494 878 410 846 q 663 960 578 911 q 829 1081 749 1010 q 971 1250 910 1151 q 985 1319 992 1293 q 935 1338 978 1344 m 26 233 q 79 253 46 233 q 151 318 113 272 q 47 272 76 296 q 18 235 18 247 q 26 233 18 233 z "},"a":{"ha":836,"x_min":-58,"x_max":900,"o":"m 286 561 q 273 614 283 597 q 247 631 263 631 q 188 608 221 631 q 126 553 156 586 q 78 483 97 521 q 58 417 58 446 q 72 393 58 393 q 131 411 100 393 q 192 456 163 429 q 246 511 221 482 q 286 561 271 540 m 836 590 q 847 597 839 593 q 863 600 854 600 q 890 592 879 600 q 900 565 900 583 q 889 539 900 547 q 831 483 871 521 q 736 400 790 446 q 617 305 682 354 q 488 215 553 256 q 363 149 424 175 q 254 122 303 122 q 167 158 196 122 q 138 243 138 193 q 161 347 138 292 q 50 314 96 314 q -31 350 -4 314 q -58 439 -58 386 q -43 513 -58 474 q 0 590 -28 553 q 95 678 38 642 q 221 714 153 714 q 290 696 257 714 q 342 642 322 678 q 343 643 342 643 l 344 644 q 374 675 363 665 q 408 685 385 685 l 481 685 q 510 676 503 685 q 518 654 518 667 q 499 609 518 635 q 461 564 479 583 q 394 474 429 524 q 328 377 358 425 q 277 288 297 329 q 257 222 257 247 q 279 199 257 199 q 359 222 311 199 q 463 283 407 246 q 576 366 518 321 q 685 455 633 411 q 776 535 736 499 q 836 590 817 571 z "},"c":{"ha":606,"x_min":-149,"x_max":626,"o":"m -36 244 q 1 213 -36 217 q 94 250 39 221 q 208 319 149 279 q 328 405 268 360 q 438 489 389 450 q 522 556 488 528 q 563 590 556 585 l 561 590 q 588 599 569 599 q 615 588 604 599 q 626 564 626 576 q 622 542 626 546 l 600 524 q 533 467 576 503 q 436 388 490 431 q 320 301 382 346 q 197 222 258 257 q 78 163 135 186 q -25 140 21 140 q -122 174 -94 140 q -149 265 -149 208 q -133 357 -149 307 q -92 458 -118 407 q -31 557 -65 510 q 40 642 3 604 q 116 701 78 679 q 189 724 154 724 q 231 715 213 724 q 261 691 249 706 q 280 659 274 676 q 286 625 286 642 q 276 570 286 600 q 247 509 265 540 q 203 448 228 478 q 149 393 178 418 q 135 385 143 386 q 122 383 128 383 q 103 390 113 383 q 88 406 93 397 q 81 426 82 415 q 89 444 81 436 q 131 481 110 460 q 171 526 153 503 q 201 575 189 550 q 214 624 214 600 q 134 556 178 603 q 53 452 90 508 q -10 339 15 396 q -36 244 -36 282 z "},"d":{"ha":931,"x_min":-47,"x_max":1451,"o":"m 1332 1300 q 1188 1262 1268 1300 q 1021 1160 1107 1224 q 847 1013 935 1096 q 683 842 760 931 q 835 892 758 863 q 987 955 913 921 q 1130 1028 1061 989 q 1257 1113 1199 1068 q 1351 1206 1319 1164 q 1382 1269 1382 1247 q 1332 1300 1382 1300 m 338 204 q 420 229 371 204 q 526 292 469 254 q 639 376 582 331 q 745 465 696 422 q 831 542 794 508 q 881 590 867 576 q 891 597 883 593 q 908 600 899 600 q 944 565 944 600 q 910 528 944 563 q 822 445 876 494 q 699 340 768 396 q 560 235 631 283 q 426 154 490 186 q 317 122 363 122 q 210 159 239 124 q 181 249 181 194 q 185 303 181 274 q 197 360 189 332 q 67 315 124 315 q -19 353 10 315 q -47 443 -47 390 q -26 531 -47 483 q 33 619 -4 578 q 119 687 69 660 q 228 714 169 714 q 297 700 267 714 q 347 646 328 686 q 615 988 479 847 q 877 1218 751 1129 q 1110 1347 1003 1307 q 1294 1386 1218 1386 q 1410 1356 1369 1386 q 1451 1272 1451 1325 q 1411 1173 1451 1232 q 1300 1056 1371 1114 q 1101 930 1208 983 q 897 839 994 876 q 722 780 799 801 q 611 750 644 758 l 607 750 q 606 751 606 750 q 572 714 597 746 q 516 635 547 682 q 450 531 485 588 q 386 419 415 475 q 338 313 357 363 q 319 232 319 264 q 338 204 319 204 m 92 397 q 130 408 107 397 q 177 435 153 419 q 224 467 201 450 q 260 497 246 485 q 284 534 272 514 q 296 574 296 554 q 283 610 296 597 q 253 622 271 622 q 208 607 232 622 q 161 568 183 592 q 120 516 139 544 q 90 463 101 488 q 78 419 79 438 q 92 397 78 401 z "},"e":{"ha":565,"x_min":-140,"x_max":632,"o":"m 26 229 q 108 252 58 229 q 213 311 157 275 q 325 390 268 347 q 431 474 382 433 q 517 546 481 514 q 565 590 553 578 q 585 600 574 599 q 608 597 597 601 q 625 584 618 593 q 632 564 632 575 q 628 549 632 557 q 618 535 624 540 q 564 488 604 522 q 467 409 524 454 q 344 315 411 364 q 209 226 276 267 q 80 158 142 185 q -28 132 18 132 q -115 167 -90 132 q -140 258 -140 201 q -129 338 -140 294 q -99 424 -118 381 q -55 511 -81 468 q 0 590 -29 554 q 85 672 40 640 q 172 703 129 703 q 239 679 221 703 q 257 624 257 656 q 228 533 257 574 q 162 463 200 493 q 86 412 124 432 q 31 385 49 392 q 20 364 26 378 q 9 333 14 350 q 0 299 4 317 q -4 264 -4 281 q 3 240 -4 250 q 26 229 10 229 m 179 624 q 143 600 160 618 q 111 557 126 582 q 82 504 96 532 q 56 450 68 476 q 124 497 92 465 q 178 560 157 529 q 201 611 199 590 q 179 624 204 632 z "},"f":{"ha":772,"x_min":-264,"x_max":833,"o":"m 29 315 q 217 343 118 324 q 413 397 315 363 q 603 478 511 431 q 772 590 696 526 q 797 599 781 599 q 823 590 813 599 q 833 564 833 581 q 819 535 833 549 q 633 408 736 461 q 422 320 531 356 q 203 265 313 285 q -4 238 93 244 q -22 190 -14 214 q -39 144 -29 167 q -38 96 -39 106 q -37 83 -37 86 q -42 -17 -37 38 q -62 -119 -47 -72 q -103 -199 -76 -167 q -172 -231 -129 -231 q -244 -195 -225 -231 q -264 -110 -264 -160 q -244 40 -264 -43 q -190 213 -225 122 q -106 400 -154 304 q 0 590 -58 496 q 149 808 69 703 q 313 997 229 913 q 479 1140 396 1082 q 640 1218 563 1199 q 689 1224 663 1224 q 773 1198 742 1224 q 804 1125 804 1172 q 763 1027 804 1088 q 639 893 721 967 q 436 736 557 819 q 158 568 315 653 q 94 448 128 514 q 29 315 60 382 m 239 683 q 609 938 490 822 q 728 1122 728 1054 q 715 1133 728 1133 q 676 1125 699 1133 q 629 1106 653 1117 q 585 1082 606 1094 q 550 1060 564 1069 q 490 1010 521 1039 q 427 944 458 981 q 365 869 396 908 q 307 788 335 829 l 239 683 m -140 -150 q -119 -133 -129 -149 q -101 -91 -108 -117 q -89 -31 -93 -65 q -86 42 -85 4 q -104 -6 -96 22 q -140 -150 -122 -57 z "},"h":{"ha":918,"x_min":-139,"x_max":1083,"o":"m 918 590 q 962 594 942 606 q 982 565 982 582 q 974 538 982 546 q 876 449 931 494 q 760 360 821 404 q 634 273 699 315 q 507 196 569 231 q 450 168 483 185 q 379 136 417 151 q 304 110 342 121 q 236 100 267 100 q 167 120 194 100 q 139 183 139 140 q 163 272 139 221 q 214 376 186 324 l 213 376 q 215 380 215 381 q 218 383 215 379 l 240 425 l 260 457 l 258 457 q 288 527 278 501 q 299 567 299 553 q 244 542 279 564 q 169 488 210 519 q 91 424 129 457 q 28 368 53 390 l 29 368 q 1 344 17 356 q -22 328 -15 332 q -37 326 -25 326 q -60 326 -49 326 q -103 335 -83 326 q -136 365 -122 343 l -136 364 q -139 375 -139 367 q -136 386 -139 383 q -74 482 -108 431 q 0 590 -40 533 q 117 752 51 663 q 258 935 182 842 q 417 1115 333 1028 q 586 1272 500 1203 q 760 1382 672 1340 q 931 1424 847 1424 q 1042 1391 1001 1424 q 1083 1300 1083 1358 q 1035 1183 1083 1251 q 888 1038 986 1114 q 638 884 789 963 q 282 736 486 806 l 236 676 q 214 649 222 658 q 199 630 206 639 q 183 609 192 621 q 160 575 174 597 q 255 633 204 607 q 349 658 306 658 q 406 639 379 658 q 433 571 433 619 q 424 522 433 551 q 400 458 414 492 q 369 391 386 425 q 340 331 353 357 l 335 317 q 326 307 332 310 q 288 234 303 265 q 274 181 274 203 q 281 178 274 178 q 365 200 314 178 q 478 258 417 222 q 604 338 539 293 q 729 429 669 383 q 838 517 789 475 q 918 590 888 560 m 972 1338 q 881 1316 931 1338 q 783 1261 832 1294 q 687 1188 733 1228 q 603 1110 640 1147 q 472 973 532 1039 q 364 847 413 907 q 668 979 543 911 q 871 1110 793 1047 q 983 1224 949 1172 q 1018 1310 1018 1276 q 1006 1331 1018 1325 q 972 1338 993 1338 z "},"g":{"ha":857,"x_min":-631,"x_max":922,"o":"m 490 638 q 401 460 447 546 q 306 293 354 374 q 453 344 379 315 q 597 408 526 372 q 733 489 667 444 q 857 590 799 533 q 867 597 858 593 q 883 600 875 600 q 909 591 896 600 q 922 565 922 582 q 919 548 922 556 q 913 538 915 540 q 765 417 844 469 q 598 324 685 365 q 422 253 511 283 q 246 197 333 222 q 197 127 233 178 q 108 11 161 76 q -12 -125 56 -54 q -155 -256 -79 -196 q -312 -353 -231 -315 q -474 -392 -393 -392 q -587 -359 -544 -392 q -631 -261 -631 -326 q -569 -111 -631 -196 q -374 57 -507 -26 q -248 119 -318 90 q -110 170 -178 147 q 13 209 -43 193 q 99 232 69 225 q 107 245 103 239 q 114 257 111 251 q 128 278 122 269 q 142 297 135 288 q 156 317 149 306 q 174 347 163 329 q 111 320 138 326 q 58 314 85 314 q -28 351 0 314 q -56 443 -56 389 q -41 516 -56 478 q 0 590 -26 554 q 94 678 38 642 q 219 714 151 714 q 283 699 253 714 q 332 656 313 683 q 348 676 340 671 q 371 682 356 682 q 390 679 385 682 l 392 678 q 397 676 396 678 l 399 676 q 429 669 411 674 q 471 663 447 665 q 488 655 483 663 q 489 638 493 647 l 490 638 m 76 425 q 96 400 76 400 q 158 428 115 400 q 251 496 201 456 q 275 533 263 514 q 288 574 288 551 q 275 608 288 594 q 246 621 263 621 q 190 599 219 621 q 135 547 160 578 q 93 482 110 515 q 76 425 76 449 m -496 -297 q -403 -274 -458 -297 q -279 -199 -347 -251 q -132 -64 -211 -147 q 33 139 -53 19 q -164 76 -67 111 q -333 -1 -261 42 q -496 -142 -440 -74 q -551 -251 -551 -211 q -496 -297 -551 -297 z "},"k":{"ha":881,"x_min":-217,"x_max":1079,"o":"m 324 229 q 432 255 371 229 q 565 328 493 281 q 716 442 636 376 q 881 590 796 508 q 900 601 889 600 q 920 597 911 601 q 936 583 929 592 q 943 564 943 574 q 941 549 943 557 q 936 538 939 542 q 775 396 860 467 q 604 269 690 325 q 434 177 518 213 q 275 142 350 142 q 128 197 197 142 q 13 356 58 251 q -26 297 -11 321 q -53 256 -42 272 q -73 233 -65 240 q -87 222 -81 225 q -126 217 -103 217 q -171 225 -150 218 q -204 245 -192 232 q -211 278 -217 258 q -122 418 -176 338 q 0 590 -67 499 q 114 743 54 665 q 232 894 174 821 q 347 1032 290 967 q 451 1147 403 1097 q 717 1358 593 1294 q 928 1421 842 1421 q 1039 1387 999 1421 q 1079 1294 1079 1353 q 1028 1179 1079 1247 q 875 1035 976 1111 q 625 881 774 960 q 283 733 476 801 q 248 685 264 707 q 214 640 232 664 q 207 630 211 635 q 199 619 203 625 q 261 644 228 632 q 328 666 294 656 q 391 683 361 676 q 444 689 421 689 q 497 649 497 689 q 485 619 496 625 q 449 613 475 614 q 395 605 431 611 q 297 579 360 599 q 207 544 250 563 q 133 510 164 526 q 160 399 144 450 q 197 310 175 347 q 251 251 219 272 q 324 229 282 229 m 947 1321 q 847 1297 899 1321 q 741 1235 794 1274 q 635 1146 688 1196 q 534 1042 583 1096 q 442 937 485 989 q 365 842 400 885 q 658 967 536 904 q 856 1090 779 1031 q 969 1199 933 1149 q 1004 1288 1004 1250 q 988 1313 1004 1306 q 947 1321 972 1321 z "},"l":{"ha":757,"x_min":-136,"x_max":1138,"o":"m 1019 1283 q 903 1257 975 1283 q 741 1176 831 1231 q 551 1037 651 1121 q 347 836 450 953 q 503 884 422 857 q 663 945 585 911 q 814 1021 742 979 q 944 1113 886 1063 q 1028 1200 999 1158 q 1060 1264 1058 1242 q 1019 1283 1060 1283 m 757 590 q 767 597 760 593 q 783 600 775 600 q 809 591 796 600 q 822 565 822 582 q 818 549 822 557 q 813 540 814 542 l 813 542 q 722 457 779 506 q 594 357 664 408 q 444 255 524 306 q 289 164 365 204 q 142 99 213 124 q 19 75 72 75 q -55 86 -25 75 q -103 117 -85 97 q -128 163 -121 136 q -136 222 -136 190 q -122 316 -136 265 q -87 416 -108 367 q -43 511 -67 465 q 0 590 -19 557 q 174 848 83 733 q 358 1051 265 963 q 540 1203 450 1139 q 712 1307 631 1267 q 863 1367 793 1347 q 982 1386 932 1386 q 1097 1356 1056 1386 q 1138 1272 1138 1325 q 1098 1173 1138 1232 q 988 1056 1058 1114 q 782 926 893 981 q 569 833 671 871 q 389 774 468 796 q 278 743 310 751 q 270 741 274 743 q 263 739 267 739 q 220 687 246 722 q 165 604 194 651 q 106 503 136 557 q 52 394 76 449 q 13 291 28 340 q -3 206 -3 242 q 8 167 -3 182 q 43 151 18 151 q 86 160 61 151 q 201 201 140 174 q 326 265 263 229 q 453 344 390 301 q 573 429 517 386 q 677 514 629 472 q 757 590 725 556 z "},"m":{"ha":1372,"x_min":-211,"x_max":1433,"o":"m 1428 540 q 1321 433 1379 492 q 1199 315 1263 375 q 1070 199 1136 256 q 942 100 1004 143 q 822 31 879 57 q 719 4 765 4 q 638 31 669 4 q 606 108 606 57 q 630 214 606 151 q 683 340 654 276 q 737 457 713 403 q 761 538 761 511 q 760 542 761 540 q 760 546 760 544 l 760 549 q 714 531 744 549 q 654 486 683 513 q 477 345 536 390 q 403 300 418 300 q 385 304 392 300 q 378 322 378 308 q 388 350 378 331 q 408 392 397 369 q 434 444 421 414 q 459 506 447 474 q 478 574 471 539 q 486 642 486 608 q 474 671 486 671 q 426 659 454 671 q 369 629 397 647 q 238 523 306 586 q 109 394 169 460 q 2 269 49 329 q -65 174 -44 210 q -83 165 -69 167 q -114 164 -96 164 q -173 175 -142 164 q -211 210 -204 186 l 0 590 l 85 742 l 83 742 q 99 760 89 757 q 119 763 108 763 l 204 763 q 231 753 224 763 q 239 729 239 744 q 210 657 239 711 q 142 536 182 603 q 234 618 185 578 q 333 690 283 658 q 433 742 383 722 q 526 763 482 763 q 580 754 558 763 q 614 731 601 746 q 631 694 626 715 q 636 650 636 674 q 633 601 636 625 q 622 554 629 578 q 717 616 667 590 q 815 642 768 642 q 891 608 867 642 q 915 533 915 574 q 890 434 915 494 q 833 310 864 374 q 776 190 801 247 q 750 100 750 133 q 763 85 750 85 q 862 130 796 85 q 1012 247 928 175 q 1190 408 1096 318 q 1372 590 1285 499 q 1385 595 1374 592 q 1407 597 1396 599 q 1426 582 1418 594 q 1428 540 1433 569 z "},"n":{"ha":1004,"x_min":-215,"x_max":1067,"o":"m 1004 590 q 1028 599 1014 599 q 1056 590 1044 599 q 1067 564 1067 582 q 1053 535 1067 549 q 977 462 1026 511 q 866 353 928 413 q 734 230 804 293 q 596 115 664 167 q 466 31 528 64 q 360 -3 404 -3 q 283 25 315 -3 q 251 108 251 53 q 265 182 251 139 q 301 272 279 225 q 347 368 322 319 q 392 461 371 417 q 428 543 414 506 q 442 603 442 581 q 426 622 442 622 q 372 605 406 622 q 302 565 338 588 q 235 518 267 542 q 188 482 204 494 q 43 327 108 408 q -64 175 -22 246 q -89 166 -71 172 q -131 160 -107 160 q -174 167 -151 160 q -208 197 -196 175 l -208 194 q -215 210 -215 201 q -207 221 -214 218 q -104 405 -156 313 q 0 590 -53 497 q 42 665 21 628 q 85 740 64 703 l 83 740 q 99 758 89 756 q 117 761 110 761 l 201 761 q 231 752 224 761 q 239 728 239 743 q 219 675 239 713 q 171 588 199 638 l 153 554 l 142 536 q 324 665 238 622 q 468 707 410 707 q 553 677 521 707 q 585 592 585 647 q 556 478 585 543 q 492 346 526 414 q 428 214 457 278 q 399 103 399 150 q 410 83 399 83 q 485 116 436 83 q 594 199 535 149 q 717 310 653 250 q 839 427 782 371 q 940 528 896 483 q 1004 590 985 572 z "},"o":{"ha":756,"x_min":-107,"x_max":825,"o":"m 225 515 q 185 495 206 508 q 146 458 164 482 q 198 428 168 442 q 257 407 228 414 q 301 514 288 467 q 315 597 315 561 q 282 686 315 658 q 208 714 249 714 q 159 706 183 714 q 116 681 135 697 q 85 642 97 665 q 74 590 74 619 q 75 576 74 585 q 79 556 76 567 q 138 584 111 576 q 188 592 165 592 q 235 578 218 592 q 251 549 251 564 q 244 528 251 538 q 225 515 238 519 m 60 207 q 121 239 81 207 q 211 342 161 271 q 151 367 176 353 q 97 401 125 382 q 52 314 68 356 q 36 244 36 272 q 42 217 36 228 q 60 207 47 207 m 389 603 q 374 498 389 551 q 335 400 358 444 q 525 447 418 403 q 756 590 632 490 q 767 597 760 596 q 779 599 775 599 q 797 595 788 599 q 814 585 807 592 q 823 568 821 578 q 818 546 825 558 q 549 381 676 433 q 325 328 421 328 l 290 328 q 140 161 211 211 q 13 111 68 111 q -74 149 -40 111 q -107 249 -107 188 q -74 381 -107 308 q 15 508 -42 453 q 0 590 0 550 q 17 672 0 635 q 61 738 33 710 q 125 781 89 765 q 201 797 161 797 q 290 779 254 797 q 348 733 326 761 q 379 670 369 704 q 389 603 389 636 z "},"p":{"ha":961,"x_min":-622,"x_max":1026,"o":"m 961 590 q 988 599 969 599 q 1026 565 1026 599 q 1022 549 1026 557 q 1015 539 1018 542 l 1018 540 q 847 394 931 449 q 682 311 763 340 q 524 273 601 282 q 375 263 447 264 q 287 182 331 214 q 202 130 243 150 q 124 101 161 110 q 56 93 86 93 q -44 119 -7 93 q -81 183 -81 144 q -64 233 -81 207 q -10 279 -47 258 q 89 315 28 300 q 239 333 150 331 q 293 419 271 374 q 315 506 315 465 q 305 535 315 522 q 272 547 294 547 q 238 541 261 547 q 196 528 215 535 q 171 518 185 524 q 146 508 157 513 q 144 508 144 508 q 142 507 143 507 l 143 507 q 122 500 132 503 q 100 492 111 497 l -92 194 l -207 18 l -449 -353 q -479 -368 -461 -368 l -564 -368 q -603 -358 -585 -368 q -614 -335 -622 -347 q -510 -178 -564 -261 q -399 -10 -456 -96 q -287 162 -343 76 q -180 325 -232 247 q -82 471 -128 403 q 0 590 -36 539 q 66 677 40 646 q 100 708 92 708 l 185 708 q 213 699 206 708 q 219 675 219 690 q 210 644 219 661 q 188 608 201 626 q 259 627 225 622 q 325 632 293 632 q 447 594 404 632 q 490 492 490 556 q 477 419 490 460 q 436 338 464 378 q 560 356 496 343 q 692 396 625 368 q 826 470 758 424 q 961 590 894 517 m 15 183 q 74 199 38 183 q 156 250 111 215 q 37 220 72 239 q 1 186 1 201 q 15 183 1 183 z "},"q":{"ha":899,"x_min":-301,"x_max":960,"o":"m 588 640 q 483 520 535 581 q 382 401 431 460 q 290 288 333 343 q 211 185 246 232 q 391 229 300 189 q 570 328 482 269 q 741 457 658 388 q 899 590 824 526 q 917 599 907 599 q 937 596 928 600 q 953 583 946 592 q 960 564 960 574 q 957 549 960 557 q 947 535 954 542 q 778 392 868 467 q 590 254 688 317 q 392 151 493 192 q 186 110 290 110 l 160 110 q 143 97 151 103 q 128 89 135 92 q 157 -51 147 21 q 167 -182 167 -122 q 134 -412 167 -311 q 51 -583 101 -514 q -57 -687 1 -651 q -165 -724 -115 -724 q -262 -679 -224 -724 q -301 -547 -301 -635 q -281 -412 -301 -490 q -215 -233 -261 -333 q -94 -11 -169 -133 q 90 256 -19 111 q 68 253 78 253 q 47 253 58 253 q -50 293 -18 253 q -82 396 -82 333 q -60 492 -82 440 q 0 590 -39 544 q 104 678 44 643 q 235 713 164 713 q 323 688 283 713 q 382 611 363 664 q 424 656 401 632 q 465 700 447 681 l 479 700 q 494 701 486 700 q 510 701 501 701 q 539 700 524 701 q 567 694 554 699 q 589 683 581 690 q 597 663 597 675 q 588 639 597 649 l 588 640 m 89 -169 q 86 -92 89 -133 q 76 -7 83 -50 q -35 -195 11 -110 q -109 -349 -81 -281 q -150 -469 -137 -418 q -162 -557 -162 -521 q -151 -613 -162 -596 q -124 -631 -140 -631 q -58 -599 -94 -631 q 12 -509 -21 -568 q 67 -365 44 -450 q 89 -169 89 -279 m 206 407 l 224 428 l 260 469 l 322 546 q 320 565 322 553 q 313 590 318 578 q 297 612 307 603 q 274 621 288 621 q 207 591 244 621 q 136 520 169 561 q 80 435 103 479 q 57 361 57 390 q 74 342 57 342 q 185 382 110 342 l 206 407 z "},"r":{"ha":731,"x_min":-14,"x_max":792,"o":"m 47 538 q 24 529 40 529 q -3 543 7 529 q -14 568 -14 557 q -12 575 -14 571 q 0 590 -11 579 q 38 625 11 601 q 114 693 64 649 l 114 719 q 126 790 114 760 q 155 839 138 819 q 193 868 172 858 q 232 878 214 878 q 279 863 260 878 q 299 818 299 847 q 285 769 299 799 q 240 710 271 739 l 250 697 q 258 688 253 693 q 266 678 263 683 q 271 672 269 674 q 269 672 272 669 q 313 616 293 644 q 332 558 332 588 q 313 506 332 529 q 260 422 292 476 q 199 311 229 368 q 148 204 169 254 q 126 132 126 154 q 139 115 126 115 q 226 147 172 115 q 342 226 281 178 q 467 333 403 275 q 585 443 531 390 q 678 536 639 496 q 731 590 718 576 q 742 597 735 593 q 757 600 750 600 q 781 591 769 600 q 792 565 792 582 q 788 549 792 557 q 783 540 785 542 q 735 491 775 532 q 638 394 696 450 q 509 275 581 339 q 365 158 438 211 q 226 70 293 106 q 108 35 158 35 q 17 71 47 35 q -14 156 -14 107 q 8 251 -14 193 q 60 367 31 308 q 121 476 90 425 q 169 553 151 528 q 151 585 161 568 q 133 614 140 603 l 47 538 z "},"s":{"ha":618,"x_min":-157,"x_max":682,"o":"m 161 386 q 176 390 169 388 q 193 393 183 392 q 298 418 244 404 q 406 453 351 432 q 513 508 460 475 q 618 590 567 540 q 628 597 621 593 q 644 600 636 600 q 669 591 656 600 q 682 565 682 582 q 678 552 682 560 q 669 538 675 544 q 558 449 615 485 q 442 390 500 414 q 327 351 383 365 q 218 324 271 336 q 194 319 206 321 q 171 314 183 317 q 172 280 172 299 q 172 246 172 261 q 160 159 172 204 q 124 76 149 114 q 62 15 100 39 q -29 -8 24 -8 q -122 32 -86 -8 q -157 131 -157 72 q -117 247 -157 188 q 17 347 -76 307 q 15 363 15 354 q 14 378 14 371 l 10 403 q 9 406 10 404 q 8 411 8 408 l 8 417 q 1 479 4 444 q -3 544 -3 514 q -2 567 -3 556 q 0 590 -1 579 q 17 663 4 629 q 48 723 29 697 q 90 764 67 749 q 140 779 114 779 q 183 763 168 779 q 199 719 199 747 q 185 666 199 696 q 132 600 171 636 q 135 544 132 574 q 144 481 139 514 q 145 476 144 478 q 146 472 146 475 l 150 447 l 161 386 m -47 90 q -24 99 -36 90 q -1 129 -11 108 q 15 183 8 150 q 21 265 21 217 l 21 268 q -61 200 -39 236 q -83 136 -83 164 q -73 103 -83 117 q -47 90 -62 90 z "},"t":{"ha":539,"x_min":-308,"x_max":1176,"o":"m 732 1161 q 867 1157 803 1161 q 986 1142 931 1153 q 1087 1113 1042 1132 q 1164 1067 1132 1094 q 1176 1039 1176 1054 q 1166 1012 1176 1022 q 1140 1001 1156 1001 q 1113 1013 1124 1001 q 1047 1047 1086 1032 q 958 1070 1007 1061 q 853 1084 908 1079 q 739 1089 797 1089 q 643 1087 689 1089 q 544 1082 597 1085 q 483 1006 531 1065 q 371 864 435 947 q 236 684 307 781 q 106 497 165 588 q 7 331 46 406 q -32 217 -32 256 q -18 199 -32 199 q 67 224 17 199 q 176 289 118 250 q 292 375 233 328 q 401 465 351 422 q 489 543 451 508 q 539 590 526 578 q 549 597 542 593 q 568 600 557 600 q 591 589 581 600 q 601 565 601 578 q 599 551 601 558 q 593 540 596 543 l 596 542 q 553 501 589 535 q 464 421 518 468 q 343 321 410 374 q 208 224 276 268 q 75 150 140 179 q -40 121 10 121 q -122 152 -90 121 q -154 238 -154 183 q -142 308 -154 268 q -110 394 -131 349 q -61 489 -89 439 q 0 590 -33 539 q 92 728 43 658 q 190 861 142 797 q 280 979 238 925 q 354 1072 322 1033 l 353 1072 q 344 1072 349 1072 q 333 1071 339 1071 l 244 1065 q 133 1059 188 1063 q 25 1056 78 1056 q -105 1062 -44 1056 q -210 1083 -165 1068 q -281 1125 -254 1099 q -308 1193 -307 1151 q -299 1219 -308 1208 q -279 1231 -290 1229 q -249 1220 -262 1231 q -235 1194 -236 1210 q -215 1162 -235 1175 q -161 1142 -194 1149 q -82 1132 -128 1135 q 17 1129 -36 1129 q 167 1133 88 1129 q 322 1142 247 1136 l 422 1149 l 443 1175 l 447 1183 l 447 1182 q 476 1215 465 1203 q 497 1235 488 1228 q 514 1244 506 1242 q 533 1246 522 1246 l 575 1246 q 581 1245 578 1246 q 588 1244 585 1244 l 607 1244 q 644 1214 644 1244 q 636 1187 644 1201 q 617 1160 628 1172 q 675 1161 646 1161 q 732 1161 704 1161 z "},"u":{"ha":947,"x_min":-72,"x_max":1008,"o":"m 306 108 q 383 135 335 108 q 488 203 431 161 q 606 297 544 244 q 727 401 668 349 q 838 499 786 453 q 926 575 890 544 l 947 590 q 971 599 956 599 q 998 587 988 599 q 1008 564 1008 575 q 1004 545 1008 551 q 996 536 1000 539 l 967 514 q 878 438 932 485 q 762 337 825 390 q 630 228 699 283 q 495 129 561 174 q 371 57 429 85 q 269 29 313 29 q 180 65 206 29 q 154 150 154 101 q 165 208 154 171 q 191 285 175 244 q 224 365 207 326 q 256 428 242 403 q 199 387 229 407 q 138 350 168 367 q 77 323 107 333 q 22 313 47 313 q -48 343 -24 313 q -72 411 -72 374 q -51 497 -72 450 q 0 590 -31 544 q 74 688 36 643 q 138 757 113 733 l 231 757 q 268 725 268 757 q 260 699 268 714 q 239 669 251 685 q 191 606 219 644 q 135 526 163 567 q 88 450 108 486 q 64 394 67 414 q 185 465 94 403 q 247 514 215 488 q 306 566 278 540 q 360 614 335 592 q 401 653 385 636 q 411 660 406 656 q 422 669 417 665 l 436 681 l 538 683 q 569 653 569 683 q 556 614 569 636 q 532 581 542 592 q 494 525 517 561 q 444 445 471 489 q 390 353 417 401 q 340 263 363 306 q 304 184 318 219 q 290 129 290 149 q 306 108 290 108 z "},"v":{"ha":797,"x_min":-172,"x_max":861,"o":"m 797 590 q 808 597 800 593 q 825 600 815 600 q 851 592 840 600 q 861 565 861 583 q 850 539 861 547 q 744 447 804 493 q 619 364 685 401 q 490 303 554 326 q 369 279 425 279 q 316 282 342 279 q 271 303 290 285 q 202 250 243 281 q 115 192 161 219 q 22 144 69 164 q -62 125 -25 125 q -111 135 -90 125 q -145 163 -132 146 q -165 201 -158 179 q -172 243 -172 222 q -156 326 -172 281 q -114 417 -139 371 q -58 508 -89 463 q 0 590 -28 553 q 16 612 6 599 q 60 665 26 625 l 60 664 q 85 685 69 685 l 171 685 q 200 676 190 685 q 210 654 210 667 q 195 616 210 638 q 169 583 181 594 l 161 572 l 161 574 q 83 464 118 517 q 22 365 47 411 q -17 284 -3 319 q -31 226 -31 249 q -18 210 -31 210 q 67 244 10 210 q 226 364 125 278 q 222 382 224 372 q 221 401 221 392 q 239 473 221 439 q 284 533 257 507 q 341 575 311 560 q 394 590 371 590 q 440 573 426 590 q 454 536 454 556 q 441 491 454 515 q 408 442 428 467 q 368 394 389 417 q 331 357 347 372 q 347 353 339 354 q 363 351 356 351 q 411 356 385 351 q 464 369 438 361 q 516 388 490 378 q 563 408 542 397 q 680 485 618 439 q 797 590 742 532 z "},"w":{"ha":1201,"x_min":-136,"x_max":1267,"o":"m 1201 589 q 1211 596 1203 592 q 1228 600 1219 600 q 1256 592 1244 600 q 1267 565 1267 583 q 1256 539 1267 547 q 1163 460 1221 506 q 1036 374 1104 415 q 898 303 968 332 q 771 274 828 274 q 717 280 742 274 q 671 304 693 286 q 601 249 643 282 q 510 184 558 215 q 413 131 461 153 q 325 108 364 108 q 274 119 294 108 q 242 147 254 129 q 224 185 229 164 q 218 226 218 206 q 234 294 218 257 q 264 364 250 332 q 192 306 231 336 q 115 253 154 276 q 37 214 75 229 q -35 199 -1 199 q -112 232 -89 199 q -136 304 -136 265 q -124 371 -136 335 q -92 444 -111 407 q -48 519 -72 482 q 0 590 -24 557 q 35 638 18 615 q 65 678 51 660 q 91 684 68 681 q 139 688 114 688 q 189 679 167 688 q 211 650 211 671 q 208 639 211 647 q 181 589 200 618 q 136 526 161 560 q 85 456 111 492 q 37 387 58 421 q 2 324 15 353 q -10 276 -11 296 l -10 275 q 72 313 11 275 q 144 363 106 333 q 221 424 182 392 q 294 490 260 457 q 357 549 329 522 q 406 594 381 572 q 443 617 432 617 l 526 617 q 553 608 546 617 q 561 586 561 600 q 541 538 561 568 q 500 479 521 508 q 447 400 474 442 q 398 321 419 358 q 363 252 376 283 q 350 204 350 221 q 361 190 350 190 q 414 209 379 190 q 488 255 449 228 q 566 312 528 282 q 631 364 604 342 q 626 382 628 372 q 625 401 625 392 q 643 474 625 439 q 688 534 661 508 q 745 576 715 560 q 799 592 775 592 q 840 577 824 592 q 857 531 857 563 q 846 484 857 507 q 817 438 835 461 q 776 394 799 415 q 732 353 754 372 q 771 343 749 343 q 886 372 821 343 q 1014 442 951 401 q 1128 523 1076 482 q 1201 589 1179 564 z "},"x":{"ha":747,"x_min":-200,"x_max":658,"o":"m 599 699 l 597 699 q 608 705 603 704 q 622 706 614 706 q 646 694 633 706 q 658 667 658 683 l 658 654 q 656 649 658 651 l 288 353 q 310 274 297 304 q 337 224 324 243 q 364 194 350 204 q 389 178 378 183 q 413 162 404 169 q 421 139 421 154 q 406 110 421 119 q 364 101 390 101 q 317 108 343 101 q 263 133 290 115 q 208 181 235 151 q 164 257 182 211 l -142 15 l -143 15 q -145 15 -144 15 q -147 14 -146 14 l -150 14 q -156 11 -153 13 q -162 10 -160 10 q -188 20 -179 10 q -197 46 -197 31 l -197 56 q -197 64 -200 61 l 142 335 q 120 474 126 400 q 114 615 114 549 q 129 647 114 639 q 168 654 144 654 l 193 654 q 219 654 206 654 q 244 650 233 654 q 263 636 256 646 q 271 607 271 626 q 271 592 271 600 q 269 579 271 585 l 269 581 q 267 548 268 565 q 267 511 267 531 q 268 476 267 496 q 272 433 269 457 l 599 699 z "},"y":{"ha":999,"x_min":-479,"x_max":1065,"o":"m 999 590 q 1009 597 1001 593 q 1026 600 1017 600 q 1052 591 1039 600 q 1065 565 1065 582 q 1061 549 1065 557 q 1056 540 1057 542 q 908 415 986 468 q 746 322 831 363 q 572 251 661 282 q 393 196 483 221 q 186 -59 290 51 q -13 -243 82 -169 q -190 -354 -108 -317 q -325 -392 -271 -392 q -439 -356 -399 -392 q -479 -261 -479 -321 q -417 -110 -479 -194 q -225 57 -356 -25 q -102 117 -171 89 q 33 168 -33 146 q 155 206 100 190 q 236 229 210 222 q 240 230 239 229 q 242 231 240 231 q 244 232 243 231 q 281 288 263 261 q 315 340 299 314 q 349 394 332 367 q 383 454 365 422 q 297 380 343 417 q 204 313 251 343 q 111 263 157 282 q 26 244 65 244 q -65 274 -39 244 q -92 351 -92 304 q -64 465 -92 401 q 0 590 -36 529 q 48 663 24 629 q 92 724 72 697 q 127 765 113 750 q 146 781 142 781 l 232 781 q 265 749 265 781 q 249 707 265 733 q 208 649 233 681 q 157 578 185 617 q 106 498 129 539 q 65 416 82 457 q 49 338 49 375 q 57 324 49 324 q 135 347 89 324 q 231 406 181 371 q 332 482 282 440 q 422 558 382 524 q 485 617 461 593 q 508 640 510 640 q 511 648 507 640 q 524 665 515 656 q 547 681 533 674 q 575 689 560 689 q 623 681 603 689 q 643 651 643 674 l 639 635 q 548 451 590 532 q 457 292 506 369 q 606 343 532 315 q 749 407 679 371 q 881 488 818 443 q 999 590 944 533 m -344 -299 q -252 -276 -307 -299 q -130 -201 -197 -253 q 17 -65 -62 -149 q 182 139 96 18 q -16 76 81 111 q -182 -1 -112 42 q -344 -144 -289 -75 q -399 -253 -399 -212 q -384 -287 -399 -275 q -344 -299 -369 -299 z "},"z":{"ha":1036,"x_min":-504,"x_max":1100,"o":"m 1036 590 q 1049 599 1043 597 q 1064 600 1056 600 q 1090 592 1079 600 q 1100 567 1100 583 q 1096 550 1100 558 q 1092 540 1092 542 l 1092 542 q 931 413 1021 467 q 740 321 840 360 q 534 253 640 282 q 324 200 428 225 q 276 46 315 125 q 181 -104 236 -33 q 63 -233 126 -175 q -56 -325 0 -292 q -185 -383 -122 -364 q -297 -401 -249 -401 q -449 -351 -393 -401 q -504 -224 -504 -300 q -467 -100 -504 -164 q -349 24 -429 -36 q -141 140 -268 85 q 165 239 -14 194 l 165 240 q 156 297 165 272 q 132 340 146 321 q 101 372 118 358 q 72 393 85 385 l 69 396 l 71 396 q 56 409 61 403 q 50 428 50 415 q 75 456 50 446 l 75 454 q 134 497 107 472 q 180 549 161 522 q 209 600 199 575 q 219 644 219 625 q 210 656 219 656 q 156 629 194 656 q 60 544 117 603 q 25 531 46 531 q -2 542 6 531 q -10 565 -10 554 q 0 590 -10 583 q 151 712 86 678 q 264 746 215 746 q 344 715 315 746 q 374 635 374 683 q 364 584 374 611 q 338 528 354 557 q 298 471 321 499 q 247 421 275 443 q 325 274 313 363 q 527 326 426 299 q 720 389 628 353 q 893 474 813 425 q 1036 590 974 522 m -133 -233 q -34 -149 -81 -196 q 49 -50 13 -101 q 113 56 86 1 q 153 161 140 110 q -118 72 -7 122 q -299 -31 -229 22 q -399 -134 -368 -83 q -431 -225 -431 -185 q -403 -287 -431 -264 q -328 -311 -376 -311 q -240 -292 -289 -311 q -133 -233 -192 -274 z "},"@":{"ha":1157,"x_min":79,"x_max":1003,"o":"m 633 633 q 619 631 631 631 q 607 635 607 631 l 608 639 q 614 646 608 646 l 628 643 q 635 639 633 643 q 633 632 636 635 l 633 633 m 567 582 q 569 586 567 583 q 579 579 579 586 l 567 582 m 565 582 q 569 586 565 583 q 588 616 579 601 q 607 643 596 631 q 590 707 606 682 q 540 732 574 732 q 459 706 496 732 q 395 643 422 679 q 353 567 368 607 q 338 503 338 528 q 345 472 338 483 q 372 460 353 460 q 448 488 400 460 q 558 569 496 517 l 565 582 m 556 139 q 722 165 631 142 q 908 239 813 189 l 906 239 q 926 243 911 243 q 949 233 940 243 q 957 214 957 224 q 951 197 957 206 q 936 188 946 189 q 737 108 839 139 q 532 76 635 76 q 344 113 428 76 q 201 211 260 150 q 110 352 142 272 q 79 519 79 432 q 113 699 79 610 q 209 858 146 788 q 365 972 272 928 q 576 1015 457 1015 q 747 985 669 1015 q 882 901 825 954 q 971 778 939 849 q 1003 629 1003 708 q 953 433 1003 533 q 790 242 903 333 q 690 178 739 201 q 596 156 640 156 q 544 165 571 156 q 496 192 518 174 q 460 236 474 210 q 446 299 446 263 q 458 369 446 332 q 489 442 471 406 q 417 407 454 422 q 340 392 379 392 q 292 402 313 392 q 257 430 271 413 q 236 468 243 447 q 229 510 229 489 q 256 606 229 556 q 324 701 282 657 q 418 773 365 744 q 524 801 471 801 q 605 776 572 801 q 654 713 638 750 q 687 751 669 732 q 713 769 704 769 l 763 769 q 783 764 778 769 q 789 743 789 758 q 778 713 789 731 q 749 671 768 696 l 749 672 l 742 663 l 726 640 l 713 624 q 655 544 685 588 q 599 456 625 500 q 557 371 574 413 q 540 299 540 329 q 557 253 540 267 q 593 239 574 239 q 658 259 621 239 q 731 310 696 279 q 867 475 826 390 q 908 638 908 560 q 884 758 908 701 q 817 858 860 815 q 716 924 775 900 q 588 949 657 949 q 422 912 497 949 q 292 816 346 875 q 208 681 238 757 q 178 526 178 606 q 203 394 178 461 q 276 274 228 328 q 394 183 324 219 q 556 139 464 146 z "},"?":{"ha":1060,"x_min":78,"x_max":933,"o":"m 414 1060 q 404 1033 414 1040 q 383 1025 394 1025 q 361 1033 372 1025 q 350 1060 350 1040 q 376 1205 350 1136 q 447 1325 401 1274 q 551 1407 492 1376 q 681 1438 611 1438 q 776 1420 731 1438 q 857 1371 822 1403 q 913 1294 892 1339 q 933 1196 933 1250 q 898 1060 933 1129 q 806 920 863 990 q 680 781 750 850 q 539 644 610 711 q 421 533 479 589 q 317 422 363 476 q 242 315 271 367 q 211 218 213 264 q 199 197 210 203 q 176 190 188 190 q 152 198 161 190 q 143 225 143 206 q 171 337 143 279 q 244 455 199 394 q 349 578 290 515 q 468 706 407 642 q 580 821 525 763 q 680 937 635 879 q 756 1050 725 994 q 793 1157 786 1106 q 797 1199 797 1182 q 755 1320 797 1276 q 654 1364 713 1364 q 560 1338 604 1364 q 485 1269 517 1311 q 434 1172 453 1226 q 414 1060 415 1117 m 171 190 q 240 161 215 190 q 264 96 264 132 q 240 33 264 63 q 171 3 215 3 q 101 33 124 3 q 78 96 78 63 q 101 161 78 132 q 171 190 124 190 z "},">":{"ha":846,"x_min":131,"x_max":676,"o":"m 640 790 q 676 749 676 779 q 667 724 676 736 q 643 703 658 713 l 197 443 q 184 438 192 440 q 172 436 176 436 q 143 450 156 436 q 131 483 131 464 q 151 521 131 504 l 457 724 l 163 801 q 140 819 149 807 q 131 843 131 831 q 142 876 131 863 q 172 890 154 890 l 183 890 l 640 790 z "},"=":{"ha":935,"x_min":131,"x_max":803,"o":"m 186 565 q 147 581 163 565 q 131 618 131 596 q 147 652 131 638 q 186 667 163 667 l 751 667 q 787 652 771 667 q 803 618 803 638 q 787 579 803 594 q 751 564 771 564 l 186 565 m 186 358 q 147 373 163 358 q 131 411 131 388 q 147 447 131 435 q 186 460 163 460 l 751 460 q 787 447 771 460 q 803 411 803 433 q 787 373 803 388 q 751 358 771 358 l 186 358 z "},"<":{"ha":756,"x_min":106,"x_max":651,"o":"m 142 531 q 114 545 122 533 q 106 571 106 557 q 111 596 106 585 q 125 614 117 607 l 585 876 l 583 876 q 608 885 593 885 q 639 869 626 885 q 651 836 651 853 q 628 803 651 815 l 629 803 l 325 597 l 378 583 q 499 551 438 568 q 622 521 560 535 q 644 503 638 515 q 650 475 650 490 q 639 445 650 460 q 608 431 628 431 l 599 432 l 142 531 l 142 531 z "},";":{"ha":433,"x_min":-18,"x_max":313,"o":"m 306 292 q 263 169 296 222 q 188 81 229 117 q 104 28 146 46 q 36 11 63 11 q 1 25 21 11 q -18 51 -18 39 q -12 69 -18 64 q 4 79 -7 74 q 87 134 50 96 q 147 236 124 172 q 119 269 128 247 q 110 318 110 292 q 138 387 110 357 q 211 417 167 417 q 281 387 253 417 q 308 318 308 357 q 308 303 308 308 q 306 292 307 297 m 217 754 q 281 729 250 754 q 313 658 313 704 q 283 592 313 618 q 217 565 254 565 q 148 592 176 565 q 119 658 119 619 q 149 728 119 703 q 217 754 178 754 z "},":":{"ha":332,"x_min":67,"x_max":257,"o":"m 163 754 q 228 729 199 754 q 257 658 257 704 q 230 592 257 618 q 163 565 203 565 q 96 592 125 565 q 67 658 67 619 q 97 728 67 703 q 163 754 126 754 m 163 467 q 230 442 203 467 q 257 372 257 417 q 231 306 257 333 q 163 278 204 278 q 95 306 124 278 q 67 372 67 335 q 95 441 67 415 q 163 467 124 467 z "},"/":{"ha":726,"x_min":100,"x_max":797,"o":"m 675 1419 q 701 1448 683 1438 q 738 1458 718 1458 q 780 1438 763 1458 q 797 1399 797 1418 q 796 1388 797 1396 q 792 1376 794 1381 l 793 1378 l 513 719 q 373 391 442 553 q 235 65 304 229 q 199 21 218 38 q 165 4 181 4 q 119 21 138 4 q 100 60 100 38 q 101 72 100 65 q 104 83 101 78 l 103 82 l 675 1419 z "},".":{"ha":554,"x_min":156,"x_max":346,"o":"m 251 235 q 317 208 289 235 q 346 140 346 181 q 318 72 346 99 q 251 46 290 46 q 183 73 210 46 q 156 140 156 100 q 183 208 156 181 q 251 235 210 235 z "},"-":{"ha":1126,"x_min":108,"x_max":990,"o":"m 171 340 q 126 359 143 340 q 108 406 108 378 q 126 451 108 433 q 171 469 143 469 l 922 469 q 970 451 950 469 q 990 406 990 433 q 970 358 990 376 q 922 339 950 339 l 171 340 z "},",":{"ha":367,"x_min":-51,"x_max":275,"o":"m 272 199 q 229 76 263 129 q 155 -12 196 24 q 73 -65 114 -47 q 7 -82 32 -82 q -32 -68 -12 -82 q -51 -42 -51 -54 q -46 -24 -51 -29 q -29 -14 -40 -19 q 56 40 17 1 q 115 143 94 79 q 87 176 96 154 q 78 225 78 197 q 106 294 78 264 q 178 324 133 324 q 247 294 219 324 q 275 225 275 264 q 274 210 275 215 q 272 199 274 204 z "},"+":{"ha":1157,"x_min":176,"x_max":940,"o":"m 228 424 q 191 435 206 424 q 176 469 176 447 q 191 506 176 492 q 228 521 206 521 l 510 521 l 510 729 q 510 766 510 747 q 511 804 511 785 q 524 838 511 824 q 558 851 536 851 q 595 838 581 851 q 610 804 610 824 l 610 521 l 893 521 q 926 506 913 521 q 940 469 940 492 q 926 435 940 447 q 893 422 913 422 l 610 424 q 609 390 610 406 q 608 357 608 374 l 608 139 q 594 102 608 117 q 557 88 581 88 q 523 102 536 88 q 510 139 510 117 l 510 424 l 228 424 z "},"*":{"ha":815,"x_min":154,"x_max":611,"o":"m 300 1203 q 297 1211 297 1210 q 296 1215 296 1213 q 310 1249 296 1236 q 340 1261 324 1261 q 369 1252 356 1261 q 389 1222 383 1243 l 414 1119 l 492 1193 l 490 1193 q 506 1202 497 1200 q 525 1204 514 1204 q 554 1188 539 1204 q 569 1156 569 1172 q 564 1137 569 1147 q 551 1119 558 1126 l 475 1050 l 513 1036 l 511 1036 q 542 1026 526 1031 q 575 1018 558 1021 q 603 999 594 1011 q 611 972 611 986 q 598 938 611 953 q 564 924 585 924 q 546 925 551 924 l 444 958 q 449 936 447 947 q 453 917 451 925 l 467 849 l 468 840 q 453 810 468 821 q 424 799 438 799 q 392 808 406 799 q 376 832 379 817 l 351 938 l 274 865 l 275 865 q 258 856 268 858 q 240 854 247 854 q 209 869 222 854 q 196 904 196 883 q 208 935 196 922 l 292 1010 l 189 1042 l 190 1042 q 163 1061 171 1049 q 154 1088 154 1074 q 167 1117 154 1103 q 200 1132 179 1132 q 209 1132 204 1132 q 218 1129 214 1132 l 218 1131 q 236 1125 228 1128 q 253 1119 244 1122 l 321 1100 l 300 1203 z "},")":{"ha":849,"x_min":-247,"x_max":685,"o":"m -206 -197 q -236 -183 -225 -197 q -247 -154 -247 -168 q -239 -135 -247 -144 q -211 -114 -231 -126 q -83 -37 -150 -90 q 51 90 -17 15 q 183 258 118 165 q 308 452 249 350 q 417 662 367 554 q 503 874 467 769 q 560 1075 539 978 q 581 1254 581 1172 q 556 1394 581 1332 l 546 1425 l 546 1422 q 542 1438 542 1424 q 552 1462 542 1449 q 578 1475 563 1475 q 615 1449 596 1475 q 649 1381 633 1422 q 675 1290 665 1340 q 685 1192 685 1239 q 662 995 685 1103 q 599 774 639 888 q 504 543 560 660 q 383 319 449 426 q 244 117 317 211 q 94 -47 171 22 q -58 -157 18 -117 q -206 -197 -133 -197 z "},"(":{"ha":757,"x_min":146,"x_max":1078,"o":"m 1033 1499 q 1065 1485 1053 1499 q 1078 1456 1078 1471 q 1067 1435 1078 1447 q 1044 1417 1057 1424 q 872 1297 963 1382 q 694 1095 782 1211 q 525 842 606 979 q 383 563 444 704 q 286 289 322 422 q 250 47 250 156 q 256 -28 250 7 q 271 -97 261 -64 l 276 -112 q 283 -125 281 -119 q 286 -137 286 -131 q 276 -160 286 -147 q 251 -172 267 -172 q 215 -147 233 -172 q 181 -80 196 -121 q 156 11 165 -39 q 146 111 146 61 q 168 307 146 200 q 231 528 190 414 q 326 759 271 643 q 446 983 381 875 q 584 1185 511 1090 q 733 1349 657 1279 q 885 1458 808 1418 q 1033 1499 961 1499 z "},"'":{"ha":622,"x_min":119,"x_max":446,"o":"m 443 1114 q 400 990 433 1043 q 326 902 367 938 q 244 849 285 867 q 178 832 203 832 q 139 846 158 832 q 119 874 119 860 q 144 904 119 892 q 228 958 189 919 q 288 1058 267 996 q 260 1094 271 1072 q 249 1139 249 1115 q 276 1209 249 1181 q 349 1238 304 1238 q 418 1209 390 1238 q 446 1139 446 1181 q 445 1124 446 1129 q 443 1114 444 1118 z "},"&":{"ha":1483,"x_min":61,"x_max":1406,"o":"m 875 728 q 873 728 874 728 q 869 729 872 729 q 872 728 871 729 q 875 728 872 728 m 335 232 q 191 256 260 232 q 69 339 122 281 q 61 358 61 344 q 73 381 61 369 q 94 392 85 392 q 97 390 96 390 q 104 388 97 389 l 117 382 q 215 313 160 333 q 336 292 269 293 q 452 575 347 465 q 731 717 557 685 q 692 776 703 743 q 682 842 682 810 q 703 936 682 892 q 758 1014 725 981 q 831 1066 792 1047 q 907 1085 871 1085 q 1008 1048 969 1085 q 1046 961 1046 1011 q 1008 872 1046 917 q 874 800 969 826 q 849 808 860 800 q 838 829 838 815 q 858 858 838 847 q 958 906 929 878 q 986 963 986 935 q 972 999 986 985 q 933 1014 957 1014 q 897 1002 918 1014 q 854 968 875 990 q 819 914 833 946 q 804 843 804 882 q 812 795 804 815 q 830 762 819 775 q 853 741 840 749 q 874 729 865 733 q 875 728 874 728 l 876 726 q 906 697 906 711 l 906 688 q 881 667 897 672 q 843 660 865 663 q 799 653 825 657 q 741 639 772 649 q 675 613 710 629 q 604 569 640 596 q 501 449 538 517 q 456 306 465 381 q 628 353 539 321 q 811 424 717 385 l 847 438 q 1047 506 949 475 q 1225 536 1146 536 q 1335 512 1290 536 q 1404 431 1381 488 l 1406 417 q 1397 393 1406 401 q 1376 385 1389 385 q 1346 404 1356 385 q 1298 457 1329 440 q 1225 474 1267 474 q 1138 462 1189 474 q 1028 431 1086 450 l 1028 417 q 991 216 1028 303 q 897 71 954 129 q 767 -17 839 13 q 625 -46 696 -46 q 520 -28 571 -46 q 430 24 469 -11 q 365 111 390 60 q 335 232 339 163 m 967 410 l 967 415 l 967 421 l 976 414 l 967 410 m 656 26 q 767 53 711 26 q 866 131 822 81 q 938 251 910 181 q 967 410 965 322 l 865 369 l 839 360 q 648 292 749 326 q 454 242 547 257 q 474 145 457 186 q 519 78 492 104 q 581 39 546 51 q 656 26 617 26 z "},"%":{"ha":1033,"x_min":129,"x_max":878,"o":"m 783 1256 q 821 1272 792 1272 q 859 1258 840 1272 q 878 1219 878 1243 q 869 1196 878 1210 l 226 88 l 228 89 q 185 60 214 60 q 147 74 165 60 q 129 113 129 89 q 131 123 129 117 q 135 132 133 129 l 783 1256 m 507 1115 q 548 1076 535 1103 q 561 1018 561 1050 q 549 948 561 985 q 515 881 536 911 q 466 831 494 851 q 407 811 438 811 q 344 842 365 811 q 322 913 322 872 q 335 982 322 946 q 368 1048 347 1018 q 417 1098 389 1078 q 475 1118 444 1118 q 489 1117 482 1118 q 503 1115 496 1117 l 507 1115 m 614 492 q 655 454 642 479 q 668 397 668 429 q 655 328 668 365 q 620 260 642 292 q 571 209 599 229 q 514 189 543 189 q 449 220 468 189 q 429 290 429 251 q 442 359 429 322 q 475 426 454 396 q 524 477 496 457 q 582 497 551 497 q 614 492 601 497 m 560 340 q 540 278 540 301 l 540 265 q 556 276 546 265 q 577 306 567 288 q 595 347 588 324 q 603 397 603 371 l 603 415 q 585 398 596 415 q 560 340 575 381 m 450 960 q 437 924 440 936 q 433 901 433 911 q 435 888 433 888 q 451 897 442 888 q 471 921 461 906 q 487 958 481 936 q 493 1008 493 981 l 493 1035 q 476 1017 486 1033 q 450 960 465 1000 z "},"$":{"ha":1094,"x_min":176,"x_max":882,"o":"m 519 976 q 530 1055 519 1014 q 562 1130 540 1096 q 618 1186 583 1164 q 703 1210 653 1208 l 724 1261 q 774 1293 739 1293 q 805 1276 793 1293 q 817 1243 817 1258 q 817 1231 817 1236 q 815 1222 817 1225 l 801 1179 q 882 1026 882 1126 q 848 887 882 963 q 747 735 814 811 q 722 725 728 725 q 693 754 693 725 q 694 766 693 758 q 699 778 694 774 l 699 776 q 788 907 756 840 q 819 1026 819 974 q 811 1079 819 1056 q 783 1118 803 1103 l 753 1040 q 706 919 729 981 q 660 797 682 857 q 681 672 671 735 q 690 540 690 610 q 666 366 690 443 q 603 235 642 289 q 514 153 564 182 q 413 122 464 124 q 406 99 408 111 q 400 76 403 86 l 381 24 q 360 1 374 8 q 332 -7 347 -7 q 300 10 313 -7 q 288 43 288 26 q 290 60 288 54 l 289 60 l 314 139 q 212 224 247 165 q 176 361 176 282 q 202 498 176 426 q 286 643 228 569 l 286 642 q 310 658 294 658 q 328 647 318 658 q 339 629 339 636 q 332 611 339 618 l 332 613 q 260 483 285 547 q 235 363 235 418 q 263 263 235 306 q 335 197 290 219 l 364 274 q 392 348 378 311 q 417 422 406 385 q 472 569 444 496 q 526 717 500 642 l 550 779 q 543 808 550 785 q 528 882 536 836 q 519 976 519 928 m 574 551 q 574 565 574 563 q 575 569 575 568 q 575 574 575 571 q 574 592 575 576 l 588 589 l 574 551 m 453 224 q 505 286 482 249 q 543 367 528 324 q 566 457 558 410 q 574 549 574 504 l 574 551 l 453 224 m 621 983 q 629 988 624 989 q 635 981 635 986 l 635 971 q 634 964 635 967 q 633 957 633 961 q 633 954 633 956 q 635 943 633 953 q 628 935 635 935 l 614 936 q 607 946 604 936 l 621 983 z "},"#":{"ha":936,"x_min":133,"x_max":801,"o":"m 718 829 l 718 828 q 757 854 732 854 q 786 841 771 854 q 801 810 801 828 q 793 783 801 797 l 676 588 l 742 588 q 773 572 761 588 q 785 540 785 556 q 773 510 785 524 q 742 497 761 497 l 622 497 q 617 490 619 494 q 614 483 615 486 q 603 465 608 474 q 593 447 597 456 q 590 442 592 444 q 589 438 589 440 l 588 436 l 742 436 q 773 420 761 436 q 785 388 785 404 q 773 356 785 372 q 742 340 761 340 l 535 342 l 486 264 q 463 224 475 244 q 439 185 451 204 l 439 186 q 422 167 432 172 q 400 161 411 161 q 369 174 382 161 q 356 208 356 188 q 358 219 356 211 q 364 233 360 226 l 378 254 l 378 253 l 397 290 q 413 316 406 306 q 428 342 419 326 l 364 342 q 316 263 340 301 q 268 185 292 225 l 268 186 q 229 160 254 160 q 196 174 210 160 q 182 208 182 188 q 193 240 182 218 l 256 342 l 181 342 q 145 358 157 342 q 133 389 133 374 q 145 422 133 406 q 181 438 157 438 l 310 438 q 342 488 328 463 l 347 499 l 181 499 q 145 512 157 499 q 133 542 133 525 q 145 573 133 557 q 181 589 157 589 l 399 589 l 546 829 l 546 828 q 581 854 560 854 q 613 841 597 854 q 629 810 629 828 q 627 797 629 804 q 622 783 625 789 l 506 589 l 571 589 l 718 829 m 518 497 l 525 507 l 525 510 l 531 497 l 518 497 m 481 438 q 498 461 492 450 q 511 483 504 472 l 510 483 q 513 488 510 485 q 518 497 515 492 l 449 497 q 435 474 442 486 q 424 451 429 463 l 414 438 l 481 438 z "},"\"":{"ha":869,"x_min":124,"x_max":693,"o":"m 447 1114 q 404 990 438 1043 q 329 902 371 938 q 246 849 288 867 q 178 832 204 832 q 160 836 169 832 q 143 847 151 840 q 129 860 135 853 q 124 874 124 867 q 142 903 124 894 q 227 956 189 918 q 290 1058 265 994 q 260 1094 271 1072 q 250 1139 250 1117 q 278 1209 250 1181 q 351 1238 307 1238 q 422 1209 394 1238 q 449 1139 449 1181 q 447 1114 449 1119 m 690 1114 q 647 990 681 1043 q 573 902 614 938 q 491 849 532 867 q 425 832 450 832 q 386 846 406 832 q 367 874 367 860 q 392 904 367 892 q 475 958 436 919 q 536 1058 514 996 q 507 1094 518 1072 q 496 1139 496 1115 q 524 1209 496 1181 q 596 1238 553 1238 q 665 1209 638 1238 q 693 1139 693 1181 q 692 1124 693 1129 q 690 1114 692 1118 z "},"!":{"ha":668,"x_min":63,"x_max":585,"o":"m 404 1018 q 437 1072 422 1057 q 483 1088 451 1088 q 567 1074 506 1088 q 579 1062 574 1069 q 582 1046 585 1054 l 231 274 q 225 269 229 272 q 213 267 221 267 l 161 267 q 142 276 147 267 q 140 296 138 286 l 404 1018 m 158 257 q 226 231 199 257 q 253 161 253 206 q 226 94 253 122 q 158 67 199 67 q 91 95 119 67 q 63 161 63 124 q 91 231 63 204 q 158 257 119 257 z "},"D":{"ha":1226,"x_min":-94,"x_max":1599,"o":"m 819 842 q 1141 906 1007 858 q 1360 1017 1275 954 q 1486 1149 1446 1081 q 1526 1276 1526 1218 q 1507 1338 1526 1313 q 1449 1363 1488 1363 q 1319 1319 1394 1363 q 1162 1206 1244 1276 q 994 1044 1079 1135 q 833 861 910 954 l 819 842 m 497 82 q 601 112 539 82 q 735 188 664 142 q 882 293 807 235 q 1025 408 957 351 q 1149 516 1093 465 q 1235 597 1204 567 q 1236 603 1235 601 q 1265 611 1244 611 q 1292 598 1282 611 q 1303 572 1303 585 q 1299 556 1303 564 q 1293 546 1294 547 q 1235 490 1282 535 q 1118 385 1188 446 q 963 257 1049 325 q 790 131 878 189 q 619 36 703 74 q 471 -1 536 -1 q 397 13 426 -1 q 351 51 368 26 q 326 106 333 75 q 319 171 319 138 q 323 222 319 196 q 331 274 326 249 q 247 216 286 239 q 175 179 208 193 q 112 159 142 165 q 56 153 82 153 q -58 204 -22 153 q -94 332 -94 256 q -68 463 -94 390 q 8 599 -42 535 q 128 708 57 664 q 292 751 200 751 q 413 719 358 751 q 504 628 468 688 q 627 810 560 715 q 769 997 694 906 q 925 1169 844 1088 q 1088 1314 1006 1251 q 1251 1413 1169 1376 q 1408 1449 1332 1449 q 1549 1399 1500 1449 q 1599 1271 1599 1350 q 1552 1117 1599 1200 q 1405 960 1506 1033 q 1145 832 1304 886 q 761 764 986 778 q 712 691 742 738 q 647 587 682 644 q 578 466 613 529 q 515 342 543 403 q 469 227 486 281 q 451 136 451 174 q 497 82 451 82 m 118 503 q 74 415 93 465 q 54 319 54 365 q 107 242 54 242 q 175 261 136 242 q 252 307 214 281 q 323 361 290 333 q 374 406 356 389 l 385 413 l 422 479 q 458 546 439 515 q 397 633 431 607 q 328 660 363 660 q 270 647 299 660 q 215 613 242 635 q 163 563 188 592 q 118 503 139 535 z "},"[":{"ha":749,"x_min":63,"x_max":921,"o":"m 807 1536 l 243 46 q 246 47 244 47 l 278 47 q 326 40 306 47 q 346 7 346 32 q 328 -25 346 -17 q 285 -33 311 -33 q 265 -33 276 -33 q 247 -32 254 -33 l 249 -32 q 227 -30 238 -31 q 204 -29 217 -29 q 202 -30 203 -29 q 199 -31 201 -31 l 190 -31 l 90 -29 q 71 -18 79 -28 q 63 7 63 -8 q 63 13 63 10 q 67 28 64 15 l 657 1582 l 657 1581 q 673 1605 663 1599 q 707 1611 683 1611 l 746 1611 q 751 1610 749 1611 q 756 1610 753 1610 l 767 1610 q 783 1610 774 1610 q 804 1611 793 1610 l 836 1611 q 842 1612 839 1611 q 847 1613 844 1613 q 899 1605 878 1613 q 921 1575 921 1597 q 901 1544 921 1551 q 854 1536 882 1536 l 807 1536 z "},"\\":{"ha":876,"x_min":96,"x_max":760,"o":"m 754 124 q 759 101 758 107 q 760 93 760 96 q 744 50 760 69 q 701 31 729 31 q 665 41 682 31 q 642 68 649 51 l 99 1514 q 97 1522 97 1517 q 96 1536 96 1526 q 113 1580 96 1563 q 161 1597 131 1597 q 192 1588 176 1597 q 217 1561 208 1579 l 754 124 z "},"]":{"ha":907,"x_min":-143,"x_max":731,"o":"m 553 1531 l 517 1531 q 468 1538 488 1531 q 449 1571 449 1546 q 465 1599 449 1593 q 508 1606 482 1606 l 526 1606 q 531 1605 529 1606 q 536 1604 533 1604 l 546 1604 l 585 1604 l 600 1604 l 708 1604 q 725 1590 719 1600 q 731 1571 731 1581 l 731 1557 l 136 -6 l 136 -4 q 117 -31 131 -24 q 85 -37 103 -37 l 25 -37 q 19 -37 22 -37 q 13 -36 15 -36 l -3 -36 q -8 -37 -6 -36 q -14 -37 -11 -37 l -24 -37 q -48 -39 -33 -39 q -69 -39 -62 -39 q -122 -31 -100 -39 q -143 1 -143 -24 q -122 34 -143 26 q -72 42 -101 42 l -54 42 q -49 41 -51 42 q -44 40 -47 40 l -14 40 l 553 1531 z "},"^":{"ha":607,"x_min":104,"x_max":481,"o":"m 321 1206 l 346 1219 l 358 1219 q 399 1189 390 1219 l 481 829 l 481 821 q 467 789 481 801 q 433 776 453 776 q 406 787 418 776 q 389 814 393 797 l 335 1025 q 263 913 301 972 q 193 801 225 854 l 193 803 q 154 775 179 775 q 119 789 133 775 q 104 822 104 803 q 113 843 104 835 l 113 840 l 321 1206 z "},"_":{"ha":1300,"x_min":113,"x_max":1140,"o":"m 171 -139 q 130 -124 147 -139 q 113 -86 113 -110 q 130 -49 113 -62 q 171 -35 147 -35 l 1083 -35 q 1125 -49 1110 -35 q 1140 -86 1140 -64 q 1125 -124 1140 -110 q 1083 -139 1110 -139 l 171 -139 z "},"`":{"ha":563,"x_min":81,"x_max":456,"o":"m 115 1113 q 88 1119 94 1113 q 81 1139 81 1126 q 96 1164 81 1154 q 131 1180 111 1174 q 169 1188 151 1186 q 193 1190 188 1190 q 249 1178 226 1190 q 288 1146 272 1165 q 315 1101 304 1126 q 333 1050 325 1075 q 374 965 354 988 q 408 942 393 942 q 411 942 410 942 q 415 943 413 943 l 424 943 q 443 940 435 943 q 456 918 451 936 q 440 884 456 889 q 401 879 424 879 l 394 879 q 293 895 332 879 q 231 936 254 911 q 197 991 208 961 q 179 1049 186 1021 q 163 1094 172 1076 q 135 1113 154 1113 l 115 1113 z "},"{":{"ha":675,"x_min":79,"x_max":813,"o":"m 769 1563 q 798 1552 783 1563 q 813 1524 813 1542 q 793 1494 813 1506 q 734 1438 761 1478 q 683 1344 707 1397 q 637 1227 658 1290 q 594 1100 615 1164 l 594 1101 q 561 992 578 1044 q 526 894 544 939 q 486 813 507 849 q 440 757 465 778 q 409 618 439 697 q 343 453 379 539 l 332 433 l 333 435 l 322 408 q 278 306 300 357 q 240 206 257 254 q 212 113 222 157 q 201 31 201 68 q 217 -40 201 -7 l 215 -64 q 194 -85 215 -85 l 165 -87 q 99 -10 118 -56 q 79 89 79 35 q 89 178 79 132 q 113 274 99 225 q 147 372 128 322 q 183 467 165 421 q 190 481 186 474 q 196 496 193 489 q 220 559 207 525 q 245 626 233 593 q 266 689 257 660 q 278 735 275 718 l 267 735 q 207 753 224 735 q 190 799 190 772 q 210 846 190 822 q 264 869 231 869 q 283 866 271 869 q 308 856 296 863 q 364 915 340 881 q 406 991 388 950 q 440 1076 425 1032 q 467 1167 454 1121 q 510 1297 488 1233 q 565 1415 532 1361 q 647 1507 599 1468 q 765 1563 694 1546 l 769 1563 z "},"|":{"ha":486,"x_min":181,"x_max":290,"o":"m 181 1503 q 197 1548 181 1529 q 238 1567 213 1567 q 276 1548 261 1567 q 290 1503 290 1529 l 289 61 q 274 19 289 38 q 238 1 260 1 q 197 19 213 1 q 181 61 181 38 l 181 1503 z "},"}":{"ha":775,"x_min":-129,"x_max":600,"o":"m -90 -92 q -129 -54 -129 -92 q -115 -25 -129 -33 q -53 32 -82 -8 q -1 126 -25 72 q 44 244 22 181 q 85 369 65 307 l 85 368 q 119 476 101 424 q 156 573 136 528 q 197 652 175 618 q 243 707 218 686 l 243 710 q 252 778 243 740 q 276 859 261 817 q 310 947 290 901 q 349 1036 329 992 q 394 1145 371 1090 q 435 1253 417 1200 q 465 1353 454 1306 q 476 1440 476 1401 q 463 1510 476 1481 l 464 1535 q 485 1556 464 1556 l 518 1558 q 581 1481 561 1525 q 600 1382 600 1436 q 589 1289 600 1340 q 561 1184 578 1238 q 524 1078 544 1131 q 485 979 504 1025 l 476 963 l 472 946 q 426 828 447 883 q 399 733 406 774 l 417 733 q 471 716 453 733 q 489 672 489 699 q 469 623 489 646 q 419 600 450 600 q 396 603 408 600 q 371 614 383 606 q 317 554 340 589 q 274 478 293 519 q 241 393 256 438 q 213 304 226 349 q 170 174 193 239 q 114 56 147 110 q 33 -37 81 3 q -86 -92 -15 -76 l -90 -92 z "},"~":{"ha":1157,"x_min":151,"x_max":969,"o":"m 369 438 q 288 422 328 438 q 214 369 249 407 q 186 361 206 361 q 161 370 171 361 q 151 394 151 379 q 152 407 151 400 q 158 419 153 414 q 291 516 225 486 q 436 546 357 546 q 526 537 478 546 q 622 511 575 528 q 631 508 625 508 q 708 484 668 496 q 781 471 749 472 q 845 483 813 471 q 910 522 878 494 l 908 522 q 933 531 915 531 q 959 519 949 531 q 969 496 969 507 q 969 490 969 493 q 968 485 968 488 q 967 478 967 481 l 914 443 q 808 383 853 406 q 714 361 764 361 q 631 372 674 361 q 525 406 588 383 q 369 438 440 438 z "},"":{"ha":578,"x_min":82,"x_max":456,"o":"m 400 1113 q 374 1094 382 1113 q 358 1049 365 1076 q 339 991 350 1021 q 305 936 328 961 q 243 895 282 911 q 142 879 204 879 l 131 879 q 98 884 114 879 q 82 918 82 889 q 91 940 85 936 q 113 943 97 943 l 128 943 q 130 942 129 943 q 132 942 131 942 q 145 945 138 942 q 162 960 153 949 q 181 993 171 972 q 203 1050 192 1014 q 222 1101 211 1076 q 247 1146 232 1126 q 285 1178 263 1165 q 343 1190 308 1190 q 368 1188 350 1190 q 406 1180 386 1186 q 440 1164 425 1174 q 456 1139 456 1154 q 449 1119 456 1126 q 421 1113 442 1113 l 400 1113 z "},"i":{"ha":532,"x_min":-168,"x_max":593,"o":"m 532 590 q 539 597 533 593 q 556 600 544 600 q 582 589 571 600 q 593 565 593 578 q 573 533 593 557 q 519 478 553 510 q 440 410 485 447 q 347 335 396 372 q 250 263 299 297 q 160 201 201 228 q 42 144 97 164 q -56 124 -12 124 q -138 153 -108 124 q -168 239 -168 183 q -156 303 -168 265 q -122 388 -144 342 q -69 485 -100 433 q 0 590 -37 536 q 35 638 21 621 q 60 665 49 656 q 85 678 72 675 q 117 681 97 681 q 144 680 129 681 q 174 676 160 679 q 197 666 188 672 q 207 649 207 660 q 202 630 207 640 q 190 609 197 619 q 174 589 182 599 q 161 574 167 579 q 103 492 138 542 q 38 391 69 443 q -15 292 7 339 q -36 217 -36 244 q -21 200 -36 200 q 56 224 8 200 q 158 285 103 247 q 271 367 213 322 q 381 456 329 413 q 472 536 432 500 q 532 590 513 572 m 194 881 q 231 872 214 881 q 259 850 247 863 q 277 822 271 838 q 283 794 283 807 q 256 731 283 757 q 193 704 229 704 q 164 711 179 704 q 136 729 149 718 q 115 756 124 740 q 107 792 107 772 q 131 853 107 826 q 194 881 156 881 z "},"j":{"ha":649,"x_min":-908,"x_max":714,"o":"m 649 590 q 659 597 651 593 q 676 600 667 600 q 701 591 688 600 q 714 565 714 582 q 710 549 714 557 q 704 540 706 542 l 704 542 q 535 405 626 463 q 342 304 443 347 q 133 230 240 261 q -79 172 26 199 q -286 -79 -185 22 q -477 -243 -387 -181 q -642 -332 -567 -306 q -771 -358 -717 -358 q -872 -327 -836 -358 q -908 -243 -908 -296 q -849 -104 -908 -183 q -658 57 -789 -25 q -462 148 -572 110 q -226 217 -353 186 q -116 388 -172 294 q 0 590 -60 481 q 20 628 11 610 q 40 665 29 646 q 71 676 47 671 q 121 678 94 681 q 167 666 147 676 q 188 631 188 656 q 81 429 129 518 q -17 267 32 340 q 168 320 76 292 q 346 387 260 349 q 509 474 432 425 q 649 590 586 524 m 154 879 q 190 870 174 879 q 219 848 207 861 q 237 819 231 835 q 243 792 243 804 q 217 729 243 756 q 153 703 192 703 q 124 710 139 703 q 97 728 110 717 q 76 755 85 739 q 68 790 68 771 q 92 852 68 825 q 154 879 115 879 m -797 -265 q -711 -244 -762 -265 q -595 -178 -660 -224 q -456 -59 -531 -132 q -297 118 -381 14 q -539 34 -433 81 q -725 -82 -644 -12 q -807 -171 -778 -129 q -836 -236 -836 -212 q -797 -265 -836 -265 z "},"":{"ha":808,"x_min":-2390,"x_max":875,"o":"m 808 590 q 819 597 811 593 q 836 600 826 600 q 875 561 875 600 q 865 535 875 544 q 819 491 856 525 q 729 412 782 457 q 611 317 676 367 q 479 224 546 267 q 348 154 413 182 q 232 126 283 126 q 142 162 171 126 q 113 246 113 197 q 135 351 113 292 q 74 329 103 336 q 25 322 46 322 q -60 356 -32 322 q -87 443 -87 390 q -88 453 -87 451 q -87 463 -89 454 q -286 347 -172 406 q -534 233 -400 289 q -817 128 -668 178 q -1117 43 -965 79 q -1419 -15 -1269 7 q -1707 -36 -1569 -36 q -1926 -17 -1822 -36 q -2119 41 -2031 1 q -2275 141 -2207 81 q -2385 283 -2343 201 q -2390 300 -2390 293 q -2381 326 -2390 317 q -2356 336 -2371 336 q -2318 310 -2337 336 q -2225 184 -2285 236 q -2086 100 -2165 132 q -1910 53 -2007 68 q -1707 39 -1814 39 q -1402 65 -1562 39 q -1080 133 -1242 90 q -761 232 -918 175 q -466 351 -604 289 q -216 476 -328 413 q -33 599 -104 540 q 15 645 -12 622 q 72 686 42 668 q 135 715 103 704 q 196 726 167 726 q 266 708 232 726 q 321 650 300 689 q 322 651 321 650 l 322 650 q 351 687 340 676 q 388 697 363 697 l 460 697 q 484 688 482 697 q 486 664 486 679 q 474 625 486 647 q 447 580 463 603 q 413 535 431 557 q 385 500 396 514 q 328 421 356 461 q 281 344 301 381 q 247 277 260 308 q 235 226 235 246 q 254 203 235 203 q 335 226 286 203 q 438 285 383 249 q 550 367 493 322 q 658 454 607 411 q 748 533 708 497 q 808 590 788 569 m 247 549 l 261 569 q 249 623 258 607 q 224 639 239 639 q 163 617 196 639 q 100 562 129 594 q 51 492 71 529 q 32 425 32 454 q 46 400 32 400 q 96 416 67 400 q 153 454 125 432 q 203 498 181 476 q 235 531 226 519 l 247 549 z "},"":{"ha":736,"x_min":-1407,"x_max":1079,"o":"m 368 476 q 367 459 368 467 q 365 444 367 451 q 459 457 413 450 q 552 478 506 464 q 645 519 599 493 q 738 590 692 546 l 736 590 q 763 599 744 599 q 792 588 781 599 q 803 560 803 576 q 799 544 803 553 q 789 531 794 536 q 678 453 736 483 q 560 406 619 424 q 444 378 501 388 q 338 363 388 369 q 260 257 300 300 q 180 187 219 214 q 104 148 140 160 q 38 136 68 136 q -49 161 -17 136 q -82 229 -82 186 q -66 278 -82 251 q -15 331 -50 304 q 72 380 19 357 q 199 419 125 403 q 213 458 210 439 q 217 489 217 476 q 199 508 217 508 q 164 501 183 508 q 124 483 144 494 q 81 457 103 471 q 42 431 60 443 l 22 403 l 22 404 l 17 394 l 18 394 l 13 383 q -13 348 -1 363 q -39 333 -25 333 l -129 333 q -153 341 -144 333 q -162 364 -162 349 q -156 388 -162 374 q -141 418 -150 403 q -122 449 -132 433 q -103 475 -111 464 l -21 599 l 18 651 q 26 662 22 658 q 35 672 29 665 q -158 623 -60 646 q -352 583 -256 600 q -542 558 -449 567 q -724 549 -636 549 q -944 567 -839 549 q -1137 626 -1049 586 q -1293 726 -1225 665 q -1401 868 -1361 786 q -1407 885 -1407 878 q -1398 911 -1407 901 q -1374 921 -1389 921 q -1336 894 -1356 921 q -1243 769 -1303 821 q -1103 685 -1183 717 q -927 638 -1024 653 q -724 624 -831 624 q -317 663 -532 624 q 106 767 -103 701 q 185 869 143 815 q 272 975 228 922 q 358 1076 315 1028 q 439 1165 401 1125 q 580 1293 511 1240 q 711 1378 649 1346 q 827 1426 774 1411 q 924 1442 881 1442 q 1038 1408 997 1442 q 1079 1314 1079 1374 q 1028 1197 1079 1265 q 876 1050 978 1128 q 622 892 775 972 q 265 742 469 813 l 244 715 l 226 692 q 201 660 211 672 q 183 635 192 647 q 164 610 174 624 q 140 576 154 597 q 197 597 169 590 q 246 603 224 603 q 337 567 306 603 q 368 476 368 531 m 1004 1313 q 994 1344 1004 1329 q 964 1365 983 1358 q 797 1287 882 1343 q 633 1158 713 1231 q 481 1005 553 1085 q 351 854 408 925 q 653 982 529 917 q 856 1108 778 1047 q 969 1222 933 1169 q 1004 1313 1004 1275 m 11 238 q 65 257 31 238 q 139 325 99 276 q 33 276 64 301 q 3 239 3 251 q 11 238 3 238 z "},"":{"ha":533,"x_min":-2394,"x_max":610,"o":"m -25 217 q 67 254 13 225 q 183 323 122 283 q 303 408 243 363 q 415 493 364 453 q 501 563 465 533 q 546 601 536 593 q 571 611 554 611 q 599 598 588 611 q 610 572 610 585 q 606 557 610 565 q 596 543 601 549 q 549 501 586 535 q 457 424 511 468 q 336 330 403 379 q 201 239 269 281 q 66 170 132 197 q -51 143 0 143 q -149 178 -119 143 q -178 269 -178 213 q -167 348 -178 306 q -136 433 -156 390 q -337 322 -224 378 q -580 213 -450 265 q -853 116 -710 161 q -1142 37 -996 71 q -1433 -17 -1289 3 q -1711 -36 -1578 -36 q -1930 -17 -1825 -36 q -2123 41 -2035 1 q -2279 141 -2211 81 q -2389 283 -2347 201 q -2394 300 -2394 293 q -2384 326 -2394 317 q -2358 336 -2374 336 q -2321 310 -2340 336 q -2228 184 -2287 236 q -2089 100 -2168 132 q -1914 53 -2010 68 q -1711 39 -1818 39 q -1406 65 -1567 39 q -1084 133 -1246 90 q -765 232 -922 175 q -469 351 -607 289 q -219 476 -331 413 q -35 599 -107 540 q 15 650 -11 625 q 67 693 40 675 q 118 722 93 711 q 167 733 143 733 q 210 724 192 733 q 240 701 228 715 q 259 669 253 686 q 265 633 265 651 q 254 578 265 608 q 224 518 243 549 q 178 457 204 488 q 124 401 153 426 q 99 395 113 393 q 74 406 85 397 q 60 427 64 415 q 67 449 57 439 q 108 488 86 465 q 147 535 129 511 q 177 585 165 560 q 190 632 189 610 q 170 617 182 628 q 144 592 158 606 q 117 565 131 579 q 92 539 103 550 l 85 531 l 75 522 l 75 524 q 44 482 67 514 q -2 408 22 450 q -44 323 -26 367 q -62 247 -62 279 q -24 217 -62 221 l -25 217 z "},"":{"ha":874,"x_min":-592,"x_max":1464,"o":"m 333 208 q 417 233 367 208 q 524 297 468 258 q 639 382 581 335 q 747 473 697 429 q 834 551 797 517 q 885 601 871 586 q 896 608 888 604 q 913 613 904 613 q 949 574 949 613 q 914 537 949 571 q 824 453 879 503 q 698 346 768 403 q 557 240 628 289 q 420 159 486 192 q 308 126 354 126 q 201 163 231 128 q 171 253 171 199 q 176 308 171 278 q 189 365 181 339 q 117 333 149 342 q 58 324 85 324 q -31 359 -1 324 q -60 447 -60 394 q -47 518 -60 481 q -10 591 -33 556 q 48 656 14 626 q 124 704 82 686 l 92 704 q -127 723 -22 704 q -320 781 -232 742 q -476 880 -408 821 q -586 1021 -544 939 q -592 1036 -592 1028 q -581 1063 -592 1053 q -556 1072 -571 1072 q -538 1067 -549 1072 q -517 1046 -528 1061 q -424 920 -483 972 q -286 836 -365 868 q -111 790 -207 804 q 92 775 -15 775 q 265 784 175 775 q 447 810 354 793 q 694 1089 571 975 q 931 1274 818 1203 q 1140 1376 1043 1344 q 1307 1407 1236 1407 q 1423 1377 1382 1407 q 1464 1294 1464 1347 q 1424 1191 1464 1250 q 1313 1074 1383 1132 q 1133 960 1229 1010 q 947 873 1038 910 q 779 811 857 836 q 654 774 701 786 q 610 768 617 772 q 601 761 604 764 q 563 715 589 750 q 504 633 536 681 q 438 528 472 585 q 375 417 403 471 q 329 315 347 363 q 311 236 311 267 q 333 208 311 208 m 1342 1321 q 1198 1282 1279 1321 q 1028 1178 1117 1243 q 851 1029 940 1114 q 683 854 763 944 q 835 906 757 876 q 990 972 914 936 q 1138 1047 1067 1007 q 1267 1129 1208 1086 q 1362 1225 1329 1182 q 1394 1292 1394 1268 q 1342 1321 1394 1321 m 83 469 q 74 439 76 450 q 72 421 72 428 q 79 406 72 406 q 120 416 96 406 q 169 442 144 426 q 217 475 194 458 q 254 504 239 492 l 261 518 l 261 515 q 263 519 261 518 q 264 522 264 521 q 265 528 264 526 q 267 528 267 529 q 281 553 274 539 q 288 582 288 568 q 275 620 288 608 q 246 632 263 632 q 158 591 206 632 q 83 469 110 550 z "},"":{"ha":531,"x_min":-2394,"x_max":610,"o":"m -6 233 q 78 257 28 233 q 185 318 128 281 q 301 399 242 356 q 410 485 360 443 q 496 558 460 526 q 544 603 532 590 l 544 601 q 571 611 553 611 q 599 600 588 611 q 610 572 610 589 q 606 557 610 565 q 596 543 601 549 q 542 496 583 531 q 444 416 501 461 q 317 322 386 371 q 180 231 249 272 q 49 163 111 190 q -58 136 -14 136 q -147 171 -121 136 q -174 261 -174 206 q -162 347 -174 301 q -132 438 -151 393 q -333 326 -219 382 q -578 217 -447 269 q -853 118 -710 164 q -1144 38 -997 72 q -1435 -17 -1290 3 q -1711 -36 -1579 -36 q -1930 -17 -1825 -36 q -2123 41 -2035 1 q -2279 141 -2211 81 q -2389 283 -2347 201 q -2394 300 -2394 293 q -2384 326 -2394 317 q -2358 336 -2374 336 q -2321 310 -2340 336 q -2228 184 -2287 236 q -2089 100 -2168 132 q -1914 53 -2010 68 q -1711 39 -1818 39 q -1406 65 -1567 39 q -1083 133 -1246 90 q -764 233 -921 176 q -469 351 -607 289 q -218 478 -331 414 q -33 600 -106 542 q 10 643 -12 622 q 56 680 32 664 q 102 706 79 696 q 146 715 125 715 q 212 691 193 715 q 231 632 231 667 q 201 542 231 583 q 132 470 171 501 q 54 419 93 439 q -1 393 15 400 q -12 369 -6 383 q -23 338 -18 354 q -31 303 -28 321 q -35 268 -35 285 q -28 244 -35 254 q -6 233 -21 233 m 151 639 q 115 613 132 632 q 81 567 97 593 q 49 511 64 540 q 22 456 35 482 q 100 503 64 469 q 158 569 136 536 q 181 625 179 603 q 151 639 182 647 z "},"":{"ha":738,"x_min":-1990,"x_max":813,"o":"m 753 603 q 776 611 763 611 q 802 600 792 611 q 813 572 813 589 q 810 558 813 565 q 800 543 807 550 q 610 415 714 468 q 394 324 506 361 q 172 267 283 288 q -39 240 61 247 l -74 147 l -74 96 q -73 90 -74 93 q -72 83 -72 86 q -77 -19 -72 36 q -97 -123 -82 -75 q -139 -203 -111 -171 q -211 -235 -167 -235 q -283 -199 -264 -235 q -303 -114 -303 -164 q -298 -58 -303 -87 q -287 0 -293 -28 q -274 52 -281 28 q -261 93 -267 76 q -198 263 -240 165 q -100 465 -156 361 q -387 358 -235 408 q -696 268 -539 307 q -1009 207 -853 229 q -1307 185 -1165 185 q -1527 203 -1422 185 q -1720 262 -1632 222 q -1876 362 -1808 301 q -1985 504 -1944 422 q -1990 521 -1990 514 q -1956 553 -1990 553 q -1939 549 -1949 553 q -1919 535 -1929 544 q -1825 407 -1885 460 q -1686 321 -1765 354 q -1510 272 -1607 288 q -1307 257 -1414 257 q -1000 285 -1165 257 q -667 357 -835 313 q -337 459 -499 401 q -42 575 -176 517 q -35 585 -39 579 q -29 596 -32 592 q 68 750 15 672 q 178 899 121 828 q 296 1034 235 971 q 419 1144 357 1097 q 544 1217 482 1190 q 667 1244 607 1244 q 751 1218 719 1244 q 783 1143 783 1192 q 746 1042 783 1103 q 628 908 708 982 q 425 750 549 835 q 131 576 301 665 q 63 458 97 524 q -6 321 28 392 q 187 349 86 329 q 388 404 288 369 q 581 488 488 439 q 753 603 675 538 m 206 694 q 583 953 461 836 q 706 1140 706 1071 q 692 1153 706 1153 q 652 1144 675 1153 q 606 1125 629 1136 q 560 1101 582 1114 q 525 1079 539 1089 q 463 1026 496 1057 q 399 958 431 994 q 335 882 367 922 q 276 803 303 842 l 206 694 m -168 -140 q -147 -123 -157 -139 q -128 -81 -136 -107 q -117 -21 -121 -56 q -114 51 -112 14 q -132 4 -124 32 q -168 -140 -150 -47 z "},"":{"ha":829,"x_min":-2390,"x_max":910,"o":"m 469 646 q 378 468 426 556 q 281 297 331 381 q 431 350 356 321 q 577 416 506 379 q 715 499 649 453 q 842 603 782 544 q 853 609 844 606 q 871 613 861 613 q 897 601 883 613 q 910 574 910 590 q 906 556 910 564 q 900 546 903 549 q 749 426 831 479 q 578 331 667 372 q 398 258 489 289 q 221 201 307 226 q 169 126 206 179 q 78 7 132 74 q -45 -132 24 -60 q -190 -263 -114 -204 q -349 -361 -267 -322 q -511 -400 -431 -400 q -625 -365 -582 -400 q -668 -265 -668 -331 q -609 -112 -668 -197 q -410 60 -550 -28 q -285 122 -356 93 q -148 173 -215 150 q -24 212 -81 196 q 60 235 32 228 q 64 235 63 235 q 67 236 65 236 l 69 236 q 113 297 93 268 q 150 354 133 326 q 85 329 114 336 q 33 322 57 322 q -54 358 -25 322 q -83 446 -83 393 q -84 456 -83 456 q -83 465 -85 457 q -281 349 -167 408 q -528 233 -394 289 q -810 128 -661 178 q -1111 43 -958 79 q -1415 -15 -1264 7 q -1707 -36 -1567 -36 q -1926 -17 -1822 -36 q -2119 41 -2031 1 q -2275 141 -2207 81 q -2385 283 -2343 201 q -2390 300 -2390 293 q -2381 326 -2390 317 q -2356 336 -2371 336 q -2318 310 -2337 336 q -2225 184 -2285 236 q -2086 100 -2165 132 q -1910 53 -2007 68 q -1707 39 -1814 39 q -1402 65 -1562 39 q -1080 133 -1242 90 q -761 232 -918 175 q -466 351 -604 289 q -216 476 -328 413 q -33 599 -104 540 q 15 645 -12 622 q 72 686 42 668 q 134 715 103 704 q 194 726 165 726 q 310 669 267 726 q 324 689 317 683 q 347 694 332 694 q 369 692 358 694 l 371 690 q 376 689 375 690 l 378 689 q 410 682 390 686 q 453 675 429 678 q 469 663 464 672 q 469 646 474 653 m -531 -304 q -437 -281 -493 -304 q -313 -203 -382 -257 q -163 -65 -244 -150 q 7 142 -82 19 q -195 78 -97 114 q -367 -1 -293 42 q -533 -145 -476 -75 q -590 -256 -590 -215 q -531 -304 -590 -304 m 146 593 q 74 506 97 549 q 51 433 51 463 q 67 408 51 408 q 134 438 88 408 q 232 508 181 467 l 263 569 l 261 568 q 263 582 263 574 q 251 618 263 606 q 221 631 239 631 q 185 622 206 631 q 147 593 165 613 l 146 593 z "},"":{"ha":907,"x_min":-1222,"x_max":1085,"o":"m 919 603 q 962 613 939 622 q 985 574 985 603 q 974 542 985 558 q 876 455 932 500 q 758 365 821 410 q 628 277 694 319 q 500 200 563 235 q 438 165 476 188 q 354 122 399 143 q 266 86 310 101 q 192 71 222 71 q 122 93 150 71 q 94 158 94 115 q 113 233 94 192 q 158 317 132 275 q 209 399 183 360 q 249 465 235 438 q 281 535 271 510 q 290 575 290 560 q 235 549 271 572 q 158 494 199 526 q 79 429 118 463 q 14 372 40 396 q -15 349 -1 358 q -35 336 -29 339 q -51 333 -40 333 q -76 333 -62 333 q -119 341 -100 333 q -151 369 -137 349 l -151 368 q -153 383 -154 371 q -149 397 -151 394 l -151 396 q -63 533 -111 463 q 50 694 -15 604 q -251 637 -103 657 q -539 617 -399 617 q -758 636 -654 617 q -951 694 -862 656 q -1107 793 -1039 733 q -1217 933 -1175 853 q -1222 950 -1222 943 q -1212 976 -1222 967 q -1186 986 -1201 986 q -1169 981 -1179 986 q -1149 960 -1158 975 q -1055 834 -1114 886 q -917 750 -996 782 q -742 703 -837 718 q -539 689 -646 689 q -217 715 -383 689 q 118 786 -50 742 q 198 888 156 836 q 283 991 240 940 q 369 1088 326 1042 q 447 1172 411 1135 q 718 1383 590 1318 q 932 1449 846 1449 q 1044 1415 1004 1449 q 1085 1321 1085 1381 q 1034 1203 1085 1272 q 882 1056 983 1133 q 628 898 781 978 q 274 749 476 818 l 211 669 q 194 647 200 656 q 182 631 188 639 q 169 613 176 624 q 149 585 161 603 q 247 642 194 617 q 342 667 300 667 q 399 647 372 667 q 426 579 426 628 q 406 501 426 551 q 360 399 385 450 q 331 346 351 382 q 288 271 310 310 q 248 199 265 232 q 231 156 231 165 q 240 150 231 150 q 328 175 274 150 q 447 240 382 200 q 583 329 513 279 q 717 430 653 379 q 835 526 782 481 q 919 603 889 572 m 975 1361 q 882 1339 932 1361 q 781 1283 832 1317 q 683 1207 731 1249 q 597 1128 635 1165 q 467 991 528 1060 q 357 860 407 922 q 667 994 540 925 q 872 1127 793 1064 q 987 1244 951 1190 q 1022 1331 1022 1297 q 1008 1353 1022 1346 q 975 1361 994 1361 z "},"":{"ha":494,"x_min":-2394,"x_max":568,"o":"m 506 603 q 516 609 508 606 q 532 613 524 613 q 558 599 547 613 q 568 574 568 586 q 547 542 568 565 q 492 488 526 519 q 413 417 458 456 q 319 342 368 379 q 222 268 271 304 q 131 206 172 232 q 10 148 69 168 q -89 128 -49 128 q -174 156 -142 128 q -206 243 -206 185 q -191 323 -206 276 q -144 429 -176 369 q -344 318 -232 374 q -587 211 -457 263 q -858 115 -717 160 q -1145 36 -1000 69 q -1434 -17 -1290 3 q -1711 -36 -1578 -36 q -1931 -17 -1826 -36 q -2123 41 -2035 1 q -2279 141 -2211 81 q -2389 283 -2347 201 q -2394 300 -2394 293 q -2384 326 -2394 317 q -2358 336 -2374 336 q -2341 330 -2351 336 q -2321 308 -2331 324 q -2228 183 -2287 235 q -2089 100 -2168 132 q -1914 53 -2010 68 q -1711 39 -1818 39 q -1406 65 -1567 39 q -1083 133 -1246 90 q -764 232 -921 175 q -469 351 -607 289 q -219 476 -331 413 q -36 599 -107 540 q 0 649 -14 631 q 26 678 14 668 q 51 690 39 688 q 83 693 64 693 q 112 692 96 693 q 141 688 128 692 q 164 677 154 685 q 174 657 174 669 q 160 620 174 639 q 136 589 147 601 q 135 587 135 588 q 133 585 135 586 q 132 581 132 583 q 74 502 108 551 q 8 399 40 453 q -47 297 -24 346 q -69 221 -69 249 q -54 204 -69 204 q 23 228 -25 204 q 126 290 71 253 q 241 374 182 328 q 352 465 300 421 q 445 547 404 510 q 506 603 486 583 m 142 869 q 178 861 161 869 q 206 840 194 853 q 224 813 218 828 q 231 783 231 797 q 203 719 231 744 q 140 693 176 693 q 81 717 108 693 q 53 781 53 742 q 76 842 53 815 q 142 869 100 869 z "},"":{"ha":619,"x_min":-2393,"x_max":692,"o":"m 157 639 q 47 436 100 528 q -53 271 -6 344 q 135 326 40 296 q 317 394 229 356 q 485 483 406 433 q 626 597 564 533 q 638 609 626 606 q 656 613 650 613 q 680 601 668 613 q 692 574 692 590 q 688 558 692 565 q 683 549 685 550 l 683 550 q 513 410 606 469 q 317 308 419 351 q 105 233 214 265 q -114 175 -4 201 q -324 -81 -221 22 q -517 -246 -426 -183 q -685 -335 -608 -308 q -818 -362 -762 -362 q -922 -332 -883 -362 q -960 -246 -960 -301 q -896 -105 -960 -186 q -701 60 -832 -24 q -502 151 -612 114 q -265 221 -392 189 q -185 333 -222 279 q -112 447 -149 386 q -310 334 -197 392 q -556 223 -424 276 q -833 122 -687 169 q -1128 40 -979 75 q -1426 -16 -1278 4 q -1711 -36 -1575 -36 q -1930 -17 -1825 -36 q -2123 41 -2035 1 q -2279 141 -2211 81 q -2387 283 -2347 201 q -2393 300 -2393 293 q -2358 336 -2393 336 q -2341 331 -2351 336 q -2321 310 -2331 325 q -2227 184 -2286 236 q -2089 100 -2168 132 q -1914 53 -2010 68 q -1711 39 -1818 39 q -1398 65 -1562 39 q -1069 133 -1233 90 q -746 232 -904 175 q -451 351 -587 289 q -206 477 -314 413 q -32 600 -97 542 l 4 671 q 29 684 8 681 q 75 688 50 688 q 144 678 129 688 q 158 651 158 668 q 158 649 158 650 q 157 646 157 649 l 157 639 m -844 -269 q -758 -249 -810 -269 q -640 -182 -706 -228 q -497 -61 -575 -136 q -333 122 -419 14 q -580 36 -474 82 q -768 -82 -686 -10 q -856 -175 -831 -133 q -882 -240 -882 -217 q -844 -269 -882 -269 m 119 869 q 185 840 163 869 q 208 782 208 811 q 183 719 208 744 q 118 693 157 693 q 89 699 104 693 q 61 717 74 706 q 40 745 49 729 q 32 781 32 761 q 56 842 32 815 q 119 869 81 869 z "},"":{"ha":867,"x_min":-1222,"x_max":1082,"o":"m 314 233 q 423 260 361 233 q 558 335 485 286 q 713 451 631 383 q 881 603 794 519 q 906 611 888 611 q 933 601 922 611 q 944 572 944 590 q 941 557 944 565 q 932 543 938 549 q 769 400 854 471 q 597 272 683 329 q 426 180 511 215 q 265 144 342 144 q 115 203 186 144 q -3 364 43 263 l -21 338 l -21 339 l -31 321 q -71 259 -53 286 q -104 226 -89 232 q -157 218 -129 218 q -197 229 -176 218 q -229 257 -217 240 q -232 271 -233 261 q -226 283 -231 281 l -229 282 q -113 465 -185 358 q 53 694 -42 572 q -249 637 -100 657 q -539 617 -399 617 q -758 636 -654 617 q -951 694 -862 656 q -1107 793 -1039 733 q -1217 933 -1175 853 q -1222 950 -1222 943 q -1212 976 -1222 967 q -1186 986 -1201 986 q -1169 981 -1179 986 q -1149 960 -1158 975 q -1055 834 -1114 886 q -917 750 -996 782 q -742 703 -837 718 q -539 689 -646 689 q -215 715 -383 689 q 121 786 -47 742 q 206 892 163 839 q 290 994 249 944 q 371 1089 332 1044 q 443 1168 410 1133 q 583 1295 515 1243 q 714 1381 651 1347 q 831 1429 776 1414 q 928 1444 885 1444 q 1041 1410 1000 1444 q 1082 1315 1082 1375 q 1029 1199 1082 1268 q 874 1053 976 1131 q 621 895 772 975 q 274 746 469 815 l 224 682 l 188 632 q 250 655 217 643 q 317 677 283 667 q 381 694 350 688 q 435 701 411 701 q 477 692 463 701 q 492 657 492 682 q 479 628 490 633 q 439 624 468 624 q 383 616 422 622 q 286 590 344 610 l 288 590 q 118 518 181 550 q 145 405 129 457 q 185 315 161 353 q 240 255 208 276 q 314 233 271 233 m 950 1343 q 849 1319 901 1343 q 741 1255 796 1294 q 633 1165 686 1215 q 529 1060 579 1114 q 435 952 479 1006 q 356 854 390 899 q 652 981 529 917 q 853 1106 775 1046 q 969 1219 932 1167 q 1006 1310 1006 1272 q 990 1335 1006 1328 q 950 1343 974 1343 z "},"":{"ha":747,"x_min":-978,"x_max":1143,"o":"m 75 161 q 187 203 126 175 q 310 267 247 231 q 437 347 374 304 q 558 433 500 389 q 667 519 617 476 q 754 597 718 561 q 765 607 757 601 q 782 613 774 613 q 808 601 794 613 q 821 574 821 590 q 817 558 821 565 q 811 549 813 550 l 811 550 q 719 465 776 514 q 589 364 661 417 q 437 259 517 311 q 279 166 357 207 q 130 100 201 125 q 4 75 58 75 q -119 118 -83 75 q -154 226 -154 161 q -140 319 -154 269 q -104 419 -125 369 q -59 516 -83 469 q -14 597 -35 563 l -14 596 l -1 621 q 0 624 -1 622 q 1 628 1 626 l 14 643 l 61 715 l 64 718 q -119 695 -32 703 q -294 688 -206 688 q -512 708 -407 688 q -705 767 -617 728 q -862 867 -793 807 q -972 1006 -931 926 q -978 1021 -978 1017 q -969 1046 -978 1036 q -944 1056 -960 1056 q -927 1050 -937 1056 q -906 1029 -917 1044 q -812 903 -872 956 q -674 819 -753 851 q -498 773 -594 788 q -294 758 -401 758 q -92 771 -196 758 q 122 806 13 783 q 372 1087 247 972 q 608 1273 496 1201 q 817 1376 721 1344 q 983 1408 914 1408 q 1101 1378 1058 1408 q 1143 1294 1143 1347 q 1102 1193 1143 1253 q 990 1074 1061 1133 q 853 981 925 1022 q 708 906 781 939 q 565 847 635 872 q 438 803 496 821 q 335 773 379 785 q 268 756 290 761 q 264 755 265 756 q 261 754 263 754 q 253 751 257 751 q 210 701 236 736 q 153 617 183 665 q 93 514 124 569 q 38 403 63 458 q -1 297 14 347 q -17 210 -17 247 q -6 168 -17 182 q 29 154 4 154 q 75 161 43 154 m 1022 1304 q 903 1277 976 1304 q 738 1194 829 1250 q 544 1053 647 1139 q 336 849 440 967 q 495 900 413 871 q 658 965 578 929 q 811 1042 738 1000 q 946 1129 885 1083 q 1031 1222 999 1181 q 1063 1286 1063 1263 q 1022 1304 1063 1304 z "},"":{"ha":1360,"x_min":-2385,"x_max":1436,"o":"m 1381 606 l 1376 604 q 1385 610 1381 607 q 1399 613 1390 613 q 1424 601 1411 613 q 1436 574 1436 590 q 1432 558 1436 565 q 1426 549 1428 550 l 1426 550 q 1266 399 1353 475 q 1090 263 1179 324 q 915 163 1000 201 q 763 125 831 125 q 677 150 710 125 q 644 229 644 175 q 664 324 644 272 q 706 428 683 376 q 737 499 724 465 q 750 546 750 533 q 749 557 750 557 q 701 539 731 557 q 640 494 671 521 q 534 407 579 443 q 458 348 489 371 q 410 315 428 325 q 383 304 392 304 q 365 310 372 304 q 358 331 358 315 q 367 356 358 338 q 389 400 375 374 q 416 451 401 422 q 442 514 431 481 q 463 582 454 547 q 471 650 471 617 q 456 683 471 683 q 408 670 436 683 q 351 638 379 657 q 261 571 307 608 q 172 492 215 533 q 88 406 128 450 q 13 321 47 361 q -47 244 -21 281 q -89 183 -74 208 l -87 185 q -106 169 -92 174 q -140 164 -121 164 q -201 176 -169 164 q -242 210 -233 188 q -241 213 -242 211 q -240 215 -240 214 l -111 443 q -304 329 -193 386 q -546 219 -415 272 q -822 119 -676 165 q -1116 38 -967 72 q -1415 -16 -1265 4 q -1703 -36 -1564 -36 q -1927 -19 -1821 -36 q -2122 37 -2033 -1 q -2276 135 -2210 75 q -2382 283 -2343 196 q -2384 290 -2383 286 q -2385 300 -2385 293 q -2350 336 -2385 336 q -2312 310 -2332 336 q -2219 184 -2279 236 q -2081 100 -2160 132 q -1906 53 -2001 68 q -1703 39 -1810 39 q -1397 65 -1558 39 q -1074 134 -1236 90 q -753 235 -911 178 q -456 354 -594 292 q -206 481 -318 417 q -21 603 -93 546 q 4 649 -8 626 q 31 696 17 672 l 63 754 l 61 754 q 76 772 67 769 q 96 775 85 775 l 183 775 q 210 765 203 775 q 217 740 217 756 q 208 713 217 732 q 187 667 200 694 q 156 608 174 640 q 117 542 138 575 q 211 626 161 585 q 312 701 261 668 q 413 755 363 735 q 508 775 464 775 q 598 742 574 775 q 622 660 622 710 q 618 612 622 638 q 607 563 614 586 q 706 624 654 599 q 803 650 758 650 q 880 616 854 650 q 906 542 906 582 q 888 458 906 504 q 847 363 869 411 l 839 349 q 806 278 821 313 q 790 221 790 243 q 804 206 790 206 q 897 233 838 206 q 1031 311 956 260 q 1193 436 1106 363 q 1371 601 1281 510 l 1381 606 z "},"":{"ha":979,"x_min":-2389,"x_max":1054,"o":"m 992 603 q 1017 611 1001 611 q 1043 601 1032 611 q 1054 572 1054 590 q 1040 543 1054 557 q 968 478 1014 518 q 866 391 922 438 q 746 297 810 344 q 619 212 682 250 q 497 149 556 174 q 393 125 439 125 q 315 151 349 125 q 281 236 281 178 q 303 333 281 281 q 353 442 325 386 l 351 442 q 353 444 353 444 q 356 447 354 444 l 376 490 l 375 490 q 405 561 392 528 q 418 615 418 594 q 403 632 418 632 q 347 615 382 632 q 276 574 313 597 q 209 528 240 551 q 163 490 178 504 q 15 334 82 417 q -93 181 -53 251 q -120 167 -100 174 q -162 160 -140 160 q -207 167 -185 160 q -240 199 -229 174 q -244 214 -244 206 q -239 225 -244 222 q -203 287 -221 257 q -171 344 -186 317 l -171 343 l -112 446 q -317 335 -201 392 q -567 224 -433 278 q -846 124 -700 171 q -1139 41 -992 76 q -1431 -15 -1286 6 q -1707 -36 -1575 -36 q -1930 -19 -1824 -36 q -2124 37 -2036 -1 q -2280 135 -2212 75 q -2386 283 -2347 196 q -2388 290 -2387 286 q -2389 300 -2389 293 q -2354 336 -2389 336 q -2337 331 -2347 336 q -2317 310 -2326 325 q -2224 184 -2283 236 q -2085 100 -2164 132 q -1910 53 -2006 68 q -1707 39 -1814 39 q -1402 65 -1562 39 q -1078 134 -1242 90 q -758 235 -915 178 q -461 354 -600 292 q -210 481 -322 417 q -25 603 -97 546 l 57 753 l 56 753 q 72 771 61 768 q 90 774 83 774 l 178 774 q 204 764 197 774 q 211 739 211 754 q 204 713 211 726 q 193 693 197 700 l 193 694 l 106 536 q 299 676 211 633 q 449 719 386 719 q 533 690 501 719 q 565 604 565 660 q 549 527 565 574 q 507 435 532 481 q 452 310 474 364 q 431 231 431 256 q 446 211 431 211 q 517 235 472 211 q 617 296 563 258 q 728 379 671 333 q 838 468 786 425 q 931 548 890 511 q 992 603 971 585 z "},"":{"ha":714,"x_min":-2392,"x_max":794,"o":"m 358 615 q 342 506 358 557 q 303 408 326 454 q 496 453 388 410 q 729 603 604 497 q 743 610 735 608 q 757 611 751 611 q 784 600 774 611 q 794 572 794 589 q 790 557 794 567 q 782 543 786 547 q 517 385 643 435 q 294 335 390 335 l 275 335 q 267 335 269 335 q 258 336 264 336 q 105 167 179 218 q -25 115 31 115 q -112 152 -78 115 q -146 253 -146 189 q -111 387 -146 315 q -18 517 -76 458 q -201 394 -90 458 q -451 269 -312 331 q -747 152 -589 207 q -1068 55 -904 97 q -1396 -12 -1232 13 q -1708 -36 -1560 -36 q -1928 -17 -1824 -36 q -2122 41 -2033 1 q -2278 141 -2210 81 q -2386 283 -2346 201 q -2392 300 -2392 293 q -2382 326 -2392 317 q -2357 336 -2372 336 q -2319 310 -2339 336 q -2226 184 -2286 236 q -2087 100 -2167 132 q -1912 53 -2008 68 q -1708 39 -1815 39 q -1394 64 -1558 39 q -1067 131 -1231 89 q -746 228 -903 172 q -453 346 -589 285 q -210 471 -317 407 q -39 593 -103 535 l -39 603 q -22 685 -39 647 q 24 751 -4 724 q 90 795 53 779 q 167 811 126 811 q 258 793 221 811 q 317 747 294 775 q 349 683 339 718 q 358 615 358 649 m 192 525 q 149 503 171 518 q 108 467 126 489 q 162 435 129 449 q 224 415 194 422 q 270 522 256 475 q 285 610 285 569 q 250 698 285 671 q 174 725 215 725 q 124 717 149 725 q 79 693 99 708 q 47 654 60 678 q 35 601 35 631 q 39 564 35 582 q 103 594 75 588 q 153 601 131 601 q 203 587 185 601 q 221 557 221 572 q 192 525 221 533 m 24 211 q 86 243 44 211 q 179 346 128 275 q 117 371 143 357 q 63 408 90 385 q 17 318 33 360 q 1 249 1 276 q 7 222 1 232 q 24 211 13 211 z "},"":{"ha":1028,"x_min":-2390,"x_max":1021,"o":"m 474 500 q 461 425 474 464 q 421 343 449 386 q 546 363 481 349 q 679 406 611 376 q 817 481 747 435 q 953 597 886 528 q 962 608 953 606 q 981 611 971 611 q 1010 601 999 611 q 1021 574 1021 590 q 1017 557 1021 565 q 1011 547 1013 549 l 1011 549 q 837 400 922 456 q 670 315 751 344 q 511 277 589 286 q 360 267 433 268 q 181 132 268 171 q 32 93 94 93 q -69 121 -31 93 q -107 188 -107 149 q -90 237 -107 211 q -33 284 -72 263 q 67 322 6 306 q 219 340 129 338 q 274 426 251 379 q 296 514 296 474 q 286 543 296 531 q 253 556 276 556 q 219 549 240 556 q 176 536 197 543 q 106 510 126 517 q 81 500 85 503 q -202 69 -57 289 q -482 -356 -347 -150 l -482 -354 q -492 -367 -486 -361 q -510 -374 -499 -374 l -596 -374 q -624 -365 -617 -374 q -632 -340 -632 -356 q -619 -300 -632 -325 q -586 -244 -606 -275 l -571 -224 q -555 -201 -562 -212 q -540 -179 -547 -190 l -497 -114 q -479 -82 -490 -99 q -456 -46 -468 -65 l -408 26 q -345 129 -375 81 q -285 225 -315 178 q -223 320 -254 272 q -156 421 -192 368 q -360 313 -246 367 q -603 208 -474 258 q -874 113 -733 157 q -1156 35 -1014 68 q -1439 -17 -1299 1 q -1707 -36 -1579 -36 q -1926 -17 -1821 -36 q -2119 41 -2031 1 q -2275 141 -2207 81 q -2385 283 -2343 201 q -2390 300 -2390 293 q -2380 326 -2390 317 q -2354 336 -2369 336 q -2317 310 -2336 336 q -2224 184 -2283 236 q -2085 100 -2164 132 q -1910 53 -2006 68 q -1707 39 -1814 39 q -1402 65 -1562 39 q -1079 133 -1242 90 q -760 232 -917 175 q -465 351 -603 289 q -214 476 -326 413 q -29 599 -101 540 q 5 644 -12 622 q 37 683 22 667 q 63 710 51 700 q 79 721 74 721 l 165 721 q 192 712 185 721 q 199 688 199 703 q 190 656 199 674 q 169 622 182 639 q 242 637 207 633 q 306 640 276 640 q 431 602 388 640 q 474 500 474 564 m -7 186 q 53 202 15 186 q 135 254 90 218 q 13 224 49 243 q -22 190 -22 206 q -7 186 -22 186 z "},"":{"ha":876,"x_min":-2390,"x_max":950,"o":"m 571 650 q 363 408 465 529 q 188 188 261 286 q 372 233 279 192 q 555 334 465 274 q 729 466 644 394 q 890 603 814 538 l 889 603 q 915 611 897 611 q 940 598 931 611 q 950 572 950 585 q 947 558 950 565 q 938 543 944 550 q 764 398 856 474 q 574 259 672 322 q 372 155 475 196 q 163 114 268 114 l 138 114 l 111 79 q 138 -58 131 7 q 146 -186 146 -124 q 113 -420 146 -318 q 28 -592 79 -522 q -83 -698 -24 -661 q -194 -735 -143 -735 q -292 -691 -253 -735 q -332 -556 -332 -647 q -311 -419 -332 -499 q -243 -238 -290 -340 q -119 -12 -196 -136 q 67 260 -43 113 q 45 258 57 258 q 22 257 33 257 q -76 299 -42 257 q -110 404 -110 342 q -110 428 -110 417 q -107 450 -110 439 q -307 337 -193 394 q -553 225 -421 279 q -832 123 -686 171 q -1127 40 -978 75 q -1424 -16 -1276 4 q -1707 -36 -1572 -36 q -1926 -17 -1822 -36 q -2119 41 -2031 1 q -2275 141 -2207 81 q -2385 283 -2343 201 q -2390 300 -2390 293 q -2381 326 -2390 317 q -2356 336 -2371 336 q -2337 330 -2349 336 q -2317 308 -2326 324 q -2224 183 -2283 235 q -2085 100 -2164 132 q -1910 53 -2006 68 q -1707 39 -1814 39 q -1402 65 -1562 39 q -1079 133 -1242 90 q -759 233 -917 176 q -464 351 -601 289 q -214 478 -326 414 q -31 600 -101 542 q 24 648 -7 625 q 86 688 54 671 q 151 715 118 704 q 214 725 185 725 q 305 703 264 725 q 364 622 346 681 l 447 713 l 463 713 q 477 713 469 713 q 493 714 485 714 q 552 706 524 714 q 581 675 581 699 q 571 649 581 658 l 571 650 m 65 -172 q 63 -94 65 -136 q 53 -8 60 -53 q -137 -357 -82 -219 q -192 -567 -192 -494 q -180 -623 -192 -606 q -149 -640 -168 -640 q -83 -609 -119 -640 q -12 -518 -46 -578 q 43 -371 21 -458 q 65 -172 65 -283 m 185 415 q 204 436 194 425 q 225 461 214 447 l 242 482 q 271 519 257 501 q 301 554 285 536 q 299 574 301 561 q 292 600 297 588 q 277 622 286 613 q 256 631 268 631 q 185 600 224 631 q 112 527 146 569 q 55 440 78 485 q 32 365 32 394 q 53 349 32 349 q 99 358 71 349 q 164 388 126 367 l 161 386 l 185 415 z "},"":{"ha":704,"x_min":-2392,"x_max":781,"o":"m 24 546 l 25 546 q -144 419 -35 486 q -394 288 -253 353 q -701 165 -536 224 q -1039 62 -867 107 q -1383 -10 -1211 17 q -1708 -36 -1554 -36 q -1928 -17 -1824 -36 q -2122 41 -2033 1 q -2278 141 -2210 81 q -2386 283 -2346 201 q -2392 300 -2392 293 q -2357 336 -2392 336 q -2319 310 -2339 336 q -2226 184 -2286 236 q -2087 100 -2167 132 q -1912 53 -2008 68 q -1708 39 -1815 39 q -1391 65 -1557 39 q -1059 133 -1225 90 q -735 233 -893 176 q -440 353 -576 290 q -197 480 -304 415 q -29 603 -90 544 l 90 706 q 90 719 89 713 q 90 729 90 725 q 102 802 90 771 q 131 853 114 833 q 170 884 149 874 q 211 894 192 894 q 256 878 238 894 q 275 831 275 861 q 263 783 275 811 q 218 722 250 756 q 225 714 224 717 q 246 685 233 699 l 246 686 l 250 681 q 292 623 274 651 q 311 567 311 594 q 293 514 311 540 q 244 442 271 483 q 195 358 218 400 q 157 281 172 317 q 142 224 142 244 q 157 207 142 207 q 243 232 192 207 q 351 296 294 257 q 467 381 408 335 q 576 472 526 428 q 663 550 626 515 q 713 599 700 585 q 726 608 718 604 q 742 613 735 613 q 767 601 754 613 q 781 574 781 590 q 776 558 781 567 q 769 547 771 550 q 723 504 760 539 q 631 423 686 469 q 510 324 576 376 q 374 228 443 272 q 240 156 306 185 q 124 126 175 126 q 32 162 61 126 q 3 246 3 197 q 18 329 3 285 q 56 417 33 374 q 102 498 78 460 q 144 561 126 536 q 108 624 122 592 l 24 546 z "},"":{"ha":578,"x_min":-2394,"x_max":658,"o":"m 161 401 q 265 427 211 413 q 374 465 319 442 q 484 521 429 488 q 590 603 539 554 q 601 609 593 606 q 618 613 608 613 q 645 601 632 613 q 658 574 658 590 q 655 560 658 568 q 646 546 651 553 q 531 457 589 493 q 413 397 472 421 q 297 358 354 372 q 185 332 239 343 q 160 327 172 329 q 135 322 149 325 q 137 284 138 304 q 136 249 136 264 q 125 162 136 207 q 90 78 114 117 q 26 16 65 40 q -67 -8 -12 -8 q -160 32 -125 -8 q -196 135 -196 72 q -186 192 -196 163 q -155 251 -176 222 q -100 306 -133 281 q -21 353 -67 332 q -31 427 -25 389 q -37 501 -37 465 q -225 379 -112 442 q -474 257 -337 317 q -767 144 -611 197 q -1083 51 -922 90 q -1404 -12 -1244 11 q -1711 -36 -1564 -36 q -1930 -17 -1825 -36 q -2123 41 -2035 1 q -2279 141 -2211 81 q -2389 283 -2347 201 q -2394 300 -2394 293 q -2384 326 -2394 317 q -2358 336 -2374 336 q -2341 331 -2351 336 q -2321 310 -2331 325 q -2228 184 -2287 236 q -2089 100 -2168 132 q -1914 53 -2010 68 q -1711 39 -1818 39 q -1397 64 -1561 39 q -1069 131 -1233 89 q -747 229 -904 174 q -454 347 -590 285 q -210 472 -318 408 q -37 594 -103 536 q -22 672 -35 636 q 11 735 -8 708 q 55 776 31 761 q 104 792 79 792 q 149 775 132 792 q 167 729 167 758 q 152 677 167 707 q 97 613 138 647 q 98 583 97 599 q 101 544 99 568 q 108 485 103 521 q 125 393 114 449 l 161 401 m -87 90 q -39 131 -61 90 q -17 269 -17 172 l -17 272 q -99 203 -78 240 q -121 140 -121 167 q -110 104 -121 118 q -87 90 -100 90 z "},"":{"ha":547,"x_min":-1078,"x_max":1203,"o":"m 750 1182 q 1009 1162 893 1182 q 1190 1085 1125 1142 q 1203 1056 1203 1072 q 1192 1028 1203 1039 q 1164 1018 1181 1018 q 1149 1020 1157 1018 q 1139 1028 1142 1022 q 982 1088 1085 1068 q 758 1107 879 1107 q 665 1106 710 1107 q 572 1101 621 1104 l 560 1101 q 517 1049 549 1088 q 442 956 486 1011 q 347 833 399 901 q 244 693 296 765 q 143 549 192 621 q 57 415 94 478 q -3 301 19 351 q -26 221 -26 250 q -10 203 -26 203 q 76 228 25 203 q 186 293 128 254 q 304 380 244 332 q 415 472 364 428 q 504 551 467 515 q 556 600 542 586 q 566 608 560 604 q 582 613 572 613 q 607 599 594 613 q 619 574 619 586 q 615 558 619 567 q 608 547 610 550 q 566 508 601 542 q 476 427 531 474 q 355 327 422 381 q 218 229 288 274 q 83 155 149 185 q -35 125 17 125 q -118 154 -87 125 q -149 242 -149 183 q -119 365 -149 293 q -44 519 -90 438 q 60 685 3 600 q 176 848 118 771 q 284 989 233 925 q 367 1092 335 1053 q 308 1086 338 1089 q 250 1081 278 1083 q 84 1067 175 1074 q -105 1053 -7 1060 q -303 1043 -203 1047 q -496 1039 -403 1039 q -721 1047 -615 1039 q -906 1075 -826 1056 q -1031 1128 -985 1094 q -1078 1213 -1078 1163 q -1069 1239 -1078 1228 q -1047 1251 -1061 1250 q -1004 1219 -1007 1251 q -944 1172 -990 1192 q -828 1140 -897 1153 q -672 1122 -760 1128 q -487 1117 -585 1117 q -283 1121 -387 1117 q -76 1131 -178 1125 q 117 1143 25 1136 q 283 1157 208 1150 l 436 1169 l 457 1197 l 461 1204 l 461 1203 q 490 1236 479 1224 q 511 1256 501 1249 q 530 1265 521 1263 q 551 1267 539 1267 l 589 1267 q 595 1266 592 1267 q 601 1265 599 1265 l 625 1265 q 663 1233 663 1265 q 633 1181 663 1210 q 692 1182 664 1182 q 750 1182 721 1182 z "},"":{"ha":918,"x_min":-2390,"x_max":993,"o":"m 322 204 q 397 224 351 204 q 495 276 442 243 q 606 349 549 308 q 719 431 664 389 q 824 513 775 474 q 911 583 874 553 l 932 603 q 957 611 940 611 q 983 597 972 611 q 993 572 993 583 q 989 553 993 560 q 982 543 985 546 l 974 539 l 953 524 q 865 453 917 494 q 753 368 814 413 q 628 281 693 324 q 501 203 564 238 q 382 147 439 168 q 282 125 325 125 q 192 160 218 125 q 165 244 165 196 q 184 338 165 286 q 231 438 203 389 q 172 396 203 417 q 109 358 140 375 q 47 331 78 342 q -10 321 17 321 q -79 349 -56 321 q -103 418 -103 378 q -99 456 -103 436 q -298 342 -183 400 q -546 228 -412 283 q -826 126 -679 174 q -1123 42 -972 78 q -1422 -15 -1274 6 q -1707 -36 -1571 -36 q -1926 -17 -1821 -36 q -2119 41 -2031 1 q -2275 141 -2207 81 q -2385 283 -2343 201 q -2390 300 -2390 293 q -2380 326 -2390 317 q -2354 336 -2369 336 q -2317 310 -2336 336 q -2224 184 -2283 236 q -2085 100 -2164 132 q -1910 53 -2006 68 q -1707 39 -1814 39 q -1402 65 -1562 39 q -1080 133 -1242 90 q -760 232 -918 175 q -465 351 -603 289 q -215 476 -326 413 q -31 599 -103 540 q 6 649 -14 624 q 44 697 25 674 q 80 738 63 719 q 110 769 97 757 l 203 769 q 240 736 240 769 q 232 711 240 725 q 211 682 224 697 q 163 617 192 657 q 107 536 135 578 q 58 458 79 494 q 33 401 36 421 q 80 424 49 406 q 156 474 111 443 q 242 544 199 507 q 321 613 286 581 q 342 629 331 621 q 361 646 353 638 l 360 646 l 368 654 q 381 665 374 658 q 396 678 389 671 q 413 693 404 685 l 514 696 q 542 687 535 696 q 550 663 550 678 q 535 626 550 647 q 506 588 519 606 q 450 509 485 558 q 383 406 415 460 q 326 303 350 353 q 303 225 303 254 q 322 204 303 204 z "},"":{"ha":769,"x_min":-2390,"x_max":842,"o":"m -15 622 l -6 635 l -6 633 l 3 647 q 29 682 17 667 q 53 697 42 697 l 140 697 q 168 688 158 697 q 178 664 178 679 q 165 630 178 649 q 140 597 153 611 l 140 599 l 133 583 q 51 472 88 526 q -10 372 15 418 q -49 289 -35 325 q -62 231 -62 253 q -53 214 -62 214 q 35 248 -24 214 q 199 368 94 282 q 194 388 196 378 q 193 410 193 399 q 211 482 193 447 q 256 542 229 517 q 313 584 283 568 q 367 600 343 600 q 416 582 403 600 q 429 544 429 564 q 416 499 429 524 q 383 451 403 475 q 342 403 364 426 q 306 364 321 381 l 301 360 q 318 358 308 358 q 336 357 328 357 q 440 375 385 357 q 539 417 496 393 q 658 490 597 443 q 776 599 718 536 q 790 608 782 604 q 806 613 799 613 q 831 602 821 613 q 842 574 842 592 q 831 547 842 556 q 724 454 785 501 q 598 369 664 407 q 466 307 532 331 q 342 283 400 283 q 288 288 314 283 q 240 308 261 292 q 173 256 214 286 q 85 197 132 225 q -9 149 39 168 q -97 129 -57 129 q -146 140 -125 129 q -181 167 -167 150 q -201 204 -194 183 q -208 246 -208 225 q -192 331 -208 286 q -147 424 -175 375 q -353 316 -237 371 q -601 210 -469 261 q -874 114 -732 158 q -1158 36 -1015 69 q -1441 -17 -1301 3 q -1707 -36 -1581 -36 q -1927 -17 -1822 -36 q -2120 41 -2032 1 q -2276 141 -2208 81 q -2385 283 -2344 201 q -2390 300 -2390 293 q -2381 326 -2390 317 q -2357 336 -2372 336 q -2338 330 -2350 336 q -2315 306 -2326 324 q -2223 181 -2282 232 q -2085 99 -2164 131 q -1911 53 -2007 68 q -1707 39 -1815 39 q -1397 65 -1560 39 q -1070 133 -1235 90 q -748 233 -906 176 q -453 351 -590 289 q -207 478 -317 414 q -31 601 -97 543 l -15 622 z "},"":{"ha":1183,"x_min":-2386,"x_max":1258,"o":"m 754 349 q 865 377 801 349 q 992 446 929 406 q 1110 528 1056 486 q 1192 597 1164 569 q 1203 607 1194 601 q 1221 613 1211 613 q 1247 602 1236 613 q 1258 574 1258 592 q 1247 547 1258 556 q 1153 467 1213 514 q 1025 379 1094 421 q 884 308 956 338 q 754 278 813 278 q 701 285 726 278 q 654 308 676 292 q 588 256 629 286 q 501 197 547 225 q 408 149 456 168 q 321 129 360 129 q 268 140 289 129 q 234 167 247 150 q 215 204 221 183 q 210 246 210 225 q 218 306 210 274 q 239 368 226 338 q 167 310 206 339 q 90 257 129 281 q 10 218 50 233 q -64 203 -29 203 q -111 212 -92 203 q -142 236 -131 221 q -160 270 -154 251 q -165 308 -165 289 q -157 365 -165 333 q -132 433 -149 397 q -328 322 -217 378 q -570 213 -440 265 q -842 116 -700 161 q -1131 37 -985 71 q -1422 -17 -1276 3 q -1703 -36 -1568 -36 q -1923 -17 -1818 -36 q -2116 41 -2028 1 q -2272 141 -2204 81 q -2381 283 -2340 201 q -2386 300 -2386 293 q -2351 336 -2386 336 q -2335 331 -2344 336 q -2314 310 -2325 325 q -2221 184 -2281 236 q -2082 100 -2161 132 q -1906 53 -2003 68 q -1703 39 -1810 39 q -1398 65 -1558 39 q -1075 133 -1237 90 q -756 233 -912 176 q -460 351 -599 289 q -211 478 -322 414 q -28 600 -100 542 q -20 611 -24 606 q -12 621 -17 617 l 6 643 l 39 690 q 64 697 42 693 q 114 700 86 700 q 163 692 140 700 q 186 660 186 683 q 184 653 186 657 q 179 643 182 649 l 172 629 l 163 618 l 163 619 l 146 593 q 90 516 122 561 q 29 425 58 471 q -20 340 0 379 q -40 281 -40 301 l -40 279 q 46 318 -19 279 q 121 369 82 339 q 198 433 160 400 q 271 498 236 465 q 333 557 306 531 l 332 557 l 349 575 l 365 589 q 397 617 381 604 q 421 629 413 629 l 508 629 q 535 620 528 629 q 542 596 542 611 q 525 551 542 576 q 489 501 508 526 l 479 488 l 443 438 q 413 388 431 417 q 381 328 396 358 q 355 269 365 297 q 344 225 344 242 q 353 211 344 211 q 406 227 374 211 q 476 267 439 243 q 549 319 513 292 q 613 368 585 346 q 608 388 610 378 q 607 410 607 399 q 626 482 607 447 q 672 543 644 517 q 729 585 699 569 q 785 601 760 601 q 825 586 810 601 q 840 539 840 571 q 828 493 840 517 q 799 447 817 469 q 758 401 781 424 q 715 357 736 378 q 733 351 724 354 q 754 349 743 349 z "},"":{"ha":747,"x_min":-2260,"x_max":646,"o":"m 585 711 l 583 711 q 594 717 589 717 q 608 718 599 718 q 633 707 619 718 q 646 679 646 696 l 646 665 q 643 660 646 663 l 267 357 q 292 279 278 310 q 319 229 306 249 q 347 199 333 210 q 371 179 360 188 q 374 175 371 178 q 372 178 374 175 l 372 179 q 396 163 388 171 q 404 143 404 156 q 389 113 404 124 q 347 101 374 101 q 299 109 326 101 q 243 135 271 117 q 188 185 215 154 q 143 263 161 217 l -165 17 l -164 17 q -187 10 -171 10 q -215 21 -204 10 q -226 49 -226 32 l -226 57 q -225 65 -229 63 l 119 342 q 94 517 100 422 q -88 396 22 458 q -335 274 -199 333 q -626 160 -471 214 q -943 67 -782 107 q -1266 3 -1104 26 q -1576 -21 -1428 -21 q -1795 -2 -1690 -21 q -1988 56 -1900 17 q -2144 156 -2076 96 q -2254 299 -2212 217 q -2260 315 -2260 308 q -2249 340 -2260 332 q -2224 349 -2239 349 q -2207 344 -2217 349 q -2186 325 -2197 339 q -2093 199 -2153 251 q -1954 115 -2033 147 q -1779 67 -1875 82 q -1576 53 -1683 53 q -1262 78 -1426 53 q -935 144 -1099 103 q -615 242 -771 186 q -323 360 -458 299 q -80 485 -187 421 q 93 607 28 549 l 93 626 q 107 656 93 649 q 147 663 121 663 l 163 663 q 190 662 175 663 q 219 657 206 661 q 241 644 232 653 q 250 619 250 636 q 250 603 250 613 q 249 588 250 594 l 249 589 q 247 556 247 574 q 246 519 246 539 q 247 483 246 503 q 250 440 247 464 l 585 711 z "},"":{"ha":979,"x_min":-2389,"x_max":1056,"o":"m 622 643 q 530 458 575 543 q 436 294 485 374 q 734 413 592 342 q 988 597 876 483 q 989 603 988 601 q 999 609 992 606 q 1018 613 1007 613 q 1043 601 1031 613 q 1056 574 1056 590 q 1051 558 1056 565 q 1046 549 1047 550 l 1046 550 q 897 422 976 476 q 733 327 818 368 q 557 256 647 286 q 376 200 467 225 q 165 -60 272 51 q -40 -248 58 -172 q -220 -362 -137 -324 q -358 -400 -303 -400 q -472 -362 -432 -400 q -512 -265 -512 -325 q -452 -112 -512 -199 q -256 60 -392 -25 q -131 122 -200 93 q 6 172 -61 150 q 129 210 74 194 q 211 233 185 226 q 216 234 214 233 q 219 235 218 235 l 222 235 q 293 347 258 288 q 360 460 328 406 q 274 384 319 422 q 180 316 228 346 q 85 267 132 286 q -1 249 39 249 q -92 278 -67 249 q -117 356 -117 308 q -112 403 -117 379 q -99 453 -107 428 q -297 340 -183 397 q -544 228 -411 282 q -825 125 -678 174 q -1123 41 -972 76 q -1422 -15 -1274 6 q -1707 -36 -1571 -36 q -1930 -19 -1824 -36 q -2124 37 -2036 -1 q -2280 135 -2212 75 q -2386 283 -2347 196 q -2388 290 -2387 286 q -2389 300 -2389 293 q -2354 336 -2389 336 q -2337 331 -2347 336 q -2317 310 -2326 325 q -2224 184 -2283 236 q -2085 100 -2164 132 q -1910 53 -2006 68 q -1707 39 -1814 39 q -1401 65 -1562 39 q -1078 134 -1240 90 q -757 235 -915 178 q -460 354 -599 292 q -210 481 -322 417 q -25 603 -97 546 q 21 676 -3 642 q 65 738 44 711 q 100 778 85 764 q 121 793 115 793 l 207 793 q 244 761 244 793 q 231 724 244 744 q 197 675 218 704 l 197 676 q 189 659 190 663 q 185 656 188 656 q 129 581 157 621 q 83 506 101 540 q 21 343 21 394 q 32 331 21 331 q 110 354 64 331 q 206 413 156 378 q 308 490 257 449 q 398 566 358 531 q 463 625 438 601 q 489 650 489 649 q 515 673 493 656 q 562 700 538 690 q 606 704 586 710 q 626 661 626 699 q 626 658 626 660 q 622 643 625 656 m -378 -304 q -285 -281 -340 -304 q -160 -205 -229 -257 q -11 -68 -92 -153 q 158 140 69 17 q -42 76 54 111 q -211 -1 -139 42 q -378 -147 -324 -76 q -432 -257 -432 -217 q -417 -292 -432 -281 q -378 -304 -403 -304 z "},"":{"ha":1099,"x_min":-2389,"x_max":1088,"o":"m 217 431 q 297 278 288 368 q 502 331 400 303 q 698 395 604 358 q 875 481 792 432 q 1024 600 958 531 q 1051 613 1033 613 q 1077 602 1067 613 q 1088 575 1088 592 q 1084 558 1088 567 q 1079 549 1081 550 l 1079 550 q 916 419 1007 474 q 724 326 825 365 q 514 258 622 286 q 297 204 406 229 q 249 47 289 128 q 154 -108 210 -35 q 35 -240 99 -181 q -85 -332 -28 -299 q -219 -390 -153 -371 q -333 -410 -285 -410 q -488 -358 -432 -410 q -544 -228 -544 -307 q -507 -101 -544 -165 q -387 26 -469 -36 q -176 143 -306 88 q 136 243 -47 199 q 126 301 136 276 q 103 344 117 325 q 74 376 90 363 q 46 400 58 389 l 47 400 q 43 403 46 400 l 42 404 q 27 417 33 411 q 21 436 21 424 q 28 448 21 442 q 46 461 35 454 q 104 505 78 479 q 150 558 131 531 q 181 610 169 585 q 192 653 192 635 q 185 667 192 667 q 129 640 168 667 q 29 551 90 614 l 21 547 q -153 424 -43 489 q -402 293 -262 358 q -705 169 -542 228 q -1039 64 -868 110 q -1381 -9 -1210 18 q -1706 -36 -1551 -36 q -1924 -17 -1819 -36 q -2117 41 -2029 1 q -2274 141 -2206 81 q -2383 283 -2342 201 q -2389 300 -2389 293 q -2379 326 -2389 317 q -2354 336 -2369 336 q -2337 331 -2347 336 q -2317 310 -2326 325 q -2223 184 -2282 236 q -2085 100 -2164 132 q -1909 53 -2006 68 q -1706 39 -1812 39 q -1397 65 -1560 39 q -1072 134 -1235 90 q -751 235 -908 178 q -455 354 -593 292 q -206 481 -317 417 q -26 603 -96 546 q 124 718 53 678 q 239 758 194 758 q 319 727 290 758 q 349 643 349 696 q 339 592 349 619 q 311 537 329 565 q 269 481 293 508 q 217 431 246 453 m -167 -237 q -65 -151 -112 -199 q 20 -51 -18 -103 q 85 56 58 1 q 124 161 111 110 q -151 72 -39 122 q -334 -33 -264 21 q -436 -137 -404 -86 q -468 -229 -468 -189 q -441 -292 -468 -268 q -365 -317 -414 -317 q -274 -298 -324 -317 q -167 -237 -225 -279 z "},"":{"ha":879,"x_min":-53,"x_max":2767,"o":"m 440 264 q 664 397 540 332 q 926 518 788 461 q 1212 623 1064 575 q 1509 705 1360 671 q 1804 758 1658 739 q 2085 778 1950 778 q 2309 760 2203 778 q 2503 705 2415 743 q 2657 606 2590 667 q 2763 458 2724 546 l 2761 458 q 2766 447 2765 450 q 2767 440 2767 443 q 2758 418 2767 428 q 2733 408 2749 408 q 2696 436 2715 408 q 2603 560 2663 508 q 2464 644 2543 613 q 2288 692 2385 676 q 2085 707 2192 707 q 1823 688 1961 707 q 1543 634 1685 668 q 1260 554 1401 600 q 987 456 1118 508 q 739 348 856 404 q 531 238 622 292 q 389 158 461 189 q 264 126 317 126 q 175 162 204 126 q 146 246 146 197 q 151 297 146 269 q 168 351 157 324 q 108 329 136 336 q 58 322 79 322 q -26 356 1 322 q -53 443 -53 390 q -39 515 -53 476 q 0 590 -25 554 q 97 686 38 646 q 231 726 157 726 q 300 709 267 726 q 353 650 333 692 q 354 651 353 650 l 354 650 q 385 686 374 675 q 422 697 396 697 l 494 697 q 524 688 517 697 q 531 664 531 679 q 514 622 531 644 q 483 585 497 600 l 479 578 l 475 572 l 475 574 q 406 482 442 532 q 339 383 369 432 q 288 292 308 335 q 268 225 268 250 q 290 200 268 200 q 349 216 313 200 q 440 264 385 232 m 267 532 q 274 540 271 535 q 281 549 278 544 l 296 569 q 282 623 293 607 q 256 639 271 639 q 195 617 228 639 q 133 562 163 594 q 85 492 104 529 q 65 425 65 454 q 78 400 65 400 q 129 417 100 400 q 187 455 158 433 q 237 498 215 476 q 267 531 258 519 l 267 532 z "},"":{"ha":807,"x_min":-139,"x_max":1311,"o":"m -56 229 q -40 278 -56 251 q 8 330 -25 304 q 94 378 42 356 q 221 418 146 401 q 237 459 232 442 q 242 489 242 476 q 224 508 242 508 q 189 501 208 508 q 149 483 169 494 q 106 457 128 471 q 65 431 83 443 l 47 403 l 47 404 l 42 394 l 32 375 q 10 346 21 358 q -18 333 -1 333 l -104 333 q -139 364 -139 333 q -133 388 -139 374 q -117 418 -126 403 q -97 449 -108 433 q -78 475 -86 464 l 0 590 q 106 735 50 660 q 223 887 163 811 q 344 1033 283 963 q 463 1165 404 1104 q 733 1376 606 1311 q 947 1442 861 1442 q 1062 1408 1019 1442 q 1104 1314 1104 1374 q 1053 1197 1104 1265 q 901 1050 1003 1128 q 646 892 799 972 q 289 742 493 813 l 254 697 l 221 653 q 192 617 206 636 q 164 578 178 599 q 221 597 194 592 q 267 603 247 603 q 361 567 329 603 q 393 476 393 531 q 393 458 393 465 q 390 442 393 450 q 510 450 450 447 q 631 453 571 453 q 853 436 747 453 q 1047 382 958 419 q 1201 285 1135 344 q 1307 140 1268 225 q 1310 124 1310 128 q 1311 119 1311 121 q 1302 94 1311 104 q 1278 83 1293 83 q 1239 111 1258 83 q 1146 236 1206 185 q 1008 320 1086 288 q 833 367 929 353 q 631 382 738 382 q 497 376 565 382 q 357 360 428 371 q 281 254 319 297 q 203 185 242 211 q 127 148 164 160 q 60 136 90 136 q -24 161 7 136 q -56 229 -56 186 m 1028 1313 q 1017 1344 1028 1329 q 988 1365 1007 1358 q 819 1289 904 1344 q 655 1160 735 1233 q 503 1006 575 1088 q 374 854 432 925 q 676 982 551 917 q 878 1108 800 1047 q 992 1222 957 1169 q 1028 1313 1028 1275 m 36 238 q 88 258 54 238 q 161 325 122 278 q 58 276 88 301 q 28 239 28 251 q 36 238 28 238 z "},"":{"ha":601,"x_min":-137,"x_max":2468,"o":"m 226 317 l 225 317 q 428 424 314 369 q 673 531 543 479 q 944 627 803 582 q 1228 706 1085 672 q 1515 758 1372 739 q 1788 778 1657 778 q 2010 760 1904 778 q 2205 705 2117 743 q 2360 606 2293 667 q 2465 458 2426 546 q 2468 447 2468 451 q 2468 440 2468 443 q 2460 418 2468 428 q 2436 408 2451 408 q 2397 436 2417 408 q 2304 560 2364 508 q 2165 644 2244 613 q 1990 692 2086 676 q 1788 707 1894 707 q 1524 685 1663 707 q 1241 628 1385 664 q 954 545 1097 593 q 680 444 811 497 q 433 337 549 392 q 228 231 317 282 q 101 169 167 194 q -12 143 35 143 q -110 178 -82 143 q -137 269 -137 213 q -127 345 -137 304 q -98 428 -117 386 q -54 511 -79 469 q 0 590 -29 553 q 103 693 49 653 q 206 733 157 733 q 247 724 229 733 q 278 701 265 715 q 297 669 290 686 q 303 633 303 651 q 292 579 303 608 q 262 519 281 550 q 218 458 243 489 q 164 403 193 428 q 151 394 158 397 q 139 392 143 392 q 113 402 122 392 q 101 428 103 413 q 106 449 101 444 q 146 489 124 467 q 187 536 168 511 q 218 585 206 561 q 232 632 231 610 q 180 590 208 617 q 123 528 151 563 q 68 456 94 494 q 22 381 42 418 q -11 308 1 343 q -24 247 -24 274 q 17 217 -24 217 q 95 241 49 217 q 194 299 142 265 l 226 317 z "},"":{"ha":921,"x_min":-51,"x_max":2731,"o":"m 342 208 q 390 219 363 208 q 457 253 417 231 l 456 253 q 658 365 543 308 q 905 475 772 422 q 1182 575 1038 528 q 1474 657 1326 622 q 1769 712 1622 692 q 2050 732 1915 732 q 2273 715 2167 732 q 2467 659 2379 697 q 2622 560 2556 621 q 2726 415 2689 500 l 2725 415 q 2730 403 2729 407 q 2731 397 2731 400 q 2722 372 2731 382 q 2697 361 2713 361 q 2660 389 2678 361 q 2566 514 2625 463 q 2428 598 2507 565 q 2253 645 2349 631 q 2050 660 2157 660 q 1788 639 1926 660 q 1506 583 1650 618 q 1219 500 1363 547 q 944 400 1076 453 q 695 292 811 347 q 489 186 579 238 q 397 142 443 158 q 319 126 350 126 q 211 163 242 126 q 181 253 181 200 q 185 308 181 281 q 200 365 190 336 q 126 333 158 342 q 65 324 93 324 q -22 359 8 324 q -51 447 -51 394 q -37 517 -51 481 q 0 590 -24 554 q 97 686 38 646 q 231 726 157 726 q 301 711 268 726 q 351 656 333 696 q 624 1005 486 861 q 890 1238 763 1149 q 1126 1368 1017 1328 q 1314 1408 1236 1408 q 1432 1378 1389 1408 q 1475 1294 1475 1347 q 1433 1194 1475 1254 q 1319 1074 1390 1133 q 1143 960 1238 1010 q 958 873 1049 910 q 790 811 868 836 q 664 774 713 786 q 622 768 628 772 q 613 761 615 764 q 572 715 599 750 q 514 633 546 681 q 448 528 482 585 q 386 417 414 471 q 340 315 358 363 q 322 236 322 267 q 342 208 322 208 m 1353 1321 q 1207 1283 1289 1321 q 1038 1180 1125 1244 q 861 1031 950 1115 q 693 856 772 947 q 845 907 767 878 q 999 972 924 936 q 1147 1047 1075 1007 q 1278 1129 1218 1086 q 1371 1225 1339 1182 q 1403 1292 1403 1268 q 1353 1321 1403 1321 m 79 421 q 90 406 79 406 q 131 417 107 406 q 179 443 154 428 q 226 476 204 458 q 263 506 249 493 q 266 512 260 503 q 275 525 272 521 q 278 531 275 526 q 292 555 285 542 q 299 582 299 568 q 285 620 299 608 q 253 632 272 632 q 190 609 221 632 q 135 553 160 586 q 94 483 110 519 q 79 421 79 447 z "},"":{"ha":600,"x_min":-133,"x_max":2465,"o":"m 174 286 q 385 401 267 343 q 638 514 504 460 q 918 615 772 568 q 1212 698 1064 663 q 1505 753 1360 733 q 1785 774 1650 774 q 2008 756 1901 774 q 2202 701 2114 739 q 2357 602 2290 663 q 2463 454 2424 542 q 2465 443 2465 447 q 2465 438 2465 439 q 2457 414 2465 424 q 2433 404 2449 404 q 2394 432 2414 404 q 2302 556 2361 504 q 2164 640 2243 608 q 1988 688 2085 672 q 1785 703 1892 703 q 1513 682 1656 703 q 1225 625 1371 661 q 935 542 1079 589 q 660 440 792 494 q 412 330 528 386 q 207 219 296 274 q 77 153 135 174 q -21 132 19 132 q -108 167 -83 132 q -133 260 -133 203 q -123 338 -133 296 q -94 424 -112 381 q -52 511 -76 468 q 0 590 -28 554 q 91 681 43 646 q 183 715 139 715 q 251 691 232 715 q 269 632 269 667 q 240 543 269 583 q 172 472 211 503 q 95 420 133 440 q 40 393 57 400 q 28 368 35 383 q 15 336 21 353 q 6 301 10 319 q 3 268 3 283 q 10 242 3 253 q 36 231 18 231 q 90 244 56 231 q 174 286 124 257 m 179 624 q 142 597 160 617 q 108 551 125 578 q 77 496 92 525 q 50 440 63 467 q 128 488 92 454 q 185 554 164 521 q 208 610 207 588 q 179 624 210 632 z "},"":{"ha":806,"x_min":-276,"x_max":2079,"o":"m -7 251 l -40 171 q 278 314 101 243 q 647 440 456 385 q 1031 530 838 496 q 1397 564 1224 564 q 1622 547 1515 564 q 1816 492 1728 529 q 1970 394 1904 454 q 2075 247 2036 333 l 2074 247 q 2078 237 2078 240 q 2079 231 2079 233 q 2070 205 2079 215 q 2046 194 2061 194 q 2008 222 2028 194 q 1915 347 1975 296 q 1776 431 1856 399 q 1601 478 1697 464 q 1397 493 1504 493 q 1151 476 1279 493 q 894 431 1024 460 q 634 365 764 403 q 383 281 504 326 q 151 188 261 236 q -49 90 42 139 q -51 -12 -49 44 q -68 -119 -54 -69 q -109 -201 -82 -168 q -183 -235 -136 -235 q -258 -199 -239 -235 q -276 -114 -276 -164 q -272 -56 -276 -86 q -262 2 -268 -26 q -249 55 -256 31 q -236 96 -242 79 q -141 326 -201 196 q 0 590 -81 456 q 143 808 67 701 q 301 1004 219 915 q 469 1155 383 1093 q 642 1239 556 1217 q 694 1244 665 1244 q 777 1218 747 1244 q 807 1143 807 1192 q 763 1044 807 1106 q 636 906 719 982 q 431 746 553 831 q 151 576 308 661 q 80 441 119 517 q 8 288 40 365 l -7 251 m 232 694 q 610 953 488 836 q 732 1140 732 1071 q 717 1153 732 1153 q 679 1144 701 1153 q 633 1125 657 1136 q 588 1101 610 1114 q 551 1079 565 1089 q 490 1026 522 1057 q 426 958 458 994 q 363 882 394 922 q 304 803 331 842 l 232 694 m -140 -150 q -119 -133 -129 -149 q -101 -91 -108 -117 q -89 -31 -93 -65 q -86 42 -85 4 q -104 -6 -96 22 q -140 -150 -122 -57 z "},"":{"ha":922,"x_min":-633,"x_max":1413,"o":"m -524 -396 q -606 -351 -578 -387 q -633 -265 -633 -315 q -574 -112 -633 -197 q -375 60 -515 -28 q -252 122 -322 93 q -115 173 -182 150 q 10 212 -47 196 q 93 235 67 228 q 98 235 96 235 q 101 236 100 236 l 104 236 q 145 294 129 269 q 182 353 161 318 q 119 329 149 336 q 64 322 89 322 q -22 358 6 322 q -50 447 -50 393 q 0 590 -50 517 q 97 686 38 646 q 229 726 157 726 q 291 713 261 726 q 342 668 321 699 q 356 689 349 683 q 381 694 364 694 q 392 694 385 694 q 404 692 400 693 l 406 690 q 411 689 410 690 l 413 689 q 441 682 425 686 q 485 675 457 678 q 503 664 497 675 q 503 644 508 653 l 504 646 q 406 456 458 550 q 301 274 354 361 q 520 308 414 297 q 731 318 626 318 q 955 301 849 318 q 1149 245 1061 283 q 1304 147 1238 207 q 1408 -1 1371 86 l 1407 -1 q 1412 -13 1411 -10 q 1413 -19 1413 -17 q 1381 -51 1413 -51 q 1342 -31 1361 -51 q 1249 97 1308 44 q 1110 181 1189 149 q 934 228 1031 214 q 731 243 838 243 q 249 185 503 243 q 194 108 232 161 q 102 -10 156 56 q -19 -144 49 -75 q -161 -269 -86 -212 q -316 -363 -236 -326 q -476 -400 -396 -400 q -524 -396 -503 -400 m -500 -304 q -406 -281 -461 -304 q -281 -203 -350 -257 q -130 -65 -211 -150 q 40 142 -49 19 q -162 78 -64 114 q -333 -1 -261 42 q -501 -145 -447 -75 q -556 -256 -556 -215 q -500 -304 -556 -304 m 176 593 q 107 506 132 549 q 82 433 82 463 q 101 408 82 408 q 169 436 124 408 q 264 508 214 464 l 263 506 l 297 569 l 296 568 q 297 582 297 574 q 284 618 297 606 q 251 631 271 631 q 217 622 238 631 q 176 593 197 613 z "},"":{"ha":972,"x_min":-131,"x_max":2747,"o":"m 478 253 q 681 361 565 306 q 928 470 796 417 q 1203 571 1060 524 q 1494 654 1347 618 q 1787 711 1642 690 q 2065 732 1932 732 q 2290 715 2183 732 q 2484 659 2396 697 q 2639 560 2572 621 q 2744 415 2706 500 l 2743 415 q 2747 403 2746 407 q 2747 397 2747 400 q 2739 372 2747 382 q 2715 361 2731 361 q 2694 369 2706 361 q 2674 393 2683 376 q 2581 517 2640 465 q 2444 599 2522 568 q 2269 645 2365 631 q 2065 660 2174 660 q 1792 639 1935 660 q 1505 583 1650 618 q 1218 500 1360 547 q 947 400 1076 453 q 703 292 817 347 q 504 188 590 238 q 446 158 478 174 q 380 128 414 142 q 313 107 346 115 q 251 99 279 99 q 179 122 207 99 q 151 188 151 144 q 159 233 151 208 q 178 284 167 257 q 203 340 189 311 q 233 396 218 368 q 258 438 243 415 q 285 485 272 461 q 306 531 297 508 q 315 575 315 554 q 260 549 296 572 q 184 495 225 526 q 103 430 143 464 q 38 372 64 396 q 8 349 22 358 q -11 336 -6 339 q -28 333 -17 333 q -51 333 -40 333 q -94 341 -75 333 q -128 369 -114 349 l -128 368 q -129 383 -131 371 q -125 397 -128 394 l -128 396 q -70 488 -103 439 q 0 590 -37 538 q 110 742 51 664 q 231 897 169 821 q 353 1043 292 972 q 471 1172 414 1114 q 611 1299 543 1247 q 742 1385 679 1351 q 858 1433 804 1418 q 956 1449 913 1449 q 1068 1415 1028 1449 q 1108 1321 1108 1381 q 1058 1203 1108 1272 q 906 1056 1007 1133 q 652 898 804 978 q 297 749 500 818 l 235 669 q 217 647 224 656 q 206 631 211 639 q 192 613 200 624 q 172 585 185 603 q 271 642 218 617 q 365 667 324 667 q 423 647 396 667 q 450 579 450 628 q 438 524 450 558 q 407 450 425 490 q 367 366 389 410 q 326 283 344 322 q 299 228 311 253 q 288 185 288 203 q 297 179 288 179 q 364 197 315 179 q 478 253 413 215 m 997 1361 q 906 1339 956 1361 q 805 1283 856 1317 q 706 1207 754 1249 q 621 1128 658 1165 q 489 987 549 1056 q 381 860 429 918 q 693 995 565 926 q 899 1128 821 1064 q 1011 1244 976 1192 q 1046 1331 1046 1297 q 1032 1353 1046 1346 q 997 1361 1018 1361 z "},"":{"ha":561,"x_min":-162,"x_max":2454,"o":"m 181 300 q 381 413 267 356 q 628 524 496 471 q 905 623 760 576 q 1198 704 1050 669 q 1492 758 1346 739 q 1772 778 1638 778 q 1995 760 1889 778 q 2190 705 2101 743 q 2344 606 2278 667 q 2450 458 2411 546 l 2449 458 q 2453 447 2453 450 q 2454 440 2454 443 q 2445 418 2454 428 q 2421 408 2436 408 q 2382 436 2401 408 q 2290 560 2349 508 q 2151 644 2231 613 q 1976 692 2072 676 q 1772 707 1879 707 q 1508 687 1647 707 q 1224 632 1368 667 q 936 551 1079 597 q 661 451 793 504 q 415 342 529 399 q 214 233 300 286 q 140 186 178 206 q 68 153 103 167 q 3 134 33 140 q -47 128 -26 128 q -133 156 -103 128 q -162 243 -162 185 q -133 365 -162 290 q -43 531 -104 439 l 0 590 l 6 599 q 40 651 26 632 q 67 678 54 669 q 92 690 79 688 q 126 693 106 693 q 153 692 138 693 q 183 688 169 692 q 207 677 197 685 q 217 657 217 669 q 201 622 217 643 q 169 582 185 601 q 168 578 171 583 q 111 499 144 549 q 47 397 78 450 q -7 297 15 344 q -29 221 -29 249 q -15 204 -29 204 q 68 232 17 204 q 181 300 119 260 m 199 889 q 236 881 219 889 q 264 860 253 872 q 281 832 275 847 q 288 803 288 817 q 262 738 288 764 q 197 713 236 713 q 140 737 168 713 q 111 800 111 761 q 135 862 111 835 q 199 889 160 889 z "},"":{"ha":706,"x_min":-924,"x_max":1004,"o":"m 189 646 q 76 426 129 522 q -25 257 24 331 q 150 280 65 272 q 322 288 235 288 q 547 270 440 288 q 741 215 653 253 q 895 116 829 176 q 1000 -31 961 56 l 999 -31 q 1003 -42 1003 -39 q 1004 -47 1004 -44 q 994 -72 1004 -62 q 969 -82 985 -82 q 932 -54 951 -82 q 839 71 899 19 q 700 155 779 122 q 525 202 621 188 q 322 217 429 217 q 125 205 225 217 q -85 171 25 193 q -294 -81 -192 21 q -486 -246 -396 -183 q -653 -335 -576 -308 q -785 -362 -729 -362 q -887 -332 -851 -362 q -924 -246 -924 -301 q -862 -106 -924 -187 q -669 60 -800 -24 q -471 151 -582 113 q -229 221 -360 189 q -112 397 -169 308 q -1 590 -54 486 l 40 671 q 65 684 46 681 q 107 688 83 688 q 163 682 138 688 q 189 646 189 676 m -808 -269 q -722 -249 -774 -269 q -605 -181 -671 -228 q -462 -60 -539 -135 q -301 122 -386 15 q -547 36 -442 82 q -736 -82 -653 -10 q -823 -175 -796 -133 q -850 -240 -850 -217 q -808 -269 -850 -269 m 165 893 q 201 885 185 893 q 230 864 218 876 q 248 835 242 851 q 254 806 254 819 q 227 742 254 768 q 164 717 200 717 q 105 741 133 717 q 76 804 76 765 q 100 866 76 839 q 165 893 124 893 z "},"":{"ha":929,"x_min":-211,"x_max":2758,"o":"m 467 267 q 693 394 571 332 q 950 510 815 456 q 1227 609 1085 564 q 1514 687 1369 654 q 1801 738 1658 719 q 2076 756 1943 756 q 2301 738 2194 756 q 2495 683 2407 721 q 2649 585 2583 646 q 2754 439 2715 525 l 2753 439 q 2758 428 2757 432 q 2758 422 2758 425 q 2749 397 2758 407 q 2725 386 2740 386 q 2686 415 2704 386 q 2593 540 2653 489 q 2454 624 2533 592 q 2279 670 2375 656 q 2076 685 2183 685 q 1806 664 1947 685 q 1522 607 1665 643 q 1235 524 1378 571 q 963 425 1093 478 q 717 318 832 372 q 515 214 603 264 l 517 214 q 401 160 458 178 q 292 142 344 142 q 134 193 206 142 q 15 361 63 244 l 1 338 q -46 265 -24 297 q -83 226 -68 232 q -135 218 -107 218 q -176 229 -157 218 q -207 257 -194 240 q -210 271 -211 261 q -204 283 -208 281 l -207 282 q -119 420 -172 342 q 0 590 -65 499 q 117 747 56 667 q 238 904 178 828 q 357 1048 299 981 q 465 1168 415 1115 q 606 1295 538 1243 q 736 1381 674 1347 q 853 1429 799 1414 q 950 1444 907 1444 q 1063 1410 1022 1444 q 1103 1315 1103 1375 q 1050 1199 1103 1268 q 895 1053 997 1131 q 642 895 793 975 q 296 746 492 815 l 246 682 l 208 632 q 272 655 238 643 q 339 677 306 667 q 403 694 372 688 q 457 701 433 701 q 498 692 485 701 q 511 657 511 682 q 499 628 510 633 q 461 624 489 624 q 405 616 444 622 q 307 590 365 610 l 308 590 q 215 552 258 571 q 142 518 172 533 q 170 403 154 457 q 210 309 186 349 q 264 247 233 269 q 336 224 294 224 q 397 235 365 224 q 468 267 428 246 l 467 267 m 972 1343 q 870 1319 924 1343 q 763 1255 817 1294 q 655 1165 708 1215 q 551 1060 601 1114 q 457 952 501 1006 q 378 854 413 899 q 674 981 551 917 q 876 1106 797 1046 q 991 1219 954 1167 q 1028 1310 1028 1272 q 1011 1335 1028 1328 q 972 1343 994 1343 z "},"":{"ha":803,"x_min":-129,"x_max":2525,"o":"m 254 221 q 459 326 343 271 q 707 435 575 382 q 983 537 839 489 q 1274 622 1128 585 q 1565 680 1421 658 q 1843 701 1710 701 q 2067 684 1961 701 q 2262 628 2174 667 q 2416 530 2350 590 q 2521 382 2482 469 l 2519 382 q 2524 370 2524 374 q 2525 364 2525 367 q 2516 340 2525 349 q 2492 332 2507 332 q 2474 337 2483 332 q 2454 356 2465 342 q 2361 481 2421 429 q 2222 566 2301 533 q 2047 613 2143 599 q 1843 628 1950 628 q 1575 606 1715 628 q 1291 549 1435 585 q 1005 465 1147 513 q 731 364 863 417 q 483 256 599 311 q 278 153 368 201 q 142 96 211 117 q 29 75 74 75 q -95 118 -61 75 q -129 226 -129 161 q -116 319 -129 269 q -84 418 -103 369 q -42 511 -65 467 q 0 590 -19 556 q 174 850 82 733 q 362 1058 267 967 q 551 1215 457 1149 q 729 1324 644 1281 q 885 1388 814 1367 q 1008 1408 957 1408 q 1124 1378 1083 1408 q 1165 1294 1165 1347 q 1126 1192 1165 1251 q 1015 1074 1086 1133 q 877 982 950 1024 q 731 907 804 940 q 588 848 657 874 q 459 803 518 822 q 356 773 400 785 q 289 756 311 761 q 285 755 286 756 q 281 754 283 754 l 275 751 q 233 701 260 736 q 177 617 207 665 q 117 514 147 569 q 61 403 86 458 q 21 297 36 347 q 6 210 6 247 q 54 154 6 154 q 93 159 69 154 q 144 173 117 164 q 199 194 171 182 q 254 221 228 206 m 1043 1304 q 926 1277 999 1304 q 762 1194 853 1250 q 567 1053 671 1139 q 360 849 464 967 q 518 900 436 871 q 681 965 600 929 q 835 1042 761 1000 q 968 1129 908 1083 q 1053 1222 1021 1181 q 1088 1286 1086 1263 q 1043 1304 1088 1304 z "},"":{"ha":1444,"x_min":-211,"x_max":3317,"o":"m 1040 300 q 1241 413 1126 356 q 1488 524 1356 471 q 1766 623 1621 576 q 2060 704 1911 669 q 2354 758 2208 739 q 2635 778 2500 778 q 2859 760 2753 778 q 3053 705 2965 743 q 3207 606 3140 667 q 3313 458 3274 546 l 3311 458 q 3316 447 3315 450 q 3317 440 3317 443 q 3308 418 3317 428 q 3283 408 3299 408 q 3246 436 3264 408 q 3153 560 3213 508 q 3014 644 3093 613 q 2838 692 2935 676 q 2635 707 2742 707 q 2378 686 2515 707 q 2099 629 2242 665 q 1812 546 1956 593 q 1534 446 1668 499 q 1283 338 1400 393 q 1074 233 1165 283 q 923 155 999 185 q 793 125 847 125 q 709 150 743 125 q 675 229 675 175 q 691 315 675 268 q 726 408 707 361 l 736 428 l 735 428 q 767 499 753 465 q 781 546 781 533 q 778 557 781 557 q 732 539 763 557 q 669 494 701 521 q 492 351 553 397 q 414 304 432 304 q 396 310 403 304 q 389 331 389 315 q 399 357 389 338 q 421 400 408 376 q 446 452 432 422 q 472 515 460 482 q 493 583 485 549 q 501 650 501 618 q 485 683 501 683 q 437 669 465 683 q 381 638 408 654 q 249 528 318 592 q 119 399 181 464 q 10 276 57 333 q -57 183 -37 218 l -57 185 q -78 169 -64 174 q -111 164 -92 164 q -140 167 -124 164 q -170 176 -156 169 q -196 191 -185 182 q -211 213 -207 200 q -210 215 -211 214 q -210 217 -210 215 l 0 590 l 92 754 l 90 754 q 106 772 96 769 q 126 775 115 775 l 213 775 q 241 765 233 775 q 249 740 249 756 q 221 671 249 724 q 153 551 193 618 l 153 550 q 151 547 151 547 q 244 630 194 589 q 344 703 293 671 q 444 755 394 735 q 540 775 494 775 q 629 742 606 775 q 653 660 653 710 q 649 612 653 638 q 638 563 644 586 q 735 623 682 596 q 832 650 788 650 q 878 641 858 650 q 910 617 897 632 q 930 582 924 601 q 936 542 936 563 q 915 453 936 504 q 868 349 894 401 l 864 340 l 865 340 q 835 270 847 303 q 824 221 824 238 q 833 206 824 206 q 876 214 851 206 q 929 235 901 222 q 986 266 957 249 q 1040 300 1015 283 z "},"":{"ha":1054,"x_min":-214,"x_max":2931,"o":"m 657 301 q 857 415 743 358 q 1103 525 971 472 q 1381 624 1235 578 q 1674 705 1526 671 q 1969 758 1822 739 q 2250 778 2115 778 q 2473 760 2367 778 q 2667 705 2579 743 q 2822 606 2756 667 q 2926 458 2889 546 l 2925 458 q 2930 447 2929 450 q 2931 440 2931 443 q 2922 418 2931 428 q 2897 408 2913 408 q 2860 436 2878 408 q 2767 560 2826 508 q 2628 644 2707 613 q 2453 692 2549 676 q 2250 707 2357 707 q 1981 687 2122 707 q 1694 632 1839 667 q 1407 551 1550 597 q 1133 451 1264 504 q 889 343 1003 399 q 689 235 775 288 q 619 193 656 213 q 549 158 583 174 q 484 134 515 143 q 429 125 453 125 q 349 151 382 125 q 317 236 317 178 q 324 283 317 256 q 343 340 332 310 q 368 400 354 369 q 394 456 382 431 q 434 544 417 500 q 451 615 451 588 q 439 632 451 632 q 383 615 417 632 q 313 574 349 597 q 244 528 276 551 q 196 490 213 504 q 49 334 117 417 q -58 182 -18 251 q -83 167 -62 175 q -128 160 -104 160 q -170 168 -147 160 q -207 201 -193 176 l -207 199 q -212 214 -214 206 q -204 225 -211 222 l 0 590 l 90 753 l 89 753 q 105 771 94 768 q 125 774 115 774 l 211 774 q 240 764 233 774 q 247 739 247 754 q 240 711 247 725 q 228 692 233 697 l 228 694 q 205 653 215 671 q 185 617 194 635 q 165 581 175 600 q 142 539 154 563 q 332 676 244 632 q 482 719 419 719 q 567 690 536 719 q 599 604 599 660 q 585 530 599 572 q 543 435 572 488 q 483 306 501 356 q 464 231 464 257 q 476 213 464 213 q 551 239 504 213 q 657 301 599 265 z "},"":{"ha":814,"x_min":-101,"x_max":894,"o":"m -78 369 q -37 446 -62 408 q 21 517 -12 483 q 6 552 11 536 q 1 590 1 568 q 19 675 1 635 q 65 745 36 715 q 132 793 94 775 q 210 811 169 811 q 301 793 264 811 q 360 747 338 775 q 392 683 382 718 q 401 615 401 649 q 384 501 401 556 q 342 399 367 447 q 520 367 435 389 q 677 306 606 344 q 803 214 749 268 q 890 86 857 160 l 889 86 q 894 74 893 78 q 894 68 894 71 q 885 45 894 54 q 860 36 875 36 q 824 57 844 36 q 741 175 792 125 q 623 258 690 225 q 474 309 556 292 q 300 332 392 326 q 148 164 221 213 q 18 115 75 115 q -68 152 -35 115 q -101 253 -101 189 q -96 311 -101 281 q -78 369 -90 342 m 233 525 q 192 503 214 519 q 154 467 171 488 q 207 435 176 449 q 265 415 238 422 q 313 522 299 475 q 328 610 328 569 q 318 662 328 640 q 292 697 308 683 q 257 718 276 711 q 217 725 238 725 q 167 717 192 725 q 123 693 143 708 q 91 654 103 678 q 79 601 79 631 q 83 564 79 586 q 146 594 119 586 q 196 601 172 601 q 245 587 228 601 q 263 557 263 572 q 235 525 263 533 l 233 525 m 65 211 q 129 243 88 211 q 222 346 171 275 q 160 371 186 357 q 106 408 133 385 q 60 318 75 360 q 44 249 44 276 q 49 222 44 232 q 65 211 54 211 z "},"":{"ha":956,"x_min":-601,"x_max":875,"o":"m -75 188 q -58 236 -75 211 q -1 283 -40 261 q 99 321 38 306 q 249 340 161 336 q 304 426 282 379 q 326 514 326 474 q 317 543 326 531 q 283 556 307 556 q 249 550 272 557 q 207 536 226 543 l 175 525 l 175 526 l 156 518 q 130 508 144 514 q 111 500 115 501 l -449 -357 q -461 -369 -454 -364 q -479 -374 -468 -374 l -565 -374 q -594 -365 -586 -374 q -601 -340 -601 -356 q -588 -299 -601 -325 q -556 -244 -575 -274 q -493 -149 -532 -210 q -407 -15 -454 -89 q -306 143 -360 60 q -199 308 -253 226 q -95 465 -146 390 q -3 596 -44 539 q 69 687 39 653 q 111 721 99 721 l 196 721 q 224 712 217 721 q 231 688 231 703 q 222 657 231 674 q 200 622 214 640 q 272 637 238 633 q 336 640 307 640 q 462 602 418 640 q 506 500 506 564 q 429 318 506 418 q 700 217 585 290 q 871 18 815 143 l 869 18 q 874 6 874 10 q 875 0 875 3 q 865 -26 875 -15 q 840 -36 856 -36 q 803 -8 821 -36 q 640 171 750 108 q 375 250 529 233 q 206 127 288 161 q 63 93 125 93 q -37 122 0 93 q -75 188 -75 150 m 26 186 q 83 202 46 186 q 165 254 121 218 q 45 224 82 243 q 8 190 8 206 q 26 186 8 186 z "},"":{"ha":910,"x_min":-296,"x_max":989,"o":"m 610 650 q 503 530 557 592 q 401 408 450 468 q 307 292 351 349 q 226 188 263 236 q 409 233 317 192 q 590 334 501 274 q 764 466 679 394 q 925 603 849 538 l 924 603 q 951 611 932 611 q 978 598 968 611 q 989 572 989 585 q 975 543 989 557 q 801 398 893 474 q 611 259 710 322 q 409 155 513 196 q 200 114 306 114 l 163 103 q 163 99 167 99 q 155 100 160 100 q 146 97 150 100 q 144 83 142 93 q 171 -56 161 14 q 181 -186 181 -126 q 147 -420 181 -318 q 63 -592 114 -522 q -47 -698 13 -661 q -157 -735 -106 -735 q -257 -691 -218 -735 q -296 -556 -296 -647 q -274 -419 -296 -499 q -206 -237 -253 -339 q -83 -10 -158 -135 q 103 261 -7 115 q 79 258 92 258 q 57 257 67 257 q -40 299 -8 257 q -72 404 -72 342 q -53 497 -72 447 q 0 590 -35 546 q 108 686 44 647 q 249 725 172 725 q 342 703 301 725 q 401 622 383 681 l 485 713 l 500 713 q 514 713 507 713 q 528 714 521 714 q 559 713 543 714 q 588 707 575 711 q 610 695 601 703 q 618 675 618 688 q 610 649 618 657 l 610 650 m 103 -172 q 100 -94 103 -136 q 90 -7 97 -51 q -99 -356 -44 -217 q -154 -567 -154 -494 q -114 -640 -154 -640 q -47 -609 -85 -640 q 24 -518 -10 -578 q 80 -371 57 -458 q 103 -172 103 -283 m 222 415 l 261 463 l 336 553 q 333 574 336 561 q 326 600 331 588 q 313 622 321 613 q 292 631 304 631 q 221 600 260 631 q 148 527 182 569 q 90 440 114 485 q 67 365 67 394 q 88 349 67 349 q 134 358 107 349 q 201 388 161 367 l 199 386 l 222 415 z "},"":{"ha":774,"x_min":-7,"x_max":2549,"o":"m 283 236 q 488 341 372 286 q 734 449 603 396 q 1009 551 865 503 q 1299 635 1153 599 q 1590 692 1446 671 q 1867 714 1733 714 q 2091 697 1985 714 q 2285 641 2197 679 q 2440 542 2374 603 q 2544 394 2506 482 l 2543 394 q 2548 383 2547 386 q 2549 376 2549 379 q 2540 351 2549 361 q 2515 340 2531 340 q 2478 368 2497 340 q 2385 493 2444 442 q 2246 577 2325 544 q 2070 624 2167 610 q 1867 639 1974 639 q 1592 617 1735 639 q 1306 560 1450 596 q 1019 476 1161 524 q 748 375 878 428 q 505 268 618 322 q 304 165 392 214 q 168 125 226 125 q 72 161 104 125 q 40 246 40 197 q 56 330 40 285 q 94 418 71 375 q 141 499 117 461 q 185 561 165 536 q 163 592 172 576 q 147 624 154 608 l 60 546 q 33 537 46 535 q 10 547 19 539 q -3 568 0 556 q 0 590 -7 581 q 3 594 0 592 q 17 607 6 596 q 54 641 29 618 q 126 706 79 664 q 126 719 125 713 q 126 729 126 725 q 139 802 126 771 q 169 853 151 833 q 209 884 188 874 q 249 894 231 894 q 295 878 276 894 q 314 831 314 861 q 301 783 314 813 q 254 721 288 753 l 263 713 l 286 685 l 297 669 q 333 619 317 643 q 349 567 349 594 q 343 541 349 556 q 329 514 338 526 q 283 442 308 483 q 237 358 258 400 q 200 278 215 315 q 185 218 185 240 q 196 203 185 203 q 283 236 221 203 z "},"":{"ha":657,"x_min":-160,"x_max":1572,"o":"m 892 438 q 541 405 725 436 q 171 321 357 374 q 174 285 174 304 q 174 249 174 267 q 163 162 174 207 q 126 78 151 117 q 63 16 101 40 q -29 -8 25 -8 q -124 32 -87 -8 q -160 135 -160 72 q -119 253 -160 192 q 17 354 -78 314 q 16 368 17 361 q 15 382 15 375 q 3 469 8 426 q -1 553 -1 511 q -1 572 -1 563 q 0 590 -1 581 q 17 668 4 632 q 48 732 29 704 q 90 776 67 760 q 142 792 114 792 q 187 775 169 792 q 204 729 204 758 q 189 678 204 708 q 135 613 174 649 q 139 545 135 579 q 149 471 143 511 l 151 450 l 151 451 l 160 397 q 532 479 346 447 q 892 511 718 511 q 1116 494 1010 511 q 1310 438 1222 476 q 1465 340 1399 400 q 1569 192 1532 279 l 1568 192 q 1572 180 1571 183 q 1572 174 1572 176 q 1542 142 1572 142 q 1524 146 1533 142 q 1503 165 1514 150 q 1410 291 1469 239 q 1271 376 1350 343 q 1095 423 1192 408 q 892 438 999 438 m -50 90 q -3 131 -24 90 q 18 269 18 172 l 18 272 q -62 204 -40 240 q -83 140 -83 168 q -74 104 -83 118 q -50 90 -64 90 z "},"":{"ha":547,"x_min":-942,"x_max":1614,"o":"m -894 1144 q -930 1157 -918 1144 q -942 1189 -942 1169 q -934 1210 -942 1200 q -907 1226 -926 1221 q -644 1267 -776 1256 q -378 1279 -512 1279 q -31 1264 -201 1279 q 296 1232 139 1249 l 329 1228 q 346 1226 338 1226 q 363 1225 354 1225 l 472 1214 q 497 1242 488 1232 q 515 1258 507 1253 q 532 1265 524 1264 q 553 1267 540 1267 l 588 1267 q 594 1266 590 1267 q 600 1265 597 1265 l 625 1265 q 664 1233 664 1265 q 650 1200 664 1218 q 735 1197 694 1197 q 817 1196 775 1196 q 1028 1207 915 1196 q 1245 1247 1142 1218 q 1431 1324 1349 1275 q 1549 1447 1513 1372 q 1581 1463 1560 1463 q 1614 1426 1614 1463 q 1613 1422 1614 1425 q 1610 1408 1613 1419 q 1482 1260 1569 1318 q 1284 1166 1394 1201 q 1053 1117 1174 1131 q 824 1103 932 1103 q 574 1115 708 1103 l 564 1100 l 561 1097 l 561 1099 q 490 1012 542 1075 q 374 864 439 949 q 238 683 308 779 q 108 497 167 586 q 13 333 50 407 q -25 221 -25 260 q -10 203 -25 203 q 72 226 24 203 q 176 285 121 249 q 288 367 231 322 q 397 454 346 411 q 488 534 447 497 q 547 590 528 571 l 557 600 q 567 608 561 604 q 583 613 574 613 q 608 599 596 613 q 621 574 621 586 q 616 558 621 567 q 610 547 611 550 q 567 508 603 542 q 478 427 532 474 q 356 327 424 381 q 219 229 289 274 q 84 155 150 185 q -33 125 18 125 q -117 154 -86 125 q -147 242 -147 183 q -136 312 -147 272 q -106 397 -125 351 q -59 491 -86 442 q 0 590 -32 540 q 112 757 51 674 q 227 913 172 840 q 327 1040 282 985 q 396 1121 372 1094 l 397 1122 l 400 1128 l 290 1142 q -38 1175 132 1160 q -385 1190 -208 1190 q -633 1181 -507 1190 q -886 1144 -758 1171 l -894 1144 z "},"":{"ha":996,"x_min":-65,"x_max":2765,"o":"m 486 251 q 694 361 578 304 q 944 472 811 418 q 1221 573 1076 525 q 1513 657 1365 621 q 1805 714 1660 693 q 2083 735 1950 735 q 2308 717 2201 735 q 2501 662 2414 700 q 2656 563 2589 624 q 2761 418 2722 503 l 2760 418 q 2765 406 2764 410 q 2765 400 2765 403 q 2756 374 2765 385 q 2732 364 2747 364 q 2694 392 2714 364 q 2601 517 2661 465 q 2463 601 2542 568 q 2287 648 2383 633 q 2083 663 2190 663 q 1819 642 1958 663 q 1538 587 1681 622 q 1255 506 1396 551 q 983 408 1114 460 q 738 301 853 356 q 533 197 622 247 l 535 197 q 421 143 476 161 q 325 125 365 125 q 230 160 258 125 q 201 244 201 196 q 219 340 201 292 q 265 438 238 388 q 207 396 238 417 q 146 358 176 375 q 85 331 115 342 q 29 321 56 321 q -42 350 -19 321 q -65 419 -65 379 q -47 501 -65 456 q 0 590 -28 546 q 78 697 36 649 q 147 769 119 744 l 240 769 q 275 736 275 769 q 268 713 275 725 q 249 682 261 700 q 204 624 233 663 q 147 542 175 585 q 95 461 118 500 q 69 401 72 422 q 192 474 96 407 q 295 557 244 514 q 381 633 346 600 l 379 633 l 389 642 q 392 644 392 644 q 397 647 393 643 q 411 660 403 651 q 428 675 419 668 q 447 693 438 683 l 549 696 q 577 687 569 696 q 585 663 585 678 q 572 629 585 649 q 547 594 560 610 l 543 588 l 543 589 q 489 510 522 561 q 423 405 456 460 q 367 299 390 350 q 344 218 344 247 q 358 200 344 200 q 486 251 396 200 z "},"":{"ha":849,"x_min":-167,"x_max":2018,"o":"m 503 385 q 713 445 606 418 q 926 491 819 472 q 1135 520 1032 510 q 1336 531 1239 531 q 1560 513 1454 531 q 1755 458 1667 496 q 1909 358 1843 419 q 2014 211 1975 297 l 2013 211 q 2017 199 2017 203 q 2018 193 2018 196 q 2008 167 2018 178 q 1983 157 1999 157 q 1946 186 1964 157 q 1853 311 1913 260 q 1714 394 1793 363 q 1539 441 1635 426 q 1336 456 1443 456 q 1145 445 1246 456 q 939 415 1044 435 q 727 369 833 396 q 522 310 621 342 q 453 291 490 299 q 383 283 415 283 q 328 288 353 283 q 281 308 303 292 q 214 256 256 286 q 126 197 172 225 q 31 149 79 168 q -57 129 -18 129 q -106 140 -86 129 q -140 167 -126 150 q -160 204 -154 183 q -167 246 -167 225 q -151 323 -167 279 q -112 413 -136 367 q -58 504 -87 458 q 0 590 -28 550 q 16 612 8 601 q 31 632 24 622 l 65 678 l 65 676 q 94 697 75 697 l 181 697 q 210 688 200 697 q 219 664 219 679 q 206 628 219 649 q 179 594 193 608 q 29 373 83 471 q -25 231 -25 275 q -12 214 -25 214 q 76 248 18 214 q 236 368 135 282 q 232 388 233 378 q 231 410 231 399 q 249 482 231 447 q 294 542 267 517 q 352 584 321 568 q 408 600 383 600 q 454 582 440 600 q 468 544 468 564 q 454 497 468 522 q 420 446 440 471 q 378 398 400 421 q 340 358 357 375 q 356 357 347 357 q 376 357 365 357 q 434 365 401 357 q 503 385 467 374 z "},"":{"ha":1274,"x_min":-128,"x_max":2771,"o":"m 946 396 q 1221 495 1076 449 q 1513 576 1365 542 q 1808 629 1661 610 q 2089 649 1954 649 q 2313 631 2207 649 q 2508 576 2419 614 q 2662 478 2596 539 q 2767 333 2728 418 l 2765 333 q 2770 322 2769 325 q 2771 315 2771 318 q 2762 290 2771 300 q 2738 279 2753 279 q 2700 307 2719 279 q 2607 432 2667 381 q 2468 516 2547 483 q 2292 563 2389 549 q 2089 578 2196 578 q 1816 557 1961 578 q 1522 500 1671 536 q 1228 417 1374 464 q 956 318 1083 369 q 876 290 918 303 q 796 278 833 278 q 741 285 767 278 q 696 308 715 292 q 627 256 668 286 q 540 197 586 225 q 446 149 493 168 q 358 129 399 129 q 307 140 328 129 q 273 167 286 150 q 253 204 260 183 q 247 246 247 225 q 256 306 247 274 q 278 368 264 338 q 206 310 244 339 q 128 257 168 281 q 48 218 88 233 q -26 203 8 203 q -104 236 -81 203 q -128 308 -128 269 q -117 374 -128 338 q -87 449 -106 411 q -46 523 -69 486 q 1 590 -22 560 l 78 689 q 105 697 82 693 q 153 700 128 700 q 203 692 179 700 q 228 660 228 683 q 226 653 228 657 q 221 643 224 649 l 214 629 l 204 618 l 204 619 q 151 545 185 593 q 83 446 117 497 q 26 349 50 394 q 1 281 1 303 l 1 279 q 85 318 21 279 q 158 369 119 339 q 235 432 197 399 q 308 498 274 465 q 371 557 343 531 l 397 582 l 404 588 q 436 617 424 606 q 460 629 449 629 l 546 629 q 574 620 567 629 q 582 596 582 611 q 567 553 582 578 q 532 506 551 529 l 519 488 l 483 438 q 452 387 469 417 q 419 327 435 357 q 394 269 404 297 q 383 225 383 242 q 394 211 383 211 q 447 227 414 211 q 516 267 479 243 q 589 319 553 292 q 651 368 625 346 q 647 388 649 378 q 646 410 646 399 q 665 482 646 447 q 710 543 683 517 q 768 585 738 569 q 822 601 799 601 q 865 586 849 601 q 882 539 882 571 q 870 493 882 517 q 840 447 858 469 q 798 401 821 424 q 753 357 775 378 q 796 349 771 349 q 858 362 819 349 q 946 396 896 375 z "},"":{"ha":747,"x_min":-208,"x_max":667,"o":"m 607 711 l 606 711 q 617 717 611 717 q 632 718 622 718 q 655 707 643 718 q 667 679 667 696 l 667 665 q 664 660 667 663 l 288 357 q 313 279 299 310 q 340 229 326 249 q 367 199 354 210 q 392 179 381 188 q 394 174 394 176 l 394 176 q 393 179 393 179 q 417 163 408 171 q 425 143 425 156 q 410 113 425 124 q 368 101 394 101 q 320 110 347 101 q 265 138 293 118 q 210 187 236 157 q 164 261 183 217 l 43 165 l -146 15 l -147 15 q -149 15 -149 15 q -151 14 -150 14 l -154 14 q -160 11 -157 13 q -167 10 -164 10 q -194 21 -183 10 q -206 49 -206 32 l -206 57 q -204 65 -208 63 l 143 342 q 119 483 125 410 q 114 628 114 557 q 129 656 114 649 q 168 663 144 663 l 193 663 q 221 663 207 663 q 246 659 235 663 q 265 647 257 656 q 272 619 272 638 q 272 603 272 613 q 271 588 272 594 l 271 589 q 269 556 269 574 q 268 519 268 539 q 272 442 268 485 l 607 711 z "},"":{"ha":1069,"x_min":-482,"x_max":1610,"o":"m -189 -371 q -326 -400 -262 -400 q -442 -362 -401 -400 q -482 -265 -482 -325 q -422 -112 -482 -199 q -225 60 -361 -25 q -100 122 -169 93 q 37 172 -31 150 q 160 210 104 194 q 242 233 215 226 q 247 234 244 233 q 250 235 249 235 l 253 235 q 326 347 290 289 q 394 464 363 406 q 306 388 353 426 q 213 318 260 349 q 119 268 165 288 q 32 249 72 249 q -60 278 -33 249 q -86 356 -86 308 q -61 467 -86 404 q 0 590 -36 529 q 49 669 24 632 q 97 733 75 706 q 133 777 118 761 q 151 793 149 793 l 240 793 q 275 761 275 793 q 259 719 275 744 q 218 658 243 694 q 165 585 193 626 q 114 504 138 544 l 114 506 q 68 409 82 450 q 54 343 54 368 q 63 331 54 331 q 140 354 94 331 q 237 413 186 378 q 338 490 288 449 q 430 566 389 531 q 497 625 471 601 q 522 650 522 649 q 553 686 538 671 q 589 701 568 701 q 638 693 618 701 q 657 661 657 685 q 656 658 657 660 q 653 643 656 656 q 556 451 606 543 q 457 278 507 358 q 697 317 579 303 q 928 332 815 332 q 1152 315 1046 332 q 1347 259 1258 297 q 1501 160 1435 221 q 1606 13 1567 99 l 1604 13 q 1609 1 1608 4 q 1610 -6 1610 -3 q 1601 -31 1610 -21 q 1578 -42 1593 -42 q 1540 -14 1560 -42 q 1447 111 1507 60 q 1308 195 1388 163 q 1131 242 1228 228 q 928 257 1035 257 q 674 240 806 257 q 403 189 542 222 q 238 -31 318 64 q 82 -193 157 -125 q -61 -305 7 -261 q -189 -371 -129 -349 m -344 -304 q -252 -281 -307 -304 q -128 -204 -197 -257 q 20 -67 -60 -151 q 190 140 100 18 q -11 78 86 113 q -181 -1 -108 43 q -346 -147 -290 -76 q -401 -257 -401 -217 q -344 -304 -401 -304 z "},"":{"ha":1099,"x_min":-524,"x_max":1289,"o":"m -65 -333 q -197 -392 -135 -374 q -312 -410 -260 -410 q -400 -396 -361 -410 q -466 -358 -439 -382 q -508 -300 -493 -333 q -524 -228 -524 -267 q -486 -101 -524 -165 q -367 26 -449 -36 q -156 143 -285 88 q 157 243 -26 199 q 147 301 157 276 q 124 344 138 325 q 95 376 111 363 q 67 400 79 389 l 68 400 q 64 403 67 400 l 63 404 q 49 417 54 411 q 43 436 43 424 q 67 461 43 447 q 126 505 99 479 q 173 558 153 531 q 204 610 193 585 q 215 653 215 635 q 206 667 215 667 q 151 640 189 667 q 53 551 114 614 q 17 539 42 539 q -10 551 -3 539 q -18 574 -18 563 q -8 600 -18 590 l -8 599 q 147 723 79 688 q 260 758 214 758 q 342 727 314 758 q 369 643 369 696 q 337 533 369 593 q 239 428 304 474 q 293 351 275 392 q 318 267 311 311 q 464 283 393 278 q 607 288 535 288 q 830 270 724 288 q 1024 215 936 253 q 1179 116 1113 176 q 1285 -31 1246 56 l 1283 -31 q 1288 -42 1288 -39 q 1289 -47 1289 -44 q 1279 -72 1289 -62 q 1254 -82 1269 -82 q 1215 -54 1235 -82 q 1123 71 1182 19 q 985 155 1064 122 q 810 202 906 188 q 607 217 714 217 q 467 212 539 217 q 318 194 394 207 q 268 36 310 115 q 170 -114 226 -43 q 51 -242 114 -185 q -64 -333 -12 -300 l -65 -333 m -146 -237 q -44 -151 -92 -199 q 42 -51 4 -103 q 106 56 79 1 q 144 161 132 110 q -131 72 -18 122 q -313 -33 -243 21 q -415 -137 -383 -86 q -446 -229 -446 -189 q -419 -292 -446 -268 q -342 -317 -392 -317 q -253 -298 -301 -317 q -146 -237 -204 -279 z "},"":{"ha":694,"x_min":-53,"x_max":532,"o":"m 268 532 q 274 540 271 535 q 281 549 278 544 l 296 569 q 283 623 293 607 q 258 639 272 639 q 197 617 231 639 q 135 562 164 594 q 86 492 106 529 q 67 425 67 454 q 79 400 67 400 q 131 417 101 400 q 188 455 160 433 q 239 498 217 476 q 268 531 261 519 l 268 532 m 313 144 q 299 128 308 131 q 283 126 292 126 q 268 125 275 125 q 176 161 206 125 q 147 246 147 197 q 169 351 147 292 q 108 329 138 336 q 60 322 79 322 q -26 356 1 322 q -53 443 -53 390 q -39 515 -53 476 q 0 590 -25 554 q 99 687 39 647 q 231 726 160 726 q 301 706 267 726 q 356 650 335 686 q 357 651 356 650 l 357 650 q 385 685 372 674 q 422 697 397 697 l 494 697 q 524 688 517 697 q 532 664 532 679 q 515 622 532 644 q 483 585 497 600 l 479 578 l 475 572 l 475 574 q 405 481 442 532 q 338 381 368 431 q 288 287 307 331 q 268 215 268 243 q 288 188 268 188 l 296 188 q 313 178 306 188 q 317 161 319 169 l 317 163 l 313 144 z "},"":{"ha":633,"x_min":-143,"x_max":1099,"o":"m 369 386 q 288 269 329 317 q 205 192 246 221 q 126 149 164 163 q 57 136 88 136 q -29 161 4 136 q -62 229 -62 186 q -47 278 -62 251 q 4 331 -31 304 q 92 380 39 357 q 218 419 144 403 q 233 458 229 439 q 236 489 236 476 q 218 508 236 508 q 185 501 206 508 q 143 482 165 493 q 99 456 121 471 q 58 429 76 442 q 44 410 51 421 q 35 392 38 399 q 9 350 21 367 q -19 333 -3 333 l -106 333 q -143 364 -143 333 q -136 388 -143 374 q -120 417 -129 401 q -101 449 -111 433 q -85 475 -92 464 l 0 590 q 106 738 50 661 q 222 890 163 815 q 342 1036 282 965 q 461 1167 403 1107 l 461 1165 q 601 1292 533 1240 q 731 1378 669 1344 q 847 1426 793 1411 q 946 1442 901 1442 q 1058 1408 1018 1442 q 1099 1314 1099 1374 q 1048 1197 1099 1265 q 897 1050 997 1128 q 644 892 796 972 q 289 742 492 813 q 273 723 281 731 q 258 706 265 715 q 230 670 242 685 q 208 642 218 656 q 188 614 199 629 q 161 576 176 599 q 265 603 218 603 q 358 567 325 603 q 390 476 390 531 q 388 442 390 458 q 378 401 385 425 l 369 386 m 1025 1313 q 1014 1344 1025 1329 q 983 1365 1003 1358 q 819 1288 903 1344 q 655 1159 735 1232 q 502 1006 575 1086 q 372 854 429 925 q 673 982 549 917 q 875 1108 797 1047 q 989 1222 953 1169 q 1025 1313 1025 1275 m 31 238 q 85 254 53 238 q 160 325 117 271 q 54 276 85 301 q 24 239 24 251 q 31 238 24 238 z "},"":{"ha":460,"x_min":-139,"x_max":300,"o":"m -22 143 q -112 181 -85 146 q -139 269 -139 217 q -128 345 -139 304 q -99 428 -118 386 q -55 511 -81 469 q 0 590 -29 553 q 102 693 49 653 q 203 733 156 733 q 247 724 228 733 q 277 701 265 715 q 294 669 289 686 q 300 633 300 651 q 290 578 300 608 q 260 517 279 549 q 217 456 242 486 q 163 401 192 426 l 164 401 q 149 393 157 394 q 136 392 142 392 q 110 402 119 392 q 99 428 100 413 q 103 449 99 444 q 145 489 124 467 q 185 536 167 511 q 216 585 204 561 q 229 632 228 610 q 142 554 188 600 q 57 454 96 508 q -7 342 18 400 q -33 232 -32 285 q -7 200 -33 206 q 5 188 -1 194 q 11 172 11 182 q -19 143 11 146 l -22 143 z "},"":{"ha":886,"x_min":-51,"x_max":1469,"o":"m 456 543 q 407 458 431 501 q 366 373 383 414 q 338 298 349 332 q 326 240 326 264 q 347 210 326 210 q 379 217 358 210 q 424 236 400 225 l 424 235 q 533 302 474 261 q 650 389 592 343 q 760 478 708 435 q 847 553 811 522 q 894 597 876 581 q 921 613 913 613 q 949 602 938 613 q 960 574 960 592 q 925 537 960 571 q 835 453 890 503 q 709 346 779 403 q 567 240 639 289 q 430 159 496 192 q 317 126 364 126 q 210 163 239 128 q 182 253 182 199 q 188 308 182 278 q 201 367 193 339 q 127 333 158 342 q 67 324 96 324 q -21 359 10 324 q -51 447 -51 394 q -37 517 -51 479 q 0 590 -24 554 q 97 687 38 647 q 228 726 157 726 q 301 713 269 726 q 351 656 332 699 q 624 1005 486 861 q 890 1238 763 1149 q 1128 1368 1018 1328 q 1315 1408 1238 1408 q 1371 1402 1343 1408 q 1420 1385 1399 1396 q 1456 1357 1442 1374 q 1469 1318 1469 1340 q 1460 1290 1469 1301 q 1435 1279 1450 1279 q 1403 1301 1419 1279 q 1356 1319 1396 1319 q 1263 1303 1315 1319 q 1150 1254 1211 1286 l 1151 1254 q 941 1106 1043 1190 q 749 926 839 1021 q 585 733 660 832 q 456 543 510 635 m 94 469 q 81 421 81 432 q 92 406 81 406 q 131 417 107 406 q 179 443 154 428 q 227 476 204 458 q 264 506 250 493 q 267 512 261 503 q 276 525 274 521 q 279 531 276 526 q 293 555 286 542 q 300 582 300 568 q 287 620 300 608 q 254 632 274 632 q 213 622 235 632 q 168 591 190 611 q 126 540 146 571 q 94 469 107 510 z "},"":{"ha":417,"x_min":-136,"x_max":269,"o":"m 50 146 q 11 139 29 142 q -21 136 -7 136 q -110 170 -85 136 q -136 261 -136 204 q -126 340 -136 297 q -97 426 -115 382 q -55 512 -79 469 q -1 590 -31 554 q 90 681 42 646 q 185 715 139 715 q 251 691 232 715 q 269 632 269 667 q 240 542 269 583 q 171 470 210 501 q 93 419 132 439 q 38 393 54 400 q 13 334 26 374 q 0 258 0 294 q 7 231 0 243 q 33 218 14 218 q 46 219 40 218 q 76 208 68 217 q 83 186 83 199 q 64 151 83 165 l 50 146 m 179 624 q 142 597 160 617 q 108 551 125 578 q 77 496 92 525 q 50 440 63 467 q 128 488 92 454 q 185 554 164 521 q 208 610 207 588 q 179 624 210 632 z "},"":{"ha":543,"x_min":-411,"x_max":813,"o":"m -411 294 q -399 322 -411 310 q -369 338 -387 335 q -243 353 -307 344 q -112 382 -179 363 q 0 590 -62 483 q 140 810 65 703 q 298 1006 215 917 q 467 1156 381 1094 q 643 1239 554 1218 q 696 1244 667 1244 q 781 1218 749 1244 q 813 1143 813 1192 q 775 1042 813 1103 q 658 908 738 982 q 454 750 578 835 q 158 576 331 665 q 122 514 139 542 q 89 454 106 486 q 231 526 165 486 q 356 618 297 565 q 379 626 365 626 q 406 616 394 626 q 418 590 417 606 q 411 582 418 582 l 415 578 q 414 567 419 572 q 232 442 326 492 q 44 354 138 392 l -6 251 l -44 147 l -44 96 q -44 90 -44 93 q -43 83 -43 86 q -48 -19 -43 36 q -67 -123 -53 -75 q -110 -203 -82 -171 q -182 -235 -137 -235 q -254 -199 -235 -235 q -274 -114 -274 -164 q -270 -62 -274 -89 q -261 -9 -267 -35 q -249 40 -256 17 q -237 81 -243 64 l -233 94 q -198 192 -218 139 q -154 297 -178 244 q -270 276 -210 285 q -383 260 -331 267 q -403 270 -394 261 q -411 294 -411 279 m 235 694 q 613 953 490 836 q 735 1140 735 1071 q 722 1153 735 1153 q 682 1144 706 1153 q 635 1125 658 1136 q 589 1101 611 1114 q 553 1079 567 1089 q 492 1026 524 1057 q 428 958 460 994 q 364 882 396 922 q 306 803 332 842 l 235 694 m -140 -150 q -119 -133 -129 -149 q -101 -91 -108 -117 q -89 -31 -93 -65 q -86 42 -85 4 q -104 -6 -96 22 q -140 -150 -122 -57 z "},"":{"ha":726,"x_min":-635,"x_max":511,"o":"m 261 500 q 262 502 261 501 q 263 504 263 503 l 264 506 l 261 500 m 179 593 q 110 506 135 549 q 85 433 85 463 q 104 408 85 408 q 167 433 124 408 q 263 504 210 458 l 299 569 l 297 568 q 299 582 299 574 q 286 618 299 606 q 254 631 274 631 q 179 593 221 631 m 97 222 q 126 265 114 247 q 149 298 139 283 q 167 326 158 313 q 183 354 175 339 q 119 329 149 336 q 67 322 90 322 q -22 358 8 322 q -51 447 -51 393 q -37 517 -51 481 q 0 590 -24 554 q 98 686 39 646 q 228 726 157 726 q 293 711 264 726 q 342 664 322 696 q 358 688 350 682 q 383 694 367 694 q 400 692 389 694 q 402 691 401 692 q 406 690 403 690 q 408 690 407 690 q 413 689 410 689 q 442 682 424 686 q 489 675 461 678 q 506 663 501 674 q 504 644 511 653 l 504 646 q 392 429 446 529 q 289 249 338 329 l 260 207 q 208 131 246 185 q 116 10 171 78 q -8 -129 61 -57 q -153 -262 -76 -201 q -311 -361 -229 -322 q -474 -400 -393 -400 q -590 -366 -544 -400 q -635 -265 -635 -332 q -576 -123 -635 -206 q -407 38 -517 -40 q -390 44 -400 40 q -378 49 -381 49 q -353 37 -362 49 q -344 13 -344 25 q -345 3 -344 7 q -346 -4 -346 -1 l -346 -11 q -504 -151 -456 -87 q -553 -256 -553 -215 q -494 -304 -553 -304 q -395 -278 -454 -304 q -262 -195 -336 -253 q -104 -44 -189 -137 q 74 188 -19 50 l 97 222 z "},"":{"ha":931,"x_min":-131,"x_max":1090,"o":"m 340 314 q 342 316 342 315 q 343 318 342 317 q 344 321 343 319 l 340 314 m 301 757 l 267 713 q 236 671 251 692 q 206 631 221 650 q 193 613 199 621 q 188 604 188 606 l 188 606 q 183 600 183 600 q 182 601 182 600 q 181 599 182 601 q 171 585 179 596 q 219 615 193 600 q 270 641 244 629 q 320 660 296 653 q 365 667 344 667 q 394 662 379 667 q 421 647 408 657 q 442 619 433 636 q 450 579 450 603 q 438 525 450 558 q 410 454 426 492 q 374 379 393 417 q 340 314 356 342 q 302 237 317 269 q 288 185 288 204 q 296 179 288 179 q 381 201 329 179 q 494 260 433 224 q 622 343 556 297 q 748 435 688 389 q 858 525 808 482 q 939 599 908 568 l 942 600 q 945 601 943 601 q 950 604 947 601 q 960 610 956 607 q 971 613 964 613 q 997 601 986 613 q 1007 574 1007 590 q 999 546 1007 554 q 899 456 956 503 q 778 365 842 410 q 650 277 715 319 q 524 200 585 235 q 466 170 500 188 q 394 137 432 153 q 318 110 357 121 q 249 100 279 100 q 179 122 207 100 q 151 188 151 144 q 160 238 151 210 q 184 299 169 267 q 217 366 199 332 q 253 433 235 400 l 272 465 l 271 465 q 301 535 290 510 q 311 575 311 561 q 263 552 294 572 q 193 503 231 532 q 118 444 156 475 q 53 388 81 413 l 36 372 l 38 372 q 10 349 24 358 q -11 336 -4 339 q -28 333 -17 333 q -53 333 -39 333 q -97 341 -79 333 q -128 369 -114 349 l -128 368 q -129 383 -131 371 q -125 397 -128 394 l -128 396 q -70 488 -103 439 q 0 590 -37 538 q 110 742 51 664 q 231 897 169 821 q 353 1043 292 972 q 471 1172 414 1114 q 611 1300 543 1247 q 742 1386 679 1353 q 858 1435 804 1419 q 957 1450 913 1450 q 999 1444 976 1450 q 1042 1430 1022 1439 q 1076 1407 1063 1421 q 1090 1376 1090 1393 q 1081 1351 1090 1361 q 1060 1342 1072 1342 q 1033 1350 1046 1342 l 1035 1349 q 1015 1357 1025 1353 q 997 1361 1004 1361 q 903 1339 953 1361 q 803 1283 853 1317 q 706 1208 753 1249 q 619 1128 658 1167 q 462 959 535 1044 q 336 807 389 874 l 301 757 z "},"":{"ha":403,"x_min":-165,"x_max":282,"o":"m -22 129 q -36 128 -29 128 q -49 128 -43 128 q -133 156 -101 128 q -165 243 -165 185 q -134 365 -165 290 q -42 531 -103 439 l 0 590 q 38 644 22 624 q 65 676 53 665 q 91 690 78 686 q 124 693 104 693 q 152 692 136 693 q 181 688 168 692 q 204 677 194 685 q 214 657 214 669 q 201 622 214 642 q 175 586 188 601 l 172 581 q 113 502 149 551 q 43 399 76 453 q -15 295 10 344 q -39 217 -39 246 q -31 203 -39 210 q -17 190 -24 197 q 0 177 -7 183 q 7 158 7 171 q -1 142 7 149 q -19 129 -8 135 l -22 129 m 192 897 q 229 889 213 897 q 258 868 246 881 q 276 840 269 856 q 282 811 282 825 q 254 747 282 772 q 190 721 226 721 q 131 745 160 721 q 101 808 101 769 q 126 870 101 843 q 192 897 151 897 z "},"":{"ha":474,"x_min":-922,"x_max":250,"o":"m 161 903 q 197 894 181 903 q 226 874 214 886 q 244 845 238 861 q 250 815 250 829 q 223 752 250 778 q 160 726 196 726 q 101 751 129 726 q 72 814 72 775 q 96 876 72 849 q 161 903 119 903 m -232 213 q -112 391 -174 296 q 1 590 -50 486 l 42 671 q 67 684 47 681 q 108 688 86 688 q 178 678 164 688 q 192 651 192 668 q 191 649 192 650 q 190 646 190 649 l 190 639 q 78 427 131 522 q -21 261 25 332 l -76 183 q -287 -75 -183 29 q -482 -243 -390 -179 q -651 -335 -574 -307 q -783 -362 -728 -362 q -886 -332 -850 -362 q -922 -246 -922 -301 q -867 -111 -922 -189 q -683 49 -811 -33 l -674 51 l -676 50 q -667 55 -671 53 q -661 57 -662 57 q -634 47 -647 57 q -621 19 -621 36 q -637 -8 -621 7 q -675 -37 -654 -22 l -689 -47 l -687 -47 l -700 -56 l -701 -57 l -735 -82 q -818 -175 -787 -131 q -849 -240 -849 -219 q -807 -269 -849 -269 q -716 -240 -774 -269 q -586 -156 -658 -211 q -431 -18 -514 -100 q -264 168 -349 64 l -232 213 z "},"":{"ha":888,"x_min":-211,"x_max":1094,"o":"m 210 633 q 272 657 239 644 q 338 679 304 669 q 402 695 371 689 q 458 701 433 701 q 497 692 483 701 q 511 657 511 682 q 499 628 510 633 q 463 624 489 624 q 403 615 444 622 q 306 590 363 608 l 307 590 q 215 552 258 571 q 142 518 171 533 q 170 405 154 457 q 209 315 186 353 q 263 255 232 276 q 338 233 294 233 q 447 260 385 233 q 581 335 508 286 q 734 451 653 383 q 903 603 815 519 l 901 603 q 929 611 910 611 q 964 572 964 611 q 960 557 964 565 q 953 543 957 549 q 790 400 875 471 q 619 272 706 329 q 447 180 532 215 q 285 144 361 144 q 135 198 206 144 q 18 360 65 251 l 0 338 q -47 265 -24 297 q -85 226 -69 232 q -133 218 -108 218 q -177 228 -157 218 q -208 257 -197 239 l -208 256 q -210 269 -211 258 q -208 283 -210 281 l -208 282 q -120 419 -174 340 q 0 590 -67 499 q 117 747 56 667 q 238 903 178 826 q 356 1047 299 979 q 464 1168 414 1115 q 603 1288 533 1236 q 735 1374 672 1339 q 853 1426 799 1408 q 949 1444 907 1444 q 998 1438 972 1444 q 1045 1420 1024 1432 q 1081 1392 1067 1408 q 1094 1357 1094 1376 q 1081 1325 1094 1338 q 1053 1313 1067 1313 q 1038 1317 1046 1313 q 1022 1326 1029 1321 q 1000 1338 1013 1332 q 969 1343 988 1343 q 827 1303 900 1343 q 683 1199 754 1263 q 543 1056 611 1135 q 414 897 475 976 q 301 748 353 818 q 210 633 249 678 z "},"":{"ha":439,"x_min":-167,"x_max":1110,"o":"m 26 -12 q 24 -14 25 -12 q -19 -18 4 -18 q -133 25 -100 -18 q -167 138 -167 68 q -153 237 -167 182 q -117 351 -140 292 q -64 472 -94 411 q 0 590 -33 533 q 265 955 125 800 q 539 1212 404 1110 q 792 1363 674 1314 q 992 1413 910 1413 q 1028 1410 1007 1413 q 1067 1401 1049 1407 q 1097 1388 1085 1396 q 1110 1368 1110 1379 q 1099 1346 1110 1357 q 1074 1335 1089 1335 q 1067 1336 1069 1335 q 892 1274 981 1318 q 718 1167 804 1229 q 549 1030 632 1106 q 393 874 467 954 q 257 713 319 794 q 147 560 194 632 q 76 435 110 500 q 16 310 42 371 q -25 198 -10 250 q -40 110 -40 146 q 1 53 -40 53 q 24 57 7 53 q 63 22 63 54 q 56 0 63 11 q 29 -12 49 -11 l 26 -12 z "},"":{"ha":1218,"x_min":-211,"x_max":935,"o":"m 753 39 l 753 42 q 742 33 749 33 q 651 66 676 38 q 626 138 626 94 q 651 236 626 181 q 701 344 675 292 l 717 375 l 715 374 q 722 390 718 386 l 722 388 l 731 407 q 742 431 738 418 q 756 465 747 444 q 770 515 764 492 q 776 546 776 538 q 775 558 776 558 q 731 540 761 558 q 669 494 701 521 q 491 351 553 397 q 414 304 429 304 q 396 310 403 304 q 389 331 389 315 q 415 390 389 344 l 419 400 q 446 452 432 422 q 472 515 460 482 q 493 583 485 549 q 501 650 501 617 q 485 683 501 683 q 437 669 465 683 q 381 638 408 654 q 249 528 318 592 q 119 399 181 464 q 10 276 57 333 q -57 183 -37 218 l -57 185 q -78 169 -64 174 q -111 164 -92 164 q -141 167 -125 164 q -172 176 -157 169 q -197 191 -186 182 q -211 213 -207 200 q -210 215 -211 214 q -210 217 -210 215 l 0 590 l 92 754 l 90 754 q 106 772 96 769 q 126 775 115 775 l 213 775 q 240 765 233 775 q 247 740 247 756 q 240 714 247 732 q 219 670 232 696 q 190 613 207 644 q 153 549 172 582 q 245 631 196 590 q 344 703 294 671 q 444 756 394 736 q 538 775 493 775 q 627 742 603 775 q 651 660 651 710 q 647 613 651 639 q 636 563 643 586 q 732 624 681 599 q 832 650 783 650 q 910 619 885 650 q 935 540 935 588 q 926 485 935 515 q 904 420 918 454 q 874 351 890 386 q 839 282 857 315 l 826 257 l 828 257 l 821 243 q 778 149 797 193 q 760 69 760 104 q 763 56 760 67 l 763 51 q 760 46 763 49 l 753 39 z "},"":{"ha":856,"x_min":-214,"x_max":599,"o":"m 403 49 l 406 49 q 399 47 403 47 q 392 47 394 47 q 306 85 331 54 q 282 157 282 115 q 292 219 282 186 q 316 289 301 253 q 349 361 331 325 q 383 432 367 397 q 405 475 393 447 q 432 538 417 503 q 451 615 451 589 q 439 632 451 632 q 383 615 417 632 q 313 574 349 597 q 244 528 276 551 q 196 490 213 504 q 48 334 114 417 q -58 182 -18 251 q -83 167 -62 175 q -129 160 -104 160 q -170 168 -147 160 q -207 201 -193 176 l -207 199 q -212 214 -214 206 q -204 225 -211 222 l 0 590 l 90 753 l 89 753 q 105 771 94 768 q 125 774 115 774 l 211 774 q 241 764 233 774 q 249 739 249 754 q 241 711 249 725 q 228 692 233 697 l 228 694 q 205 653 215 671 q 185 617 194 635 q 165 581 175 600 q 142 539 154 563 q 332 676 244 632 q 482 719 419 719 q 567 690 535 719 q 599 604 599 660 q 583 528 599 574 q 543 435 567 482 q 496 343 519 390 q 453 251 472 296 q 423 165 435 206 q 411 96 411 125 q 417 72 411 85 l 415 72 q 419 65 418 67 q 421 63 421 64 l 403 49 z "},"":{"ha":594,"x_min":-106,"x_max":399,"o":"m 229 525 q 189 503 211 518 q 147 467 167 489 q 203 436 171 450 q 263 415 235 422 q 309 522 296 474 q 322 610 322 569 q 288 698 322 671 q 214 725 254 725 q 163 717 188 725 q 118 693 138 708 q 87 654 99 678 q 75 601 75 631 q 79 564 75 582 q 142 594 115 588 q 193 601 169 601 q 240 587 222 601 q 257 557 257 572 q 229 525 257 533 m 61 211 q 125 244 85 211 q 217 346 165 276 q 155 371 182 357 q 103 408 128 385 q 56 318 71 360 q 40 249 40 276 q 45 222 40 232 q 61 211 50 211 m 306 343 q 149 167 226 219 q 15 115 72 115 q -74 152 -42 115 q -106 253 -106 189 q -73 388 -106 315 q 21 518 -40 460 q 6 554 11 538 q 0 590 0 571 q 17 675 0 635 q 64 745 35 715 q 130 793 93 775 q 207 811 167 811 q 297 793 260 811 q 356 747 333 775 q 389 683 379 718 q 399 615 399 649 q 376 490 397 554 q 326 376 354 425 l 306 343 z "},"":{"ha":794,"x_min":-600,"x_max":507,"o":"m 400 275 q 307 189 353 224 q 217 133 261 154 q 135 102 174 111 q 64 93 96 93 q -36 121 1 93 q -74 188 -74 149 q -56 237 -74 211 q 0 284 -39 263 q 101 322 39 306 q 251 340 163 338 q 306 426 283 379 q 328 514 328 474 q 318 543 328 531 q 285 556 308 556 q 251 550 274 556 q 208 536 228 544 l 178 526 l 157 518 l 158 518 q 111 500 125 507 l 114 501 l -83 200 l -447 -357 q -459 -369 -451 -364 q -478 -374 -467 -374 l -564 -374 q -592 -365 -585 -374 q -600 -340 -600 -356 q -585 -297 -600 -322 q -550 -243 -569 -272 l -539 -224 q -523 -201 -531 -212 q -508 -179 -515 -190 l -492 -153 q -433 -60 -468 -115 q -355 61 -397 -4 q -266 199 -312 126 q -172 340 -219 271 q -81 474 -125 410 q 0 590 -37 539 q 72 685 43 650 q 113 721 101 721 l 197 721 q 226 712 219 721 q 232 688 232 703 q 224 657 232 674 q 201 622 215 640 q 274 637 239 633 q 338 640 308 640 q 463 602 419 640 q 507 500 507 564 q 486 409 507 458 q 425 310 465 360 l 400 275 m 28 186 q 85 202 47 186 q 167 254 122 218 q 47 224 83 243 q 10 190 10 206 q 28 186 10 186 z "},"":{"ha":789,"x_min":-296,"x_max":619,"o":"m 178 124 l 117 33 q -1 -169 51 -72 q -92 -347 -54 -265 q -150 -493 -129 -429 q -171 -596 -171 -557 q -122 -660 -171 -660 l -97 -657 q -85 -665 -93 -657 q -69 -686 -76 -672 l -67 -694 l -67 -692 q -68 -708 -64 -699 q -79 -719 -72 -717 l -78 -719 q -156 -735 -117 -735 q -257 -691 -218 -735 q -296 -556 -296 -647 q -276 -418 -296 -497 q -208 -237 -256 -339 q -85 -10 -161 -135 q 103 261 -8 114 q 79 258 92 258 q 57 257 67 257 q -40 299 -8 257 q -72 404 -72 342 q -53 497 -72 447 q 0 590 -35 546 q 108 687 44 649 q 249 725 172 725 q 342 703 301 725 q 401 622 383 681 l 485 713 l 500 713 q 514 713 507 713 q 528 714 521 714 q 559 713 543 714 q 589 707 575 711 q 611 695 603 703 q 619 675 619 688 q 610 649 619 658 l 610 650 q 499 524 556 590 q 388 391 442 457 q 285 264 333 325 q 201 154 238 203 l 178 124 m 222 415 l 261 463 l 336 553 q 333 574 336 561 q 326 600 331 588 q 313 622 321 613 q 292 631 304 631 q 221 600 260 631 q 148 527 182 569 q 90 440 114 485 q 67 365 67 394 q 88 349 67 349 q 134 358 107 349 q 201 388 161 367 l 199 386 l 222 415 z "},"":{"ha":465,"x_min":-15,"x_max":349,"o":"m 110 -47 q 96 -60 110 -60 q 9 -24 33 -57 q -15 64 -15 10 q 8 198 -15 124 q 63 343 31 272 q 130 473 96 414 q 185 561 164 532 q 163 592 172 576 q 147 624 154 608 l 60 546 l 61 546 q 38 538 53 538 q 9 551 19 538 q -1 576 -1 565 l -1 585 q 0 590 -1 589 l 129 706 q 128 719 128 713 q 129 729 129 725 q 141 802 129 771 q 171 853 153 833 q 210 884 189 874 q 249 894 231 894 q 296 878 276 894 q 315 831 315 861 q 302 783 315 813 q 254 721 289 753 l 263 713 l 285 688 l 293 675 l 293 676 q 331 622 314 649 q 349 567 349 596 q 333 514 349 542 q 285 453 311 490 q 231 372 258 417 q 178 278 204 328 q 133 182 153 229 q 101 92 113 135 q 89 18 89 50 q 90 -17 89 -17 q 113 -39 113 -28 l 110 -47 z "},"":{"ha":435,"x_min":-154,"x_max":206,"o":"m 17 379 q 5 478 10 438 q 0 553 0 518 q -1 572 0 563 q 0 590 -1 581 q 17 668 4 632 q 50 732 31 704 q 94 776 69 760 q 147 792 119 792 q 189 775 172 792 q 206 729 206 758 q 191 678 206 708 q 139 613 176 647 q 140 583 139 599 q 144 542 142 568 q 153 476 147 517 q 168 372 160 436 l 172 340 q 176 294 175 319 q 176 249 176 269 q 165 162 176 207 q 128 78 153 117 q 65 16 103 40 q -25 -8 26 -8 q -119 31 -85 -8 q -154 133 -154 71 q -152 157 -154 142 q -145 188 -150 172 q -131 215 -140 204 q -108 226 -122 226 q -83 217 -93 226 q -72 188 -72 207 q -78 163 -72 176 q -78 159 -78 161 q -79 154 -79 157 q -82 142 -82 143 q -71 105 -82 119 q -44 90 -60 90 q 1 131 -21 90 q 24 269 24 172 l 17 379 z "},"":{"ha":478,"x_min":-258,"x_max":1132,"o":"m -199 -144 q -208 -146 -201 -147 q -221 -142 -215 -144 q -249 -103 -240 -129 q -258 -40 -258 -76 q -237 97 -258 22 q -181 254 -217 172 q -99 422 -146 336 q 0 590 -53 507 q 104 749 51 672 q 206 892 157 825 q 296 1012 254 958 q 365 1100 338 1065 q 240 1107 297 1100 q 139 1129 182 1114 q 71 1171 96 1144 q 44 1238 46 1197 q 54 1265 44 1254 q 79 1278 64 1276 q 106 1267 94 1278 q 118 1239 117 1257 q 140 1206 119 1219 q 197 1185 161 1193 q 280 1174 232 1178 q 383 1171 328 1171 l 422 1171 l 433 1182 l 433 1181 q 474 1226 458 1210 q 500 1251 489 1243 q 522 1263 511 1260 q 550 1265 533 1265 l 614 1265 q 651 1233 651 1265 q 643 1209 651 1222 q 624 1182 635 1196 l 1099 1193 q 1125 1187 1118 1193 q 1132 1163 1132 1181 q 1117 1132 1132 1147 q 1079 1117 1103 1117 q 1022 1114 1063 1115 q 927 1112 981 1113 q 814 1109 874 1111 q 701 1106 754 1107 q 606 1104 647 1106 q 549 1101 565 1103 q 498 1037 536 1088 q 405 911 460 986 q 284 744 350 836 q 151 552 218 651 q 21 354 83 453 q -91 169 -42 256 q -169 14 -140 82 q -199 -93 -199 -54 q -197 -112 -199 -111 q -190 -135 -181 -125 l -190 -133 l -199 -144 z "},"":{"ha":808,"x_min":-68,"x_max":582,"o":"m 328 133 q 314 125 324 125 q 237 172 260 139 q 214 250 214 206 q 229 343 214 294 q 272 442 244 392 q 213 399 244 421 q 148 360 181 378 q 84 332 115 343 q 26 321 53 321 q -44 350 -19 321 q -68 419 -68 379 q -48 501 -68 457 q 0 590 -28 546 q 78 696 36 647 q 146 769 119 744 l 239 769 q 276 736 276 769 q 269 711 276 724 q 247 682 261 699 q 201 622 231 661 q 144 540 172 582 q 94 459 117 497 q 69 401 72 421 q 115 424 85 406 q 189 474 144 443 q 247 519 217 494 q 304 567 276 543 q 356 613 332 592 q 397 650 381 635 q 400 651 399 650 q 404 654 401 653 l 403 654 q 417 665 408 658 q 432 678 425 671 q 449 693 440 685 l 550 696 q 582 663 582 696 q 572 630 582 647 q 550 599 561 613 l 550 600 l 542 586 q 483 506 519 558 q 413 395 447 454 q 353 279 378 336 q 328 183 328 222 q 335 156 328 165 l 335 157 q 332 139 338 150 l 328 133 z "},"":{"ha":635,"x_min":-167,"x_max":471,"o":"m 453 547 q 470 533 469 542 q 460 515 471 524 q 449 503 454 510 q 435 488 443 496 q 419 469 428 479 l 407 457 l 397 449 q 332 384 368 419 q 256 313 296 349 q 175 244 217 278 q 94 185 133 211 q 17 144 54 160 q -49 128 -19 128 q -101 138 -79 128 q -138 166 -124 149 q -160 204 -153 183 q -167 246 -167 225 q -151 324 -167 281 q -112 414 -136 368 q -58 506 -87 460 q 0 590 -28 551 q 16 612 8 601 q 31 632 24 622 q 47 655 38 643 q 65 678 57 667 l 65 676 q 94 697 75 697 l 181 697 q 210 688 200 697 q 219 664 219 679 q 206 628 219 649 q 179 594 193 608 l 175 588 l 171 582 l 171 583 q 89 472 125 526 q 28 372 53 418 q -11 289 3 325 q -25 231 -25 253 q -12 214 -25 214 q 34 233 6 214 q 98 281 63 251 q 174 350 133 311 q 254 429 214 389 l 294 463 l 311 478 q 359 525 335 501 q 404 564 383 549 l 403 564 q 415 566 406 567 q 432 560 424 565 l 453 547 z "},"":{"ha":1094,"x_min":-140,"x_max":865,"o":"m 860 535 l 858 535 q 865 525 865 532 q 858 514 864 518 l 832 485 q 824 476 826 478 q 819 471 821 474 l 818 468 q 799 443 811 456 q 698 347 756 401 q 578 244 640 293 q 458 162 517 196 q 357 128 400 128 q 300 139 324 128 q 262 167 276 150 q 241 204 247 183 q 235 246 235 225 q 243 306 235 274 q 265 368 251 338 q 194 310 232 339 q 115 257 156 281 q 35 218 75 233 q -39 203 -4 203 q -117 236 -93 203 q -140 308 -140 269 q -126 375 -140 339 q -92 449 -112 411 q -47 522 -71 486 q -1 590 -22 558 l 65 689 q 92 697 69 693 q 140 700 115 700 q 191 692 167 700 q 215 660 215 683 q 213 653 215 657 q 208 643 211 649 l 201 629 l 192 618 l 192 619 l 174 593 q 119 516 150 561 q 58 425 88 471 q 9 340 29 379 q -11 281 -11 301 l -11 279 q 72 318 11 279 q 146 369 107 339 q 223 432 185 399 q 296 498 261 465 q 358 557 331 531 l 381 578 l 403 597 q 428 619 418 610 q 447 629 439 629 l 533 629 q 562 620 554 629 q 569 596 569 611 q 556 558 569 579 q 528 515 543 538 l 528 517 l 519 503 l 508 488 l 471 438 q 440 387 457 417 q 407 327 422 357 q 381 269 392 297 q 371 225 371 242 q 383 211 371 211 q 445 238 406 211 q 531 304 485 264 q 626 391 578 344 q 715 479 675 438 q 754 517 733 499 q 792 549 775 535 l 790 549 l 800 557 q 829 561 818 567 l 860 535 z "},"":{"ha":747,"x_min":-208,"x_max":667,"o":"m 607 711 l 606 711 q 617 717 611 717 q 632 718 622 718 q 655 707 643 718 q 667 679 667 696 l 667 665 q 664 660 667 663 l 288 357 q 313 279 299 310 q 340 229 326 249 q 367 199 354 210 q 392 179 381 188 q 394 174 394 176 l 394 176 q 393 179 393 179 q 417 163 408 171 q 425 143 425 156 q 410 113 425 124 q 368 101 394 101 q 320 110 347 101 q 265 138 293 118 q 210 187 236 157 q 164 261 183 217 l 43 165 l -146 15 l -147 15 q -149 15 -149 15 q -151 14 -150 14 l -154 14 q -160 11 -157 13 q -167 10 -164 10 q -194 21 -183 10 q -206 49 -206 32 l -206 57 q -204 65 -208 63 l 143 342 q 119 483 125 410 q 114 628 114 557 q 129 656 114 649 q 168 663 144 663 l 193 663 q 221 663 207 663 q 246 659 235 663 q 265 647 257 656 q 272 619 272 638 q 272 603 272 613 q 271 588 272 594 l 271 589 q 269 556 269 574 q 268 519 268 539 q 272 442 268 485 l 607 711 z "},"":{"ha":908,"x_min":-482,"x_max":660,"o":"m 185 132 q 299 302 246 217 q 393 461 353 388 q 306 385 353 424 q 212 317 260 347 q 117 268 164 288 q 31 249 71 249 q -61 278 -35 249 q -87 356 -87 308 q -62 467 -87 404 q 0 590 -36 529 q 50 669 25 632 q 97 733 75 706 q 135 777 119 761 q 154 793 150 793 l 240 793 q 278 761 278 793 q 261 704 278 739 q 219 630 244 669 q 166 547 194 590 q 113 465 138 504 q 71 394 88 426 q 54 343 54 361 q 65 331 54 331 q 143 354 97 331 q 240 413 189 378 q 342 490 292 449 q 433 567 393 532 q 497 626 472 603 q 521 650 522 650 q 531 658 522 650 q 549 676 539 667 q 570 693 560 685 q 588 701 581 701 q 639 693 618 701 q 660 661 660 685 l 660 653 q 547 434 603 538 q 439 246 490 331 q 275 22 361 125 q 104 -162 189 -82 q -56 -296 19 -242 q -187 -371 -132 -350 q -325 -400 -262 -400 q -441 -362 -400 -400 q -482 -265 -482 -325 q -435 -136 -482 -210 q -292 11 -389 -62 q -268 21 -285 21 q -240 10 -250 21 q -229 -18 -229 -1 q -235 -33 -229 -24 q -246 -47 -240 -42 q -307 -107 -279 -76 q -355 -165 -335 -137 q -386 -217 -375 -193 q -397 -257 -397 -240 q -343 -306 -397 -306 q -251 -283 -306 -306 q -129 -208 -197 -260 q 18 -73 -61 -157 q 185 132 97 11 z "}}}
